M48
; DRILL file {KiCad 5.1.5+dfsg1-2build2} date Do 06 Jan 2022 20:40:22 CET
; FORMAT={-:-/ absolute / inch / decimal}
; #@! TF.CreationDate,2022-01-06T20:40:22+01:00
; #@! TF.GenerationSoftware,Kicad,Pcbnew,5.1.5+dfsg1-2build2
; #@! TF.FileFunction,Plated,1,2,PTH
FMAT,2
INCH
T1C0.0300
T2C0.0315
T3C0.0394
T4C0.0433
T5C0.0728
%
G90
G05
T1
X2.5049Y-3.765
X2.5049Y-3.865
X2.5049Y-3.965
X2.5049Y-4.065
X2.5049Y-4.165
X2.5049Y-4.265
X2.5049Y-4.365
X2.5049Y-4.465
X2.5049Y-4.565
X2.5049Y-4.665
X2.5049Y-4.765
X2.5049Y-4.865
X2.5049Y-4.965
X2.5049Y-5.065
X2.5049Y-5.165
X3.6049Y-3.765
X3.6049Y-3.865
X3.6049Y-3.965
X3.6049Y-4.065
X3.6049Y-4.165
X3.6049Y-4.265
X3.6049Y-4.365
X3.6049Y-4.465
X3.6049Y-4.565
X3.6049Y-4.665
X3.6049Y-4.765
X3.6049Y-4.865
X3.6049Y-4.965
X3.6049Y-5.065
X3.6049Y-5.165
T2
X3.38Y-3.987
X3.38Y-4.387
X3.227Y-4.5066
X3.227Y-4.9066
X3.227Y-3.9826
X3.227Y-4.3826
X3.227Y-5.03
X3.227Y-5.43
X3.227Y-3.6618
X3.227Y-3.8586
T3
X3.8489Y-4.4566
X3.8489Y-4.555
X2.2619Y-5.2561
X2.2619Y-5.3546
X3.8489Y-4.0526
X3.8489Y-4.151
X2.2619Y-4.87
X2.2619Y-4.9684
T4
X2.81Y-4.4373
X2.91Y-4.4373
X3.01Y-4.4373
X2.81Y-5.3373
X2.91Y-5.3373
X3.01Y-5.3373
X3.765Y-4.7991
X3.765Y-5.055
X3.9422Y-4.7991
X3.9422Y-5.055
T5
X2.2501Y-3.7279
X2.2501Y-3.913
X2.2501Y-4.098
T0
M30
