G04 #@! TF.GenerationSoftware,KiCad,Pcbnew,5.1.5+dfsg1-2build2*
G04 #@! TF.CreationDate,2022-01-06T00:43:13+01:00*
G04 #@! TF.ProjectId,Bell,42656c6c-2e6b-4696-9361-645f70636258,V1.0*
G04 #@! TF.SameCoordinates,Original*
G04 #@! TF.FileFunction,Legend,Top*
G04 #@! TF.FilePolarity,Positive*
%FSLAX46Y46*%
G04 Gerber Fmt 4.6, Leading zero omitted, Abs format (unit mm)*
G04 Created by KiCad (PCBNEW 5.1.5+dfsg1-2build2) date 2022-01-06 00:43:13*
%MOMM*%
%LPD*%
G04 APERTURE LIST*
%ADD10C,0.150000*%
%ADD11C,0.120000*%
%ADD12C,0.100000*%
%ADD13C,0.010000*%
G04 APERTURE END LIST*
D10*
X131727676Y-72617580D02*
X132299104Y-72617580D01*
X132013390Y-73617580D02*
X132013390Y-72617580D01*
X132632438Y-72617580D02*
X132632438Y-73427104D01*
X132680057Y-73522342D01*
X132727676Y-73569961D01*
X132822914Y-73617580D01*
X133013390Y-73617580D01*
X133108628Y-73569961D01*
X133156247Y-73522342D01*
X133203866Y-73427104D01*
X133203866Y-72617580D01*
X131751485Y-75267580D02*
X131751485Y-74267580D01*
X131989580Y-74267580D01*
X132132438Y-74315200D01*
X132227676Y-74410438D01*
X132275295Y-74505676D01*
X132322914Y-74696152D01*
X132322914Y-74839009D01*
X132275295Y-75029485D01*
X132227676Y-75124723D01*
X132132438Y-75219961D01*
X131989580Y-75267580D01*
X131751485Y-75267580D01*
X132941961Y-74267580D02*
X133132438Y-74267580D01*
X133227676Y-74315200D01*
X133322914Y-74410438D01*
X133370533Y-74600914D01*
X133370533Y-74934247D01*
X133322914Y-75124723D01*
X133227676Y-75219961D01*
X133132438Y-75267580D01*
X132941961Y-75267580D01*
X132846723Y-75219961D01*
X132751485Y-75124723D01*
X132703866Y-74934247D01*
X132703866Y-74600914D01*
X132751485Y-74410438D01*
X132846723Y-74315200D01*
X132941961Y-74267580D01*
X133759676Y-70966580D02*
X134331104Y-70966580D01*
X134045390Y-71966580D02*
X134045390Y-70966580D01*
X134664438Y-70966580D02*
X134664438Y-71776104D01*
X134712057Y-71871342D01*
X134759676Y-71918961D01*
X134854914Y-71966580D01*
X135045390Y-71966580D01*
X135140628Y-71918961D01*
X135188247Y-71871342D01*
X135235866Y-71776104D01*
X135235866Y-70966580D01*
X133783485Y-73616580D02*
X133783485Y-72616580D01*
X134021580Y-72616580D01*
X134164438Y-72664200D01*
X134259676Y-72759438D01*
X134307295Y-72854676D01*
X134354914Y-73045152D01*
X134354914Y-73188009D01*
X134307295Y-73378485D01*
X134259676Y-73473723D01*
X134164438Y-73568961D01*
X134021580Y-73616580D01*
X133783485Y-73616580D01*
X134973961Y-72616580D02*
X135164438Y-72616580D01*
X135259676Y-72664200D01*
X135354914Y-72759438D01*
X135402533Y-72949914D01*
X135402533Y-73283247D01*
X135354914Y-73473723D01*
X135259676Y-73568961D01*
X135164438Y-73616580D01*
X134973961Y-73616580D01*
X134878723Y-73568961D01*
X134783485Y-73473723D01*
X134735866Y-73283247D01*
X134735866Y-72949914D01*
X134783485Y-72759438D01*
X134878723Y-72664200D01*
X134973961Y-72616580D01*
X129314676Y-70966580D02*
X129886104Y-70966580D01*
X129600390Y-71966580D02*
X129600390Y-70966580D01*
X130219438Y-70966580D02*
X130219438Y-71776104D01*
X130267057Y-71871342D01*
X130314676Y-71918961D01*
X130409914Y-71966580D01*
X130600390Y-71966580D01*
X130695628Y-71918961D01*
X130743247Y-71871342D01*
X130790866Y-71776104D01*
X130790866Y-70966580D01*
X129338485Y-73616580D02*
X129338485Y-72616580D01*
X129576580Y-72616580D01*
X129719438Y-72664200D01*
X129814676Y-72759438D01*
X129862295Y-72854676D01*
X129909914Y-73045152D01*
X129909914Y-73188009D01*
X129862295Y-73378485D01*
X129814676Y-73473723D01*
X129719438Y-73568961D01*
X129576580Y-73616580D01*
X129338485Y-73616580D01*
X130528961Y-72616580D02*
X130719438Y-72616580D01*
X130814676Y-72664200D01*
X130909914Y-72759438D01*
X130957533Y-72949914D01*
X130957533Y-73283247D01*
X130909914Y-73473723D01*
X130814676Y-73568961D01*
X130719438Y-73616580D01*
X130528961Y-73616580D01*
X130433723Y-73568961D01*
X130338485Y-73473723D01*
X130290866Y-73283247D01*
X130290866Y-72949914D01*
X130338485Y-72759438D01*
X130433723Y-72664200D01*
X130528961Y-72616580D01*
X127282676Y-72617580D02*
X127854104Y-72617580D01*
X127568390Y-73617580D02*
X127568390Y-72617580D01*
X128187438Y-72617580D02*
X128187438Y-73427104D01*
X128235057Y-73522342D01*
X128282676Y-73569961D01*
X128377914Y-73617580D01*
X128568390Y-73617580D01*
X128663628Y-73569961D01*
X128711247Y-73522342D01*
X128758866Y-73427104D01*
X128758866Y-72617580D01*
X127306485Y-75267580D02*
X127306485Y-74267580D01*
X127544580Y-74267580D01*
X127687438Y-74315200D01*
X127782676Y-74410438D01*
X127830295Y-74505676D01*
X127877914Y-74696152D01*
X127877914Y-74839009D01*
X127830295Y-75029485D01*
X127782676Y-75124723D01*
X127687438Y-75219961D01*
X127544580Y-75267580D01*
X127306485Y-75267580D01*
X128496961Y-74267580D02*
X128687438Y-74267580D01*
X128782676Y-74315200D01*
X128877914Y-74410438D01*
X128925533Y-74600914D01*
X128925533Y-74934247D01*
X128877914Y-75124723D01*
X128782676Y-75219961D01*
X128687438Y-75267580D01*
X128496961Y-75267580D01*
X128401723Y-75219961D01*
X128306485Y-75124723D01*
X128258866Y-74934247D01*
X128258866Y-74600914D01*
X128306485Y-74410438D01*
X128401723Y-74315200D01*
X128496961Y-74267580D01*
X124869676Y-70966580D02*
X125441104Y-70966580D01*
X125155390Y-71966580D02*
X125155390Y-70966580D01*
X125774438Y-70966580D02*
X125774438Y-71776104D01*
X125822057Y-71871342D01*
X125869676Y-71918961D01*
X125964914Y-71966580D01*
X126155390Y-71966580D01*
X126250628Y-71918961D01*
X126298247Y-71871342D01*
X126345866Y-71776104D01*
X126345866Y-70966580D01*
X124893485Y-73616580D02*
X124893485Y-72616580D01*
X125131580Y-72616580D01*
X125274438Y-72664200D01*
X125369676Y-72759438D01*
X125417295Y-72854676D01*
X125464914Y-73045152D01*
X125464914Y-73188009D01*
X125417295Y-73378485D01*
X125369676Y-73473723D01*
X125274438Y-73568961D01*
X125131580Y-73616580D01*
X124893485Y-73616580D01*
X126083961Y-72616580D02*
X126274438Y-72616580D01*
X126369676Y-72664200D01*
X126464914Y-72759438D01*
X126512533Y-72949914D01*
X126512533Y-73283247D01*
X126464914Y-73473723D01*
X126369676Y-73568961D01*
X126274438Y-73616580D01*
X126083961Y-73616580D01*
X125988723Y-73568961D01*
X125893485Y-73473723D01*
X125845866Y-73283247D01*
X125845866Y-72949914D01*
X125893485Y-72759438D01*
X125988723Y-72664200D01*
X126083961Y-72616580D01*
X122837676Y-72617580D02*
X123409104Y-72617580D01*
X123123390Y-73617580D02*
X123123390Y-72617580D01*
X123742438Y-72617580D02*
X123742438Y-73427104D01*
X123790057Y-73522342D01*
X123837676Y-73569961D01*
X123932914Y-73617580D01*
X124123390Y-73617580D01*
X124218628Y-73569961D01*
X124266247Y-73522342D01*
X124313866Y-73427104D01*
X124313866Y-72617580D01*
X122861485Y-75267580D02*
X122861485Y-74267580D01*
X123099580Y-74267580D01*
X123242438Y-74315200D01*
X123337676Y-74410438D01*
X123385295Y-74505676D01*
X123432914Y-74696152D01*
X123432914Y-74839009D01*
X123385295Y-75029485D01*
X123337676Y-75124723D01*
X123242438Y-75219961D01*
X123099580Y-75267580D01*
X122861485Y-75267580D01*
X124051961Y-74267580D02*
X124242438Y-74267580D01*
X124337676Y-74315200D01*
X124432914Y-74410438D01*
X124480533Y-74600914D01*
X124480533Y-74934247D01*
X124432914Y-75124723D01*
X124337676Y-75219961D01*
X124242438Y-75267580D01*
X124051961Y-75267580D01*
X123956723Y-75219961D01*
X123861485Y-75124723D01*
X123813866Y-74934247D01*
X123813866Y-74600914D01*
X123861485Y-74410438D01*
X123956723Y-74315200D01*
X124051961Y-74267580D01*
D11*
X146642243Y-89395300D02*
G75*
G03X146642243Y-89395300I-274743J0D01*
G01*
X145719800Y-89662000D02*
X145923000Y-89890600D01*
X146786600Y-88569800D02*
X149275800Y-91059000D01*
X145135600Y-89611200D02*
X146786600Y-88569800D01*
X146354800Y-90830400D02*
X145135600Y-89611200D01*
X149555200Y-88976200D02*
X146354800Y-90830400D01*
X146771721Y-77622400D02*
G75*
G03X146771721Y-77622400I-35921J0D01*
G01*
X146913600Y-77978000D02*
X146913600Y-78232000D01*
X145770600Y-77952600D02*
X147396200Y-77952600D01*
X146913600Y-78232000D02*
X146812000Y-78333600D01*
X146862800Y-77419200D02*
X147396200Y-77952600D01*
X146304000Y-77419200D02*
X145770600Y-77952600D01*
X146583400Y-77724000D02*
X146507200Y-77800200D01*
X146416121Y-77622400D02*
G75*
G03X146416121Y-77622400I-35921J0D01*
G01*
X146151600Y-78257400D02*
X146304000Y-78308200D01*
X146304000Y-77419200D02*
X146862800Y-77419200D01*
X146913600Y-78232000D02*
X147066000Y-78308200D01*
X146151600Y-78257400D02*
X145923000Y-78384400D01*
X146151600Y-78003400D02*
X146151600Y-78232000D01*
X148259800Y-77520800D02*
X148031200Y-77647800D01*
X149021800Y-77495400D02*
X148920200Y-77597000D01*
X148259800Y-77266800D02*
X148259800Y-77495400D01*
X149021800Y-77495400D02*
X149174200Y-77571600D01*
X147878800Y-77216000D02*
X149504400Y-77216000D01*
X148412200Y-76682600D02*
X147878800Y-77216000D01*
X148524321Y-76885800D02*
G75*
G03X148524321Y-76885800I-35921J0D01*
G01*
X148259800Y-77520800D02*
X148412200Y-77571600D01*
X149021800Y-77241400D02*
X149021800Y-77495400D01*
X148879921Y-76885800D02*
G75*
G03X148879921Y-76885800I-35921J0D01*
G01*
X148412200Y-76682600D02*
X148971000Y-76682600D01*
X148691600Y-76987400D02*
X148615400Y-77063600D01*
X148971000Y-76682600D02*
X149504400Y-77216000D01*
X145059400Y-76454000D02*
X145592800Y-76987400D01*
X144500600Y-76454000D02*
X143967200Y-76987400D01*
X145110200Y-77266800D02*
X145262600Y-77343000D01*
X143967200Y-76987400D02*
X145592800Y-76987400D01*
X145110200Y-77012800D02*
X145110200Y-77266800D01*
X145110200Y-77266800D02*
X145008600Y-77368400D01*
X144612721Y-76657200D02*
G75*
G03X144612721Y-76657200I-35921J0D01*
G01*
X144348200Y-77038200D02*
X144348200Y-77266800D01*
X144348200Y-77292200D02*
X144119600Y-77419200D01*
X144780000Y-76758800D02*
X144703800Y-76835000D01*
X144968321Y-76657200D02*
G75*
G03X144968321Y-76657200I-35921J0D01*
G01*
X144348200Y-77292200D02*
X144500600Y-77343000D01*
X144500600Y-76454000D02*
X145059400Y-76454000D01*
X144983200Y-74828400D02*
X144449800Y-75361800D01*
X144449800Y-75361800D02*
X146075400Y-75361800D01*
X145450921Y-75031600D02*
G75*
G03X145450921Y-75031600I-35921J0D01*
G01*
X145095321Y-75031600D02*
G75*
G03X145095321Y-75031600I-35921J0D01*
G01*
X145262600Y-75133200D02*
X145186400Y-75209400D01*
X144983200Y-74828400D02*
X145542000Y-74828400D01*
X145592800Y-75641200D02*
X145491200Y-75742800D01*
X144830800Y-75666600D02*
X144602200Y-75793600D01*
X144830800Y-75666600D02*
X144983200Y-75717400D01*
X145542000Y-74828400D02*
X146075400Y-75361800D01*
X145592800Y-75641200D02*
X145745200Y-75717400D01*
X145592800Y-75387200D02*
X145592800Y-75641200D01*
X144830800Y-75412600D02*
X144830800Y-75641200D01*
X146532600Y-75920600D02*
X145999200Y-76454000D01*
X147142200Y-76733400D02*
X147040600Y-76835000D01*
X146380200Y-76504800D02*
X146380200Y-76733400D01*
X147000321Y-76123800D02*
G75*
G03X147000321Y-76123800I-35921J0D01*
G01*
X146532600Y-75920600D02*
X147091400Y-75920600D01*
X146380200Y-76758800D02*
X146532600Y-76809600D01*
X146380200Y-76758800D02*
X146151600Y-76885800D01*
X147142200Y-76733400D02*
X147294600Y-76809600D01*
X146812000Y-76225400D02*
X146735800Y-76301600D01*
X147091400Y-75920600D02*
X147624800Y-76454000D01*
X147142200Y-76479400D02*
X147142200Y-76733400D01*
X145999200Y-76454000D02*
X147624800Y-76454000D01*
X146644721Y-76123800D02*
G75*
G03X146644721Y-76123800I-35921J0D01*
G01*
X149301200Y-76047600D02*
X149199600Y-76149200D01*
X148158200Y-75768200D02*
X149783800Y-75768200D01*
X149250400Y-75234800D02*
X149783800Y-75768200D01*
X148539200Y-75819000D02*
X148539200Y-76047600D01*
X149301200Y-76047600D02*
X149453600Y-76123800D01*
X148803721Y-75438000D02*
G75*
G03X148803721Y-75438000I-35921J0D01*
G01*
X148539200Y-76073000D02*
X148310600Y-76200000D01*
X149301200Y-75793600D02*
X149301200Y-76047600D01*
X148539200Y-76073000D02*
X148691600Y-76123800D01*
X148971000Y-75539600D02*
X148894800Y-75615800D01*
X148691600Y-75234800D02*
X149250400Y-75234800D01*
X148691600Y-75234800D02*
X148158200Y-75768200D01*
X149159321Y-75438000D02*
G75*
G03X149159321Y-75438000I-35921J0D01*
G01*
X147574000Y-75412600D02*
X147472400Y-75514200D01*
X147574000Y-75412600D02*
X147726400Y-75488800D01*
X146812000Y-75438000D02*
X146583400Y-75565000D01*
X146812000Y-75438000D02*
X146964400Y-75488800D01*
X147574000Y-75158600D02*
X147574000Y-75412600D01*
X146812000Y-75184000D02*
X146812000Y-75412600D01*
X147243800Y-74904600D02*
X147167600Y-74980800D01*
X147432121Y-74803000D02*
G75*
G03X147432121Y-74803000I-35921J0D01*
G01*
X147076521Y-74803000D02*
G75*
G03X147076521Y-74803000I-35921J0D01*
G01*
X147523200Y-74599800D02*
X148056600Y-75133200D01*
X146964400Y-74599800D02*
X147523200Y-74599800D01*
X146431000Y-75133200D02*
X148056600Y-75133200D01*
X146964400Y-74599800D02*
X146431000Y-75133200D01*
D12*
X121653809Y-83375190D02*
X121939523Y-83375190D01*
X121796666Y-83875190D02*
X121796666Y-83375190D01*
X122082380Y-83732333D02*
X122320476Y-83732333D01*
X122034761Y-83875190D02*
X122201428Y-83375190D01*
X122368095Y-83875190D01*
X122534761Y-83875190D02*
X122534761Y-83375190D01*
X122725238Y-83375190D01*
X122772857Y-83399000D01*
X122796666Y-83422809D01*
X122820476Y-83470428D01*
X122820476Y-83541857D01*
X122796666Y-83589476D01*
X122772857Y-83613285D01*
X122725238Y-83637095D01*
X122534761Y-83637095D01*
X123320476Y-83875190D02*
X123153809Y-83637095D01*
X123034761Y-83875190D02*
X123034761Y-83375190D01*
X123225238Y-83375190D01*
X123272857Y-83399000D01*
X123296666Y-83422809D01*
X123320476Y-83470428D01*
X123320476Y-83541857D01*
X123296666Y-83589476D01*
X123272857Y-83613285D01*
X123225238Y-83637095D01*
X123034761Y-83637095D01*
X124010952Y-83375190D02*
X124106190Y-83375190D01*
X124153809Y-83399000D01*
X124201428Y-83446619D01*
X124225238Y-83541857D01*
X124225238Y-83708523D01*
X124201428Y-83803761D01*
X124153809Y-83851380D01*
X124106190Y-83875190D01*
X124010952Y-83875190D01*
X123963333Y-83851380D01*
X123915714Y-83803761D01*
X123891904Y-83708523D01*
X123891904Y-83541857D01*
X123915714Y-83446619D01*
X123963333Y-83399000D01*
X124010952Y-83375190D01*
X124439523Y-83541857D02*
X124439523Y-84041857D01*
X124439523Y-83565666D02*
X124487142Y-83541857D01*
X124582380Y-83541857D01*
X124630000Y-83565666D01*
X124653809Y-83589476D01*
X124677619Y-83637095D01*
X124677619Y-83779952D01*
X124653809Y-83827571D01*
X124630000Y-83851380D01*
X124582380Y-83875190D01*
X124487142Y-83875190D01*
X124439523Y-83851380D01*
X125082380Y-83851380D02*
X125034761Y-83875190D01*
X124939523Y-83875190D01*
X124891904Y-83851380D01*
X124868095Y-83803761D01*
X124868095Y-83613285D01*
X124891904Y-83565666D01*
X124939523Y-83541857D01*
X125034761Y-83541857D01*
X125082380Y-83565666D01*
X125106190Y-83613285D01*
X125106190Y-83660904D01*
X124868095Y-83708523D01*
X125320476Y-83541857D02*
X125320476Y-83875190D01*
X125320476Y-83589476D02*
X125344285Y-83565666D01*
X125391904Y-83541857D01*
X125463333Y-83541857D01*
X125510952Y-83565666D01*
X125534761Y-83613285D01*
X125534761Y-83875190D01*
X126153809Y-83875190D02*
X126153809Y-83375190D01*
X126153809Y-83613285D02*
X126439523Y-83613285D01*
X126439523Y-83875190D02*
X126439523Y-83375190D01*
X126891904Y-83875190D02*
X126891904Y-83613285D01*
X126868095Y-83565666D01*
X126820476Y-83541857D01*
X126725238Y-83541857D01*
X126677619Y-83565666D01*
X126891904Y-83851380D02*
X126844285Y-83875190D01*
X126725238Y-83875190D01*
X126677619Y-83851380D01*
X126653809Y-83803761D01*
X126653809Y-83756142D01*
X126677619Y-83708523D01*
X126725238Y-83684714D01*
X126844285Y-83684714D01*
X126891904Y-83660904D01*
X127130000Y-83875190D02*
X127130000Y-83541857D01*
X127130000Y-83637095D02*
X127153809Y-83589476D01*
X127177619Y-83565666D01*
X127225238Y-83541857D01*
X127272857Y-83541857D01*
X127653809Y-83875190D02*
X127653809Y-83375190D01*
X127653809Y-83851380D02*
X127606190Y-83875190D01*
X127510952Y-83875190D01*
X127463333Y-83851380D01*
X127439523Y-83827571D01*
X127415714Y-83779952D01*
X127415714Y-83637095D01*
X127439523Y-83589476D01*
X127463333Y-83565666D01*
X127510952Y-83541857D01*
X127606190Y-83541857D01*
X127653809Y-83565666D01*
X127844285Y-83541857D02*
X127939523Y-83875190D01*
X128034761Y-83637095D01*
X128130000Y-83875190D01*
X128225238Y-83541857D01*
X128630000Y-83875190D02*
X128630000Y-83613285D01*
X128606190Y-83565666D01*
X128558571Y-83541857D01*
X128463333Y-83541857D01*
X128415714Y-83565666D01*
X128630000Y-83851380D02*
X128582380Y-83875190D01*
X128463333Y-83875190D01*
X128415714Y-83851380D01*
X128391904Y-83803761D01*
X128391904Y-83756142D01*
X128415714Y-83708523D01*
X128463333Y-83684714D01*
X128582380Y-83684714D01*
X128630000Y-83660904D01*
X128868095Y-83875190D02*
X128868095Y-83541857D01*
X128868095Y-83637095D02*
X128891904Y-83589476D01*
X128915714Y-83565666D01*
X128963333Y-83541857D01*
X129010952Y-83541857D01*
X129368095Y-83851380D02*
X129320476Y-83875190D01*
X129225238Y-83875190D01*
X129177619Y-83851380D01*
X129153809Y-83803761D01*
X129153809Y-83613285D01*
X129177619Y-83565666D01*
X129225238Y-83541857D01*
X129320476Y-83541857D01*
X129368095Y-83565666D01*
X129391904Y-83613285D01*
X129391904Y-83660904D01*
X129153809Y-83708523D01*
X130225238Y-83875190D02*
X129987142Y-83875190D01*
X129987142Y-83375190D01*
X130391904Y-83875190D02*
X130391904Y-83541857D01*
X130391904Y-83375190D02*
X130368095Y-83399000D01*
X130391904Y-83422809D01*
X130415714Y-83399000D01*
X130391904Y-83375190D01*
X130391904Y-83422809D01*
X130844285Y-83851380D02*
X130796666Y-83875190D01*
X130701428Y-83875190D01*
X130653809Y-83851380D01*
X130630000Y-83827571D01*
X130606190Y-83779952D01*
X130606190Y-83637095D01*
X130630000Y-83589476D01*
X130653809Y-83565666D01*
X130701428Y-83541857D01*
X130796666Y-83541857D01*
X130844285Y-83565666D01*
X131249047Y-83851380D02*
X131201428Y-83875190D01*
X131106190Y-83875190D01*
X131058571Y-83851380D01*
X131034761Y-83803761D01*
X131034761Y-83613285D01*
X131058571Y-83565666D01*
X131106190Y-83541857D01*
X131201428Y-83541857D01*
X131249047Y-83565666D01*
X131272857Y-83613285D01*
X131272857Y-83660904D01*
X131034761Y-83708523D01*
X131487142Y-83541857D02*
X131487142Y-83875190D01*
X131487142Y-83589476D02*
X131510952Y-83565666D01*
X131558571Y-83541857D01*
X131630000Y-83541857D01*
X131677619Y-83565666D01*
X131701428Y-83613285D01*
X131701428Y-83875190D01*
X131915714Y-83851380D02*
X131963333Y-83875190D01*
X132058571Y-83875190D01*
X132106190Y-83851380D01*
X132130000Y-83803761D01*
X132130000Y-83779952D01*
X132106190Y-83732333D01*
X132058571Y-83708523D01*
X131987142Y-83708523D01*
X131939523Y-83684714D01*
X131915714Y-83637095D01*
X131915714Y-83613285D01*
X131939523Y-83565666D01*
X131987142Y-83541857D01*
X132058571Y-83541857D01*
X132106190Y-83565666D01*
X132534761Y-83851380D02*
X132487142Y-83875190D01*
X132391904Y-83875190D01*
X132344285Y-83851380D01*
X132320476Y-83803761D01*
X132320476Y-83613285D01*
X132344285Y-83565666D01*
X132391904Y-83541857D01*
X132487142Y-83541857D01*
X132534761Y-83565666D01*
X132558571Y-83613285D01*
X132558571Y-83660904D01*
X132320476Y-83708523D01*
X126415714Y-84391857D02*
X126534761Y-84725190D01*
X126653809Y-84391857D01*
X127106190Y-84725190D02*
X126820476Y-84725190D01*
X126963333Y-84725190D02*
X126963333Y-84225190D01*
X126915714Y-84296619D01*
X126868095Y-84344238D01*
X126820476Y-84368047D01*
X127320476Y-84677571D02*
X127344285Y-84701380D01*
X127320476Y-84725190D01*
X127296666Y-84701380D01*
X127320476Y-84677571D01*
X127320476Y-84725190D01*
X127653809Y-84225190D02*
X127701428Y-84225190D01*
X127749047Y-84249000D01*
X127772857Y-84272809D01*
X127796666Y-84320428D01*
X127820476Y-84415666D01*
X127820476Y-84534714D01*
X127796666Y-84629952D01*
X127772857Y-84677571D01*
X127749047Y-84701380D01*
X127701428Y-84725190D01*
X127653809Y-84725190D01*
X127606190Y-84701380D01*
X127582380Y-84677571D01*
X127558571Y-84629952D01*
X127534761Y-84534714D01*
X127534761Y-84415666D01*
X127558571Y-84320428D01*
X127582380Y-84272809D01*
X127606190Y-84249000D01*
X127653809Y-84225190D01*
D11*
X105460800Y-82753200D02*
X105384600Y-82931000D01*
X104749600Y-82804000D02*
X105003600Y-82854800D01*
X104927400Y-82448400D02*
X105130600Y-82499200D01*
X105181400Y-84353400D02*
X104749600Y-84429600D01*
X105308400Y-83820000D02*
X105181400Y-84353400D01*
X105638600Y-83921600D02*
X105308400Y-83820000D01*
X105994200Y-83693000D02*
X105638600Y-83921600D01*
X107010200Y-82753200D02*
X106756200Y-82499200D01*
X106375200Y-82956400D02*
X107010200Y-82753200D01*
X106603800Y-83362800D02*
X106375200Y-82956400D01*
X106019600Y-83693000D02*
X106603800Y-83362800D01*
X104394000Y-82524600D02*
X104698800Y-82194400D01*
X105511600Y-82143600D02*
X104698800Y-82194400D01*
X105613200Y-82499200D02*
X105511600Y-82143600D01*
X105994200Y-82778600D02*
X105613200Y-82499200D01*
X105664000Y-83286600D02*
X105994200Y-82778600D01*
X105562400Y-83312000D02*
X105664000Y-83286600D01*
X105181400Y-83312000D02*
X105562400Y-83312000D01*
X104902000Y-83642200D02*
X105181400Y-83312000D01*
X104851200Y-83286600D02*
X104902000Y-83642200D01*
X104368600Y-83108800D02*
X104851200Y-83286600D01*
X104394000Y-82524600D02*
X104368600Y-83108800D01*
X107797600Y-84353400D02*
X108026200Y-85267800D01*
X106959400Y-84582000D02*
X107797600Y-84353400D01*
X106476800Y-84124800D02*
X106959400Y-84582000D01*
X109397800Y-83159600D02*
X109753400Y-83743800D01*
X108483400Y-83591400D02*
X109397800Y-83159600D01*
X107746800Y-83210400D02*
X108483400Y-83591400D01*
X106476800Y-84124800D02*
X107746800Y-83210400D01*
X105664000Y-83312000D02*
X106476800Y-84124800D01*
D10*
X118392676Y-72617580D02*
X118964104Y-72617580D01*
X118678390Y-73617580D02*
X118678390Y-72617580D01*
X119297438Y-72617580D02*
X119297438Y-73427104D01*
X119345057Y-73522342D01*
X119392676Y-73569961D01*
X119487914Y-73617580D01*
X119678390Y-73617580D01*
X119773628Y-73569961D01*
X119821247Y-73522342D01*
X119868866Y-73427104D01*
X119868866Y-72617580D01*
X118416485Y-75267580D02*
X118416485Y-74267580D01*
X118654580Y-74267580D01*
X118797438Y-74315200D01*
X118892676Y-74410438D01*
X118940295Y-74505676D01*
X118987914Y-74696152D01*
X118987914Y-74839009D01*
X118940295Y-75029485D01*
X118892676Y-75124723D01*
X118797438Y-75219961D01*
X118654580Y-75267580D01*
X118416485Y-75267580D01*
X119606961Y-74267580D02*
X119797438Y-74267580D01*
X119892676Y-74315200D01*
X119987914Y-74410438D01*
X120035533Y-74600914D01*
X120035533Y-74934247D01*
X119987914Y-75124723D01*
X119892676Y-75219961D01*
X119797438Y-75267580D01*
X119606961Y-75267580D01*
X119511723Y-75219961D01*
X119416485Y-75124723D01*
X119368866Y-74934247D01*
X119368866Y-74600914D01*
X119416485Y-74410438D01*
X119511723Y-74315200D01*
X119606961Y-74267580D01*
X120424676Y-70966580D02*
X120996104Y-70966580D01*
X120710390Y-71966580D02*
X120710390Y-70966580D01*
X121329438Y-70966580D02*
X121329438Y-71776104D01*
X121377057Y-71871342D01*
X121424676Y-71918961D01*
X121519914Y-71966580D01*
X121710390Y-71966580D01*
X121805628Y-71918961D01*
X121853247Y-71871342D01*
X121900866Y-71776104D01*
X121900866Y-70966580D01*
X120448485Y-73616580D02*
X120448485Y-72616580D01*
X120686580Y-72616580D01*
X120829438Y-72664200D01*
X120924676Y-72759438D01*
X120972295Y-72854676D01*
X121019914Y-73045152D01*
X121019914Y-73188009D01*
X120972295Y-73378485D01*
X120924676Y-73473723D01*
X120829438Y-73568961D01*
X120686580Y-73616580D01*
X120448485Y-73616580D01*
X121638961Y-72616580D02*
X121829438Y-72616580D01*
X121924676Y-72664200D01*
X122019914Y-72759438D01*
X122067533Y-72949914D01*
X122067533Y-73283247D01*
X122019914Y-73473723D01*
X121924676Y-73568961D01*
X121829438Y-73616580D01*
X121638961Y-73616580D01*
X121543723Y-73568961D01*
X121448485Y-73473723D01*
X121400866Y-73283247D01*
X121400866Y-72949914D01*
X121448485Y-72759438D01*
X121543723Y-72664200D01*
X121638961Y-72616580D01*
X123317142Y-98909214D02*
X123888571Y-99575880D01*
X124460000Y-99099690D01*
X125031428Y-99575880D01*
X125602857Y-98909214D01*
D11*
X126301500Y-95123000D02*
X127444500Y-95123000D01*
X126301500Y-96901000D02*
X127317500Y-96901000D01*
X127444500Y-95123000D02*
X127444500Y-96901000D01*
X127444500Y-96901000D02*
X127317500Y-96901000D01*
X126301500Y-95123000D02*
X126301500Y-96901000D01*
X122491500Y-96901000D02*
X122364500Y-96901000D01*
X122491500Y-95123000D02*
X122491500Y-96901000D01*
X121348500Y-95123000D02*
X122491500Y-95123000D01*
X121348500Y-96901000D02*
X122364500Y-96901000D01*
X121348500Y-95123000D02*
X121348500Y-96901000D01*
X133250000Y-90436700D02*
X135990000Y-90436700D01*
X135990000Y-90436700D02*
X135990000Y-83896700D01*
X135990000Y-83896700D02*
X133250000Y-83896700D01*
X133250000Y-83896700D02*
X133250000Y-90436700D01*
X134620000Y-91206700D02*
X134620000Y-90436700D01*
X134620000Y-83126700D02*
X134620000Y-83896700D01*
D13*
G36*
X127233910Y-77658748D02*
G01*
X127312454Y-77659178D01*
X127369298Y-77660342D01*
X127408105Y-77662607D01*
X127432538Y-77666340D01*
X127446262Y-77671906D01*
X127452940Y-77679673D01*
X127456236Y-77690005D01*
X127456556Y-77691343D01*
X127461562Y-77715479D01*
X127470829Y-77763101D01*
X127483392Y-77829141D01*
X127498287Y-77908528D01*
X127514551Y-77996196D01*
X127515119Y-77999275D01*
X127531410Y-78085189D01*
X127546652Y-78161096D01*
X127559861Y-78222445D01*
X127570054Y-78264682D01*
X127576248Y-78283255D01*
X127576543Y-78283584D01*
X127594788Y-78292653D01*
X127632405Y-78307767D01*
X127681271Y-78325662D01*
X127681543Y-78325758D01*
X127743093Y-78348893D01*
X127815657Y-78378365D01*
X127884057Y-78407997D01*
X127887294Y-78409462D01*
X127998702Y-78460026D01*
X128245399Y-78291560D01*
X128321077Y-78240203D01*
X128389631Y-78194289D01*
X128447088Y-78156430D01*
X128489476Y-78129237D01*
X128512825Y-78115321D01*
X128515042Y-78114289D01*
X128532010Y-78118884D01*
X128563701Y-78141055D01*
X128611352Y-78181847D01*
X128676198Y-78242305D01*
X128742397Y-78306627D01*
X128806214Y-78370012D01*
X128863329Y-78427851D01*
X128910305Y-78476575D01*
X128943703Y-78512610D01*
X128960085Y-78532384D01*
X128960694Y-78533402D01*
X128962505Y-78546972D01*
X128955683Y-78569133D01*
X128938540Y-78602878D01*
X128909393Y-78651200D01*
X128866555Y-78717092D01*
X128809448Y-78801917D01*
X128758766Y-78876577D01*
X128713461Y-78943540D01*
X128676150Y-78998916D01*
X128649452Y-79038820D01*
X128635985Y-79059362D01*
X128635137Y-79060756D01*
X128636781Y-79080438D01*
X128649245Y-79118693D01*
X128670048Y-79168289D01*
X128677462Y-79184128D01*
X128709814Y-79254690D01*
X128744328Y-79334753D01*
X128772365Y-79404029D01*
X128792568Y-79455445D01*
X128808615Y-79494519D01*
X128817888Y-79514941D01*
X128819041Y-79516514D01*
X128836096Y-79519121D01*
X128876298Y-79526263D01*
X128934302Y-79536923D01*
X129004763Y-79550085D01*
X129082335Y-79564733D01*
X129161672Y-79579849D01*
X129237431Y-79594418D01*
X129304264Y-79607422D01*
X129356828Y-79617845D01*
X129389776Y-79624670D01*
X129397857Y-79626599D01*
X129406205Y-79631362D01*
X129412506Y-79642118D01*
X129417045Y-79662498D01*
X129420104Y-79696134D01*
X129421967Y-79746655D01*
X129422918Y-79817692D01*
X129423240Y-79912876D01*
X129423257Y-79951892D01*
X129423257Y-80269199D01*
X129347057Y-80284239D01*
X129304663Y-80292395D01*
X129241400Y-80304299D01*
X129164962Y-80318516D01*
X129083043Y-80333610D01*
X129060400Y-80337755D01*
X128984806Y-80352453D01*
X128918953Y-80366905D01*
X128868366Y-80379775D01*
X128838574Y-80389722D01*
X128833612Y-80392687D01*
X128821426Y-80413683D01*
X128803953Y-80454367D01*
X128784577Y-80506722D01*
X128780734Y-80518000D01*
X128755339Y-80587923D01*
X128723817Y-80666818D01*
X128692969Y-80737666D01*
X128692817Y-80737995D01*
X128641447Y-80849133D01*
X128810399Y-81097653D01*
X128979352Y-81346172D01*
X128762429Y-81563458D01*
X128696819Y-81628126D01*
X128636979Y-81685133D01*
X128586267Y-81731433D01*
X128548046Y-81763984D01*
X128525675Y-81779743D01*
X128522466Y-81780743D01*
X128503626Y-81772869D01*
X128465180Y-81750978D01*
X128411330Y-81717667D01*
X128346276Y-81675531D01*
X128275940Y-81628343D01*
X128204555Y-81580210D01*
X128140908Y-81538328D01*
X128089041Y-81505271D01*
X128052995Y-81483618D01*
X128036867Y-81475943D01*
X128017189Y-81482437D01*
X127979875Y-81499550D01*
X127932621Y-81523726D01*
X127927612Y-81526413D01*
X127863977Y-81558327D01*
X127820341Y-81573979D01*
X127793202Y-81574145D01*
X127779057Y-81559604D01*
X127778975Y-81559400D01*
X127771905Y-81542179D01*
X127755042Y-81501299D01*
X127729695Y-81439925D01*
X127697171Y-81361219D01*
X127658778Y-81268347D01*
X127615822Y-81164472D01*
X127574222Y-81063902D01*
X127528504Y-80952916D01*
X127486526Y-80850103D01*
X127449548Y-80758615D01*
X127418827Y-80681601D01*
X127395622Y-80622215D01*
X127381190Y-80583609D01*
X127376743Y-80569200D01*
X127387896Y-80552672D01*
X127417069Y-80526330D01*
X127455971Y-80497287D01*
X127566757Y-80405439D01*
X127653351Y-80300159D01*
X127714716Y-80183666D01*
X127749815Y-80058176D01*
X127757608Y-79925907D01*
X127751943Y-79864857D01*
X127721078Y-79738195D01*
X127667920Y-79626341D01*
X127595767Y-79530401D01*
X127507917Y-79451476D01*
X127407665Y-79390670D01*
X127298310Y-79349087D01*
X127183147Y-79327828D01*
X127065475Y-79327999D01*
X126948590Y-79350701D01*
X126835789Y-79397038D01*
X126730369Y-79468113D01*
X126686368Y-79508311D01*
X126601979Y-79611529D01*
X126543222Y-79724325D01*
X126509704Y-79843410D01*
X126501035Y-79965495D01*
X126516823Y-80087293D01*
X126556678Y-80205516D01*
X126620207Y-80316875D01*
X126707021Y-80418084D01*
X126804029Y-80497287D01*
X126844437Y-80527562D01*
X126872982Y-80553619D01*
X126883257Y-80569225D01*
X126877877Y-80586243D01*
X126862575Y-80626900D01*
X126838612Y-80688042D01*
X126807244Y-80766519D01*
X126769732Y-80859180D01*
X126727333Y-80962872D01*
X126685663Y-81063926D01*
X126639690Y-81175007D01*
X126597107Y-81277941D01*
X126559221Y-81369565D01*
X126527340Y-81446716D01*
X126502771Y-81506231D01*
X126486820Y-81544944D01*
X126480910Y-81559400D01*
X126466948Y-81574085D01*
X126439940Y-81574042D01*
X126396413Y-81558499D01*
X126332890Y-81526684D01*
X126332388Y-81526413D01*
X126284560Y-81501723D01*
X126245897Y-81483738D01*
X126224095Y-81476014D01*
X126223133Y-81475943D01*
X126206721Y-81483778D01*
X126170487Y-81505565D01*
X126118474Y-81538728D01*
X126054725Y-81580691D01*
X125984060Y-81628343D01*
X125912116Y-81676591D01*
X125847274Y-81718551D01*
X125793735Y-81751627D01*
X125755697Y-81773221D01*
X125737533Y-81780743D01*
X125720808Y-81770857D01*
X125687180Y-81743226D01*
X125640010Y-81700895D01*
X125582658Y-81646905D01*
X125518484Y-81584299D01*
X125497497Y-81563383D01*
X125280499Y-81346023D01*
X125445668Y-81103620D01*
X125495864Y-81029181D01*
X125539919Y-80962372D01*
X125575362Y-80907065D01*
X125599719Y-80867129D01*
X125610522Y-80846436D01*
X125610838Y-80844963D01*
X125605143Y-80825458D01*
X125589826Y-80786222D01*
X125567537Y-80733830D01*
X125551893Y-80698755D01*
X125522641Y-80631601D01*
X125495094Y-80563758D01*
X125473737Y-80506434D01*
X125467935Y-80488972D01*
X125451452Y-80442338D01*
X125435340Y-80406305D01*
X125426490Y-80392687D01*
X125406960Y-80384352D01*
X125364334Y-80372537D01*
X125304145Y-80358581D01*
X125231922Y-80343822D01*
X125199600Y-80337755D01*
X125117522Y-80322673D01*
X125038795Y-80308069D01*
X124971109Y-80295380D01*
X124922160Y-80286042D01*
X124912943Y-80284239D01*
X124836743Y-80269199D01*
X124836743Y-79951892D01*
X124836914Y-79847554D01*
X124837616Y-79768613D01*
X124839134Y-79711438D01*
X124841749Y-79672399D01*
X124845746Y-79647865D01*
X124851409Y-79634205D01*
X124859020Y-79627789D01*
X124862143Y-79626599D01*
X124880978Y-79622380D01*
X124922588Y-79613962D01*
X124981630Y-79602361D01*
X125052757Y-79588595D01*
X125130625Y-79573680D01*
X125209887Y-79558632D01*
X125285198Y-79544469D01*
X125351213Y-79532206D01*
X125402587Y-79522861D01*
X125433975Y-79517450D01*
X125440959Y-79516514D01*
X125447285Y-79503996D01*
X125461290Y-79470646D01*
X125480355Y-79422777D01*
X125487634Y-79404029D01*
X125516996Y-79331595D01*
X125551571Y-79251570D01*
X125582537Y-79184128D01*
X125605323Y-79132559D01*
X125620482Y-79090185D01*
X125625542Y-79064234D01*
X125624736Y-79060756D01*
X125614041Y-79044336D01*
X125589620Y-79007817D01*
X125554095Y-78955087D01*
X125510087Y-78890035D01*
X125460217Y-78816551D01*
X125450356Y-78802045D01*
X125392492Y-78716104D01*
X125349956Y-78650661D01*
X125321054Y-78602704D01*
X125304090Y-78569220D01*
X125297367Y-78547195D01*
X125299190Y-78533617D01*
X125299236Y-78533531D01*
X125313586Y-78515697D01*
X125345323Y-78481217D01*
X125391010Y-78433668D01*
X125447204Y-78376622D01*
X125510468Y-78313655D01*
X125517602Y-78306627D01*
X125597330Y-78229420D01*
X125658857Y-78172730D01*
X125703421Y-78135510D01*
X125732257Y-78116715D01*
X125744958Y-78114289D01*
X125763494Y-78124871D01*
X125801961Y-78149316D01*
X125856386Y-78185012D01*
X125922798Y-78229347D01*
X125997225Y-78279711D01*
X126014601Y-78291560D01*
X126261297Y-78460026D01*
X126372706Y-78409462D01*
X126440457Y-78379995D01*
X126513183Y-78350359D01*
X126575703Y-78326730D01*
X126578457Y-78325758D01*
X126627360Y-78307857D01*
X126665057Y-78292720D01*
X126683425Y-78283610D01*
X126683456Y-78283584D01*
X126689285Y-78267117D01*
X126699192Y-78226619D01*
X126712195Y-78166642D01*
X126727309Y-78091740D01*
X126743552Y-78006464D01*
X126744881Y-77999275D01*
X126761175Y-77911414D01*
X126776133Y-77831660D01*
X126788791Y-77765081D01*
X126798186Y-77716747D01*
X126803354Y-77691725D01*
X126803444Y-77691343D01*
X126806589Y-77680699D01*
X126812704Y-77672662D01*
X126825453Y-77666867D01*
X126848500Y-77662947D01*
X126885509Y-77660535D01*
X126940144Y-77659265D01*
X127016067Y-77658771D01*
X127116944Y-77658686D01*
X127130000Y-77658686D01*
X127233910Y-77658748D01*
G37*
X127233910Y-77658748D02*
X127312454Y-77659178D01*
X127369298Y-77660342D01*
X127408105Y-77662607D01*
X127432538Y-77666340D01*
X127446262Y-77671906D01*
X127452940Y-77679673D01*
X127456236Y-77690005D01*
X127456556Y-77691343D01*
X127461562Y-77715479D01*
X127470829Y-77763101D01*
X127483392Y-77829141D01*
X127498287Y-77908528D01*
X127514551Y-77996196D01*
X127515119Y-77999275D01*
X127531410Y-78085189D01*
X127546652Y-78161096D01*
X127559861Y-78222445D01*
X127570054Y-78264682D01*
X127576248Y-78283255D01*
X127576543Y-78283584D01*
X127594788Y-78292653D01*
X127632405Y-78307767D01*
X127681271Y-78325662D01*
X127681543Y-78325758D01*
X127743093Y-78348893D01*
X127815657Y-78378365D01*
X127884057Y-78407997D01*
X127887294Y-78409462D01*
X127998702Y-78460026D01*
X128245399Y-78291560D01*
X128321077Y-78240203D01*
X128389631Y-78194289D01*
X128447088Y-78156430D01*
X128489476Y-78129237D01*
X128512825Y-78115321D01*
X128515042Y-78114289D01*
X128532010Y-78118884D01*
X128563701Y-78141055D01*
X128611352Y-78181847D01*
X128676198Y-78242305D01*
X128742397Y-78306627D01*
X128806214Y-78370012D01*
X128863329Y-78427851D01*
X128910305Y-78476575D01*
X128943703Y-78512610D01*
X128960085Y-78532384D01*
X128960694Y-78533402D01*
X128962505Y-78546972D01*
X128955683Y-78569133D01*
X128938540Y-78602878D01*
X128909393Y-78651200D01*
X128866555Y-78717092D01*
X128809448Y-78801917D01*
X128758766Y-78876577D01*
X128713461Y-78943540D01*
X128676150Y-78998916D01*
X128649452Y-79038820D01*
X128635985Y-79059362D01*
X128635137Y-79060756D01*
X128636781Y-79080438D01*
X128649245Y-79118693D01*
X128670048Y-79168289D01*
X128677462Y-79184128D01*
X128709814Y-79254690D01*
X128744328Y-79334753D01*
X128772365Y-79404029D01*
X128792568Y-79455445D01*
X128808615Y-79494519D01*
X128817888Y-79514941D01*
X128819041Y-79516514D01*
X128836096Y-79519121D01*
X128876298Y-79526263D01*
X128934302Y-79536923D01*
X129004763Y-79550085D01*
X129082335Y-79564733D01*
X129161672Y-79579849D01*
X129237431Y-79594418D01*
X129304264Y-79607422D01*
X129356828Y-79617845D01*
X129389776Y-79624670D01*
X129397857Y-79626599D01*
X129406205Y-79631362D01*
X129412506Y-79642118D01*
X129417045Y-79662498D01*
X129420104Y-79696134D01*
X129421967Y-79746655D01*
X129422918Y-79817692D01*
X129423240Y-79912876D01*
X129423257Y-79951892D01*
X129423257Y-80269199D01*
X129347057Y-80284239D01*
X129304663Y-80292395D01*
X129241400Y-80304299D01*
X129164962Y-80318516D01*
X129083043Y-80333610D01*
X129060400Y-80337755D01*
X128984806Y-80352453D01*
X128918953Y-80366905D01*
X128868366Y-80379775D01*
X128838574Y-80389722D01*
X128833612Y-80392687D01*
X128821426Y-80413683D01*
X128803953Y-80454367D01*
X128784577Y-80506722D01*
X128780734Y-80518000D01*
X128755339Y-80587923D01*
X128723817Y-80666818D01*
X128692969Y-80737666D01*
X128692817Y-80737995D01*
X128641447Y-80849133D01*
X128810399Y-81097653D01*
X128979352Y-81346172D01*
X128762429Y-81563458D01*
X128696819Y-81628126D01*
X128636979Y-81685133D01*
X128586267Y-81731433D01*
X128548046Y-81763984D01*
X128525675Y-81779743D01*
X128522466Y-81780743D01*
X128503626Y-81772869D01*
X128465180Y-81750978D01*
X128411330Y-81717667D01*
X128346276Y-81675531D01*
X128275940Y-81628343D01*
X128204555Y-81580210D01*
X128140908Y-81538328D01*
X128089041Y-81505271D01*
X128052995Y-81483618D01*
X128036867Y-81475943D01*
X128017189Y-81482437D01*
X127979875Y-81499550D01*
X127932621Y-81523726D01*
X127927612Y-81526413D01*
X127863977Y-81558327D01*
X127820341Y-81573979D01*
X127793202Y-81574145D01*
X127779057Y-81559604D01*
X127778975Y-81559400D01*
X127771905Y-81542179D01*
X127755042Y-81501299D01*
X127729695Y-81439925D01*
X127697171Y-81361219D01*
X127658778Y-81268347D01*
X127615822Y-81164472D01*
X127574222Y-81063902D01*
X127528504Y-80952916D01*
X127486526Y-80850103D01*
X127449548Y-80758615D01*
X127418827Y-80681601D01*
X127395622Y-80622215D01*
X127381190Y-80583609D01*
X127376743Y-80569200D01*
X127387896Y-80552672D01*
X127417069Y-80526330D01*
X127455971Y-80497287D01*
X127566757Y-80405439D01*
X127653351Y-80300159D01*
X127714716Y-80183666D01*
X127749815Y-80058176D01*
X127757608Y-79925907D01*
X127751943Y-79864857D01*
X127721078Y-79738195D01*
X127667920Y-79626341D01*
X127595767Y-79530401D01*
X127507917Y-79451476D01*
X127407665Y-79390670D01*
X127298310Y-79349087D01*
X127183147Y-79327828D01*
X127065475Y-79327999D01*
X126948590Y-79350701D01*
X126835789Y-79397038D01*
X126730369Y-79468113D01*
X126686368Y-79508311D01*
X126601979Y-79611529D01*
X126543222Y-79724325D01*
X126509704Y-79843410D01*
X126501035Y-79965495D01*
X126516823Y-80087293D01*
X126556678Y-80205516D01*
X126620207Y-80316875D01*
X126707021Y-80418084D01*
X126804029Y-80497287D01*
X126844437Y-80527562D01*
X126872982Y-80553619D01*
X126883257Y-80569225D01*
X126877877Y-80586243D01*
X126862575Y-80626900D01*
X126838612Y-80688042D01*
X126807244Y-80766519D01*
X126769732Y-80859180D01*
X126727333Y-80962872D01*
X126685663Y-81063926D01*
X126639690Y-81175007D01*
X126597107Y-81277941D01*
X126559221Y-81369565D01*
X126527340Y-81446716D01*
X126502771Y-81506231D01*
X126486820Y-81544944D01*
X126480910Y-81559400D01*
X126466948Y-81574085D01*
X126439940Y-81574042D01*
X126396413Y-81558499D01*
X126332890Y-81526684D01*
X126332388Y-81526413D01*
X126284560Y-81501723D01*
X126245897Y-81483738D01*
X126224095Y-81476014D01*
X126223133Y-81475943D01*
X126206721Y-81483778D01*
X126170487Y-81505565D01*
X126118474Y-81538728D01*
X126054725Y-81580691D01*
X125984060Y-81628343D01*
X125912116Y-81676591D01*
X125847274Y-81718551D01*
X125793735Y-81751627D01*
X125755697Y-81773221D01*
X125737533Y-81780743D01*
X125720808Y-81770857D01*
X125687180Y-81743226D01*
X125640010Y-81700895D01*
X125582658Y-81646905D01*
X125518484Y-81584299D01*
X125497497Y-81563383D01*
X125280499Y-81346023D01*
X125445668Y-81103620D01*
X125495864Y-81029181D01*
X125539919Y-80962372D01*
X125575362Y-80907065D01*
X125599719Y-80867129D01*
X125610522Y-80846436D01*
X125610838Y-80844963D01*
X125605143Y-80825458D01*
X125589826Y-80786222D01*
X125567537Y-80733830D01*
X125551893Y-80698755D01*
X125522641Y-80631601D01*
X125495094Y-80563758D01*
X125473737Y-80506434D01*
X125467935Y-80488972D01*
X125451452Y-80442338D01*
X125435340Y-80406305D01*
X125426490Y-80392687D01*
X125406960Y-80384352D01*
X125364334Y-80372537D01*
X125304145Y-80358581D01*
X125231922Y-80343822D01*
X125199600Y-80337755D01*
X125117522Y-80322673D01*
X125038795Y-80308069D01*
X124971109Y-80295380D01*
X124922160Y-80286042D01*
X124912943Y-80284239D01*
X124836743Y-80269199D01*
X124836743Y-79951892D01*
X124836914Y-79847554D01*
X124837616Y-79768613D01*
X124839134Y-79711438D01*
X124841749Y-79672399D01*
X124845746Y-79647865D01*
X124851409Y-79634205D01*
X124859020Y-79627789D01*
X124862143Y-79626599D01*
X124880978Y-79622380D01*
X124922588Y-79613962D01*
X124981630Y-79602361D01*
X125052757Y-79588595D01*
X125130625Y-79573680D01*
X125209887Y-79558632D01*
X125285198Y-79544469D01*
X125351213Y-79532206D01*
X125402587Y-79522861D01*
X125433975Y-79517450D01*
X125440959Y-79516514D01*
X125447285Y-79503996D01*
X125461290Y-79470646D01*
X125480355Y-79422777D01*
X125487634Y-79404029D01*
X125516996Y-79331595D01*
X125551571Y-79251570D01*
X125582537Y-79184128D01*
X125605323Y-79132559D01*
X125620482Y-79090185D01*
X125625542Y-79064234D01*
X125624736Y-79060756D01*
X125614041Y-79044336D01*
X125589620Y-79007817D01*
X125554095Y-78955087D01*
X125510087Y-78890035D01*
X125460217Y-78816551D01*
X125450356Y-78802045D01*
X125392492Y-78716104D01*
X125349956Y-78650661D01*
X125321054Y-78602704D01*
X125304090Y-78569220D01*
X125297367Y-78547195D01*
X125299190Y-78533617D01*
X125299236Y-78533531D01*
X125313586Y-78515697D01*
X125345323Y-78481217D01*
X125391010Y-78433668D01*
X125447204Y-78376622D01*
X125510468Y-78313655D01*
X125517602Y-78306627D01*
X125597330Y-78229420D01*
X125658857Y-78172730D01*
X125703421Y-78135510D01*
X125732257Y-78116715D01*
X125744958Y-78114289D01*
X125763494Y-78124871D01*
X125801961Y-78149316D01*
X125856386Y-78185012D01*
X125922798Y-78229347D01*
X125997225Y-78279711D01*
X126014601Y-78291560D01*
X126261297Y-78460026D01*
X126372706Y-78409462D01*
X126440457Y-78379995D01*
X126513183Y-78350359D01*
X126575703Y-78326730D01*
X126578457Y-78325758D01*
X126627360Y-78307857D01*
X126665057Y-78292720D01*
X126683425Y-78283610D01*
X126683456Y-78283584D01*
X126689285Y-78267117D01*
X126699192Y-78226619D01*
X126712195Y-78166642D01*
X126727309Y-78091740D01*
X126743552Y-78006464D01*
X126744881Y-77999275D01*
X126761175Y-77911414D01*
X126776133Y-77831660D01*
X126788791Y-77765081D01*
X126798186Y-77716747D01*
X126803354Y-77691725D01*
X126803444Y-77691343D01*
X126806589Y-77680699D01*
X126812704Y-77672662D01*
X126825453Y-77666867D01*
X126848500Y-77662947D01*
X126885509Y-77660535D01*
X126940144Y-77659265D01*
X127016067Y-77658771D01*
X127116944Y-77658686D01*
X127130000Y-77658686D01*
X127233910Y-77658748D01*
G36*
X130283595Y-82383366D02*
G01*
X130341021Y-82420897D01*
X130368719Y-82454496D01*
X130390662Y-82515464D01*
X130392405Y-82563708D01*
X130388457Y-82628216D01*
X130239686Y-82693334D01*
X130167349Y-82726602D01*
X130120084Y-82753364D01*
X130095507Y-82776544D01*
X130091237Y-82799067D01*
X130104889Y-82823855D01*
X130119943Y-82840286D01*
X130163746Y-82866635D01*
X130211389Y-82868481D01*
X130255145Y-82847946D01*
X130287289Y-82807152D01*
X130293038Y-82792747D01*
X130320576Y-82747756D01*
X130352258Y-82728582D01*
X130395714Y-82712179D01*
X130395714Y-82774366D01*
X130391872Y-82816683D01*
X130376823Y-82852369D01*
X130345280Y-82893343D01*
X130340592Y-82898667D01*
X130305506Y-82935120D01*
X130275347Y-82954683D01*
X130237615Y-82963683D01*
X130206335Y-82966630D01*
X130150385Y-82967365D01*
X130110555Y-82958060D01*
X130085708Y-82944246D01*
X130046656Y-82913867D01*
X130019625Y-82881013D01*
X130002517Y-82839694D01*
X129993238Y-82783921D01*
X129989693Y-82707705D01*
X129989410Y-82669022D01*
X129990372Y-82622647D01*
X130078007Y-82622647D01*
X130079023Y-82647526D01*
X130081556Y-82651600D01*
X130098274Y-82646065D01*
X130134249Y-82631417D01*
X130182331Y-82610590D01*
X130192386Y-82606114D01*
X130253152Y-82575214D01*
X130286632Y-82548057D01*
X130293990Y-82522620D01*
X130276391Y-82496881D01*
X130261856Y-82485509D01*
X130209410Y-82462764D01*
X130160322Y-82466522D01*
X130119227Y-82494284D01*
X130090758Y-82543552D01*
X130081631Y-82582657D01*
X130078007Y-82622647D01*
X129990372Y-82622647D01*
X129991285Y-82578649D01*
X129998196Y-82511784D01*
X130011884Y-82463095D01*
X130034096Y-82427249D01*
X130066574Y-82398913D01*
X130080733Y-82389755D01*
X130145053Y-82365907D01*
X130215473Y-82364406D01*
X130283595Y-82383366D01*
G37*
X130283595Y-82383366D02*
X130341021Y-82420897D01*
X130368719Y-82454496D01*
X130390662Y-82515464D01*
X130392405Y-82563708D01*
X130388457Y-82628216D01*
X130239686Y-82693334D01*
X130167349Y-82726602D01*
X130120084Y-82753364D01*
X130095507Y-82776544D01*
X130091237Y-82799067D01*
X130104889Y-82823855D01*
X130119943Y-82840286D01*
X130163746Y-82866635D01*
X130211389Y-82868481D01*
X130255145Y-82847946D01*
X130287289Y-82807152D01*
X130293038Y-82792747D01*
X130320576Y-82747756D01*
X130352258Y-82728582D01*
X130395714Y-82712179D01*
X130395714Y-82774366D01*
X130391872Y-82816683D01*
X130376823Y-82852369D01*
X130345280Y-82893343D01*
X130340592Y-82898667D01*
X130305506Y-82935120D01*
X130275347Y-82954683D01*
X130237615Y-82963683D01*
X130206335Y-82966630D01*
X130150385Y-82967365D01*
X130110555Y-82958060D01*
X130085708Y-82944246D01*
X130046656Y-82913867D01*
X130019625Y-82881013D01*
X130002517Y-82839694D01*
X129993238Y-82783921D01*
X129989693Y-82707705D01*
X129989410Y-82669022D01*
X129990372Y-82622647D01*
X130078007Y-82622647D01*
X130079023Y-82647526D01*
X130081556Y-82651600D01*
X130098274Y-82646065D01*
X130134249Y-82631417D01*
X130182331Y-82610590D01*
X130192386Y-82606114D01*
X130253152Y-82575214D01*
X130286632Y-82548057D01*
X130293990Y-82522620D01*
X130276391Y-82496881D01*
X130261856Y-82485509D01*
X130209410Y-82462764D01*
X130160322Y-82466522D01*
X130119227Y-82494284D01*
X130090758Y-82543552D01*
X130081631Y-82582657D01*
X130078007Y-82622647D01*
X129990372Y-82622647D01*
X129991285Y-82578649D01*
X129998196Y-82511784D01*
X130011884Y-82463095D01*
X130034096Y-82427249D01*
X130066574Y-82398913D01*
X130080733Y-82389755D01*
X130145053Y-82365907D01*
X130215473Y-82364406D01*
X130283595Y-82383366D01*
G36*
X129782600Y-82375152D02*
G01*
X129799948Y-82382734D01*
X129841356Y-82415528D01*
X129876765Y-82462947D01*
X129898664Y-82513551D01*
X129902229Y-82538498D01*
X129890279Y-82573327D01*
X129864067Y-82591757D01*
X129835964Y-82602916D01*
X129823095Y-82604972D01*
X129816829Y-82590049D01*
X129804456Y-82557575D01*
X129799028Y-82542902D01*
X129768590Y-82492144D01*
X129724520Y-82466827D01*
X129668010Y-82467606D01*
X129663825Y-82468603D01*
X129633655Y-82482907D01*
X129611476Y-82510793D01*
X129596327Y-82555687D01*
X129587250Y-82621015D01*
X129583286Y-82710204D01*
X129582914Y-82757661D01*
X129582730Y-82832471D01*
X129581522Y-82883469D01*
X129578309Y-82915871D01*
X129572109Y-82934895D01*
X129561940Y-82945756D01*
X129546819Y-82953672D01*
X129545946Y-82954070D01*
X129516828Y-82966381D01*
X129502403Y-82970914D01*
X129500186Y-82957209D01*
X129498289Y-82919325D01*
X129496847Y-82862115D01*
X129495998Y-82790427D01*
X129495829Y-82737965D01*
X129496692Y-82636447D01*
X129500070Y-82559432D01*
X129507142Y-82502423D01*
X129519088Y-82460926D01*
X129537090Y-82430443D01*
X129562327Y-82406480D01*
X129587247Y-82389755D01*
X129647171Y-82367497D01*
X129716911Y-82362476D01*
X129782600Y-82375152D01*
G37*
X129782600Y-82375152D02*
X129799948Y-82382734D01*
X129841356Y-82415528D01*
X129876765Y-82462947D01*
X129898664Y-82513551D01*
X129902229Y-82538498D01*
X129890279Y-82573327D01*
X129864067Y-82591757D01*
X129835964Y-82602916D01*
X129823095Y-82604972D01*
X129816829Y-82590049D01*
X129804456Y-82557575D01*
X129799028Y-82542902D01*
X129768590Y-82492144D01*
X129724520Y-82466827D01*
X129668010Y-82467606D01*
X129663825Y-82468603D01*
X129633655Y-82482907D01*
X129611476Y-82510793D01*
X129596327Y-82555687D01*
X129587250Y-82621015D01*
X129583286Y-82710204D01*
X129582914Y-82757661D01*
X129582730Y-82832471D01*
X129581522Y-82883469D01*
X129578309Y-82915871D01*
X129572109Y-82934895D01*
X129561940Y-82945756D01*
X129546819Y-82953672D01*
X129545946Y-82954070D01*
X129516828Y-82966381D01*
X129502403Y-82970914D01*
X129500186Y-82957209D01*
X129498289Y-82919325D01*
X129496847Y-82862115D01*
X129495998Y-82790427D01*
X129495829Y-82737965D01*
X129496692Y-82636447D01*
X129500070Y-82559432D01*
X129507142Y-82502423D01*
X129519088Y-82460926D01*
X129537090Y-82430443D01*
X129562327Y-82406480D01*
X129587247Y-82389755D01*
X129647171Y-82367497D01*
X129716911Y-82362476D01*
X129782600Y-82375152D01*
G36*
X129274876Y-82372735D02*
G01*
X129316667Y-82391744D01*
X129349469Y-82414778D01*
X129373503Y-82440533D01*
X129390097Y-82473758D01*
X129400577Y-82519200D01*
X129406271Y-82581607D01*
X129408507Y-82665727D01*
X129408743Y-82721121D01*
X129408743Y-82937226D01*
X129371774Y-82954070D01*
X129342656Y-82966381D01*
X129328231Y-82970914D01*
X129325472Y-82957425D01*
X129323282Y-82921053D01*
X129321942Y-82867942D01*
X129321657Y-82825772D01*
X129320434Y-82764847D01*
X129317136Y-82716515D01*
X129312321Y-82686918D01*
X129308496Y-82680629D01*
X129282783Y-82687052D01*
X129242418Y-82703525D01*
X129195679Y-82725858D01*
X129150845Y-82749857D01*
X129116193Y-82771330D01*
X129100002Y-82786085D01*
X129099938Y-82786245D01*
X129101330Y-82813552D01*
X129113818Y-82839619D01*
X129135743Y-82860792D01*
X129167743Y-82867874D01*
X129195092Y-82867049D01*
X129233826Y-82866442D01*
X129254158Y-82875516D01*
X129266369Y-82899492D01*
X129267909Y-82904013D01*
X129273203Y-82938206D01*
X129259047Y-82958968D01*
X129222148Y-82968862D01*
X129182289Y-82970692D01*
X129110562Y-82957127D01*
X129073432Y-82937755D01*
X129027576Y-82892245D01*
X129003256Y-82836383D01*
X129001073Y-82777357D01*
X129021629Y-82722353D01*
X129052549Y-82687886D01*
X129083420Y-82668589D01*
X129131942Y-82644159D01*
X129188485Y-82619385D01*
X129197910Y-82615599D01*
X129260019Y-82588191D01*
X129295822Y-82564034D01*
X129307337Y-82540019D01*
X129296580Y-82513035D01*
X129278114Y-82491943D01*
X129234469Y-82465972D01*
X129186446Y-82464024D01*
X129142406Y-82484037D01*
X129110709Y-82523951D01*
X129106549Y-82534248D01*
X129082327Y-82572124D01*
X129046965Y-82600242D01*
X129002343Y-82623317D01*
X129002343Y-82557885D01*
X129004969Y-82517906D01*
X129016230Y-82486397D01*
X129041199Y-82452778D01*
X129065169Y-82426884D01*
X129102441Y-82390217D01*
X129131401Y-82370521D01*
X129162505Y-82362620D01*
X129197713Y-82361314D01*
X129274876Y-82372735D01*
G37*
X129274876Y-82372735D02*
X129316667Y-82391744D01*
X129349469Y-82414778D01*
X129373503Y-82440533D01*
X129390097Y-82473758D01*
X129400577Y-82519200D01*
X129406271Y-82581607D01*
X129408507Y-82665727D01*
X129408743Y-82721121D01*
X129408743Y-82937226D01*
X129371774Y-82954070D01*
X129342656Y-82966381D01*
X129328231Y-82970914D01*
X129325472Y-82957425D01*
X129323282Y-82921053D01*
X129321942Y-82867942D01*
X129321657Y-82825772D01*
X129320434Y-82764847D01*
X129317136Y-82716515D01*
X129312321Y-82686918D01*
X129308496Y-82680629D01*
X129282783Y-82687052D01*
X129242418Y-82703525D01*
X129195679Y-82725858D01*
X129150845Y-82749857D01*
X129116193Y-82771330D01*
X129100002Y-82786085D01*
X129099938Y-82786245D01*
X129101330Y-82813552D01*
X129113818Y-82839619D01*
X129135743Y-82860792D01*
X129167743Y-82867874D01*
X129195092Y-82867049D01*
X129233826Y-82866442D01*
X129254158Y-82875516D01*
X129266369Y-82899492D01*
X129267909Y-82904013D01*
X129273203Y-82938206D01*
X129259047Y-82958968D01*
X129222148Y-82968862D01*
X129182289Y-82970692D01*
X129110562Y-82957127D01*
X129073432Y-82937755D01*
X129027576Y-82892245D01*
X129003256Y-82836383D01*
X129001073Y-82777357D01*
X129021629Y-82722353D01*
X129052549Y-82687886D01*
X129083420Y-82668589D01*
X129131942Y-82644159D01*
X129188485Y-82619385D01*
X129197910Y-82615599D01*
X129260019Y-82588191D01*
X129295822Y-82564034D01*
X129307337Y-82540019D01*
X129296580Y-82513035D01*
X129278114Y-82491943D01*
X129234469Y-82465972D01*
X129186446Y-82464024D01*
X129142406Y-82484037D01*
X129110709Y-82523951D01*
X129106549Y-82534248D01*
X129082327Y-82572124D01*
X129046965Y-82600242D01*
X129002343Y-82623317D01*
X129002343Y-82557885D01*
X129004969Y-82517906D01*
X129016230Y-82486397D01*
X129041199Y-82452778D01*
X129065169Y-82426884D01*
X129102441Y-82390217D01*
X129131401Y-82370521D01*
X129162505Y-82362620D01*
X129197713Y-82361314D01*
X129274876Y-82372735D01*
G36*
X128909833Y-82375063D02*
G01*
X128912048Y-82413250D01*
X128913784Y-82471286D01*
X128914899Y-82544580D01*
X128915257Y-82621455D01*
X128915257Y-82881596D01*
X128869326Y-82927527D01*
X128837675Y-82955829D01*
X128809890Y-82967293D01*
X128771915Y-82966568D01*
X128756840Y-82964721D01*
X128709726Y-82959348D01*
X128670756Y-82956269D01*
X128661257Y-82955985D01*
X128629233Y-82957845D01*
X128583432Y-82962514D01*
X128565674Y-82964721D01*
X128522057Y-82968135D01*
X128492745Y-82960720D01*
X128463680Y-82937827D01*
X128453188Y-82927527D01*
X128407257Y-82881596D01*
X128407257Y-82395002D01*
X128444226Y-82378158D01*
X128476059Y-82365682D01*
X128494683Y-82361314D01*
X128499458Y-82375118D01*
X128503921Y-82413686D01*
X128507775Y-82472756D01*
X128510722Y-82548063D01*
X128512143Y-82611686D01*
X128516114Y-82862057D01*
X128550759Y-82866956D01*
X128582268Y-82863531D01*
X128597708Y-82852441D01*
X128602023Y-82831708D01*
X128605708Y-82787545D01*
X128608469Y-82725546D01*
X128610012Y-82651309D01*
X128610235Y-82613106D01*
X128610457Y-82393183D01*
X128656166Y-82377249D01*
X128688518Y-82366415D01*
X128706115Y-82361362D01*
X128706623Y-82361314D01*
X128708388Y-82375048D01*
X128710329Y-82413130D01*
X128712282Y-82470882D01*
X128714084Y-82543627D01*
X128715343Y-82611686D01*
X128719314Y-82862057D01*
X128806400Y-82862057D01*
X128810396Y-82633640D01*
X128814392Y-82405222D01*
X128856847Y-82383268D01*
X128888192Y-82368193D01*
X128906744Y-82361351D01*
X128907279Y-82361314D01*
X128909833Y-82375063D01*
G37*
X128909833Y-82375063D02*
X128912048Y-82413250D01*
X128913784Y-82471286D01*
X128914899Y-82544580D01*
X128915257Y-82621455D01*
X128915257Y-82881596D01*
X128869326Y-82927527D01*
X128837675Y-82955829D01*
X128809890Y-82967293D01*
X128771915Y-82966568D01*
X128756840Y-82964721D01*
X128709726Y-82959348D01*
X128670756Y-82956269D01*
X128661257Y-82955985D01*
X128629233Y-82957845D01*
X128583432Y-82962514D01*
X128565674Y-82964721D01*
X128522057Y-82968135D01*
X128492745Y-82960720D01*
X128463680Y-82937827D01*
X128453188Y-82927527D01*
X128407257Y-82881596D01*
X128407257Y-82395002D01*
X128444226Y-82378158D01*
X128476059Y-82365682D01*
X128494683Y-82361314D01*
X128499458Y-82375118D01*
X128503921Y-82413686D01*
X128507775Y-82472756D01*
X128510722Y-82548063D01*
X128512143Y-82611686D01*
X128516114Y-82862057D01*
X128550759Y-82866956D01*
X128582268Y-82863531D01*
X128597708Y-82852441D01*
X128602023Y-82831708D01*
X128605708Y-82787545D01*
X128608469Y-82725546D01*
X128610012Y-82651309D01*
X128610235Y-82613106D01*
X128610457Y-82393183D01*
X128656166Y-82377249D01*
X128688518Y-82366415D01*
X128706115Y-82361362D01*
X128706623Y-82361314D01*
X128708388Y-82375048D01*
X128710329Y-82413130D01*
X128712282Y-82470882D01*
X128714084Y-82543627D01*
X128715343Y-82611686D01*
X128719314Y-82862057D01*
X128806400Y-82862057D01*
X128810396Y-82633640D01*
X128814392Y-82405222D01*
X128856847Y-82383268D01*
X128888192Y-82368193D01*
X128906744Y-82361351D01*
X128907279Y-82361314D01*
X128909833Y-82375063D01*
G36*
X128320117Y-82481758D02*
G01*
X128319933Y-82590237D01*
X128319219Y-82673687D01*
X128317675Y-82736104D01*
X128315001Y-82781485D01*
X128310894Y-82813829D01*
X128305055Y-82837133D01*
X128297182Y-82855395D01*
X128291221Y-82865818D01*
X128241855Y-82922345D01*
X128179264Y-82957777D01*
X128110013Y-82970490D01*
X128040668Y-82958863D01*
X127999375Y-82937968D01*
X127956025Y-82901822D01*
X127926481Y-82857676D01*
X127908655Y-82799862D01*
X127900463Y-82722713D01*
X127899302Y-82666114D01*
X127899458Y-82662047D01*
X128000857Y-82662047D01*
X128001476Y-82726950D01*
X128004314Y-82769914D01*
X128010840Y-82798022D01*
X128022523Y-82818353D01*
X128036483Y-82833688D01*
X128083365Y-82863290D01*
X128133701Y-82865819D01*
X128181276Y-82841105D01*
X128184979Y-82837756D01*
X128200783Y-82820335D01*
X128210693Y-82799609D01*
X128216058Y-82768762D01*
X128218228Y-82720977D01*
X128218571Y-82668148D01*
X128217827Y-82601781D01*
X128214748Y-82557506D01*
X128208061Y-82528409D01*
X128196496Y-82507573D01*
X128187013Y-82496507D01*
X128142960Y-82468598D01*
X128092224Y-82465243D01*
X128043796Y-82486559D01*
X128034450Y-82494473D01*
X128018540Y-82512047D01*
X128008610Y-82532987D01*
X128003278Y-82564182D01*
X128001163Y-82612522D01*
X128000857Y-82662047D01*
X127899458Y-82662047D01*
X127902810Y-82574968D01*
X127914726Y-82506486D01*
X127937135Y-82455000D01*
X127972124Y-82414843D01*
X127999375Y-82394261D01*
X128048907Y-82372025D01*
X128106316Y-82361704D01*
X128159682Y-82364467D01*
X128189543Y-82375612D01*
X128201261Y-82378783D01*
X128209037Y-82366957D01*
X128214465Y-82335266D01*
X128218571Y-82286993D01*
X128223067Y-82233229D01*
X128229313Y-82200882D01*
X128240676Y-82182385D01*
X128260528Y-82170170D01*
X128273000Y-82164762D01*
X128320171Y-82145001D01*
X128320117Y-82481758D01*
G37*
X128320117Y-82481758D02*
X128319933Y-82590237D01*
X128319219Y-82673687D01*
X128317675Y-82736104D01*
X128315001Y-82781485D01*
X128310894Y-82813829D01*
X128305055Y-82837133D01*
X128297182Y-82855395D01*
X128291221Y-82865818D01*
X128241855Y-82922345D01*
X128179264Y-82957777D01*
X128110013Y-82970490D01*
X128040668Y-82958863D01*
X127999375Y-82937968D01*
X127956025Y-82901822D01*
X127926481Y-82857676D01*
X127908655Y-82799862D01*
X127900463Y-82722713D01*
X127899302Y-82666114D01*
X127899458Y-82662047D01*
X128000857Y-82662047D01*
X128001476Y-82726950D01*
X128004314Y-82769914D01*
X128010840Y-82798022D01*
X128022523Y-82818353D01*
X128036483Y-82833688D01*
X128083365Y-82863290D01*
X128133701Y-82865819D01*
X128181276Y-82841105D01*
X128184979Y-82837756D01*
X128200783Y-82820335D01*
X128210693Y-82799609D01*
X128216058Y-82768762D01*
X128218228Y-82720977D01*
X128218571Y-82668148D01*
X128217827Y-82601781D01*
X128214748Y-82557506D01*
X128208061Y-82528409D01*
X128196496Y-82507573D01*
X128187013Y-82496507D01*
X128142960Y-82468598D01*
X128092224Y-82465243D01*
X128043796Y-82486559D01*
X128034450Y-82494473D01*
X128018540Y-82512047D01*
X128008610Y-82532987D01*
X128003278Y-82564182D01*
X128001163Y-82612522D01*
X128000857Y-82662047D01*
X127899458Y-82662047D01*
X127902810Y-82574968D01*
X127914726Y-82506486D01*
X127937135Y-82455000D01*
X127972124Y-82414843D01*
X127999375Y-82394261D01*
X128048907Y-82372025D01*
X128106316Y-82361704D01*
X128159682Y-82364467D01*
X128189543Y-82375612D01*
X128201261Y-82378783D01*
X128209037Y-82366957D01*
X128214465Y-82335266D01*
X128218571Y-82286993D01*
X128223067Y-82233229D01*
X128229313Y-82200882D01*
X128240676Y-82182385D01*
X128260528Y-82170170D01*
X128273000Y-82164762D01*
X128320171Y-82145001D01*
X128320117Y-82481758D01*
G36*
X127659926Y-82366155D02*
G01*
X127725858Y-82390484D01*
X127779273Y-82433517D01*
X127800164Y-82463809D01*
X127822939Y-82519394D01*
X127822466Y-82559586D01*
X127798562Y-82586617D01*
X127789717Y-82591213D01*
X127751530Y-82605544D01*
X127732028Y-82601872D01*
X127725422Y-82577807D01*
X127725086Y-82564514D01*
X127712992Y-82515610D01*
X127681471Y-82481399D01*
X127637659Y-82464876D01*
X127588695Y-82469034D01*
X127548894Y-82490627D01*
X127535450Y-82502944D01*
X127525921Y-82517887D01*
X127519485Y-82540475D01*
X127515317Y-82575728D01*
X127512597Y-82628666D01*
X127510502Y-82704307D01*
X127509960Y-82728257D01*
X127507981Y-82810190D01*
X127505731Y-82867855D01*
X127502357Y-82906008D01*
X127497006Y-82929404D01*
X127488824Y-82942798D01*
X127476959Y-82950945D01*
X127469362Y-82954544D01*
X127437102Y-82966852D01*
X127418111Y-82970914D01*
X127411836Y-82957348D01*
X127408006Y-82916334D01*
X127406600Y-82847399D01*
X127407598Y-82750069D01*
X127407908Y-82735057D01*
X127410101Y-82646259D01*
X127412693Y-82581419D01*
X127416382Y-82535467D01*
X127421864Y-82503335D01*
X127429835Y-82479953D01*
X127440993Y-82460252D01*
X127446830Y-82451810D01*
X127480296Y-82414457D01*
X127517727Y-82385403D01*
X127522309Y-82382867D01*
X127589426Y-82362843D01*
X127659926Y-82366155D01*
G37*
X127659926Y-82366155D02*
X127725858Y-82390484D01*
X127779273Y-82433517D01*
X127800164Y-82463809D01*
X127822939Y-82519394D01*
X127822466Y-82559586D01*
X127798562Y-82586617D01*
X127789717Y-82591213D01*
X127751530Y-82605544D01*
X127732028Y-82601872D01*
X127725422Y-82577807D01*
X127725086Y-82564514D01*
X127712992Y-82515610D01*
X127681471Y-82481399D01*
X127637659Y-82464876D01*
X127588695Y-82469034D01*
X127548894Y-82490627D01*
X127535450Y-82502944D01*
X127525921Y-82517887D01*
X127519485Y-82540475D01*
X127515317Y-82575728D01*
X127512597Y-82628666D01*
X127510502Y-82704307D01*
X127509960Y-82728257D01*
X127507981Y-82810190D01*
X127505731Y-82867855D01*
X127502357Y-82906008D01*
X127497006Y-82929404D01*
X127488824Y-82942798D01*
X127476959Y-82950945D01*
X127469362Y-82954544D01*
X127437102Y-82966852D01*
X127418111Y-82970914D01*
X127411836Y-82957348D01*
X127408006Y-82916334D01*
X127406600Y-82847399D01*
X127407598Y-82750069D01*
X127407908Y-82735057D01*
X127410101Y-82646259D01*
X127412693Y-82581419D01*
X127416382Y-82535467D01*
X127421864Y-82503335D01*
X127429835Y-82479953D01*
X127440993Y-82460252D01*
X127446830Y-82451810D01*
X127480296Y-82414457D01*
X127517727Y-82385403D01*
X127522309Y-82382867D01*
X127589426Y-82362843D01*
X127659926Y-82366155D01*
G36*
X127169744Y-82367368D02*
G01*
X127226616Y-82388487D01*
X127227267Y-82388893D01*
X127262440Y-82414780D01*
X127288407Y-82445033D01*
X127306670Y-82484458D01*
X127318732Y-82537862D01*
X127326096Y-82610051D01*
X127330264Y-82705832D01*
X127330629Y-82719478D01*
X127335876Y-82925242D01*
X127291716Y-82948078D01*
X127259763Y-82963510D01*
X127240470Y-82970823D01*
X127239578Y-82970914D01*
X127236239Y-82957422D01*
X127233587Y-82921026D01*
X127231956Y-82867852D01*
X127231600Y-82824793D01*
X127231592Y-82755041D01*
X127228403Y-82711237D01*
X127217288Y-82690344D01*
X127193501Y-82689325D01*
X127152296Y-82705141D01*
X127090086Y-82734215D01*
X127044341Y-82758363D01*
X127020813Y-82779313D01*
X127013896Y-82802147D01*
X127013886Y-82803277D01*
X127025299Y-82842612D01*
X127059092Y-82863862D01*
X127110809Y-82866939D01*
X127148061Y-82866406D01*
X127167703Y-82877135D01*
X127179952Y-82902905D01*
X127187002Y-82935737D01*
X127176842Y-82954366D01*
X127173017Y-82957032D01*
X127137001Y-82967740D01*
X127086566Y-82969256D01*
X127034626Y-82962159D01*
X126997822Y-82949188D01*
X126946938Y-82905985D01*
X126918014Y-82845846D01*
X126912286Y-82798862D01*
X126916657Y-82756482D01*
X126932475Y-82721888D01*
X126963797Y-82691163D01*
X127014678Y-82660390D01*
X127089176Y-82625652D01*
X127093714Y-82623688D01*
X127160821Y-82592687D01*
X127202232Y-82567262D01*
X127219981Y-82544414D01*
X127216107Y-82521145D01*
X127192643Y-82494456D01*
X127185627Y-82488314D01*
X127138630Y-82464500D01*
X127089933Y-82465503D01*
X127047522Y-82488851D01*
X127019384Y-82532075D01*
X127016769Y-82540560D01*
X126991308Y-82581708D01*
X126959001Y-82601528D01*
X126912286Y-82621170D01*
X126912286Y-82570350D01*
X126926496Y-82496482D01*
X126968675Y-82428727D01*
X126990624Y-82406061D01*
X127040517Y-82376969D01*
X127103967Y-82363800D01*
X127169744Y-82367368D01*
G37*
X127169744Y-82367368D02*
X127226616Y-82388487D01*
X127227267Y-82388893D01*
X127262440Y-82414780D01*
X127288407Y-82445033D01*
X127306670Y-82484458D01*
X127318732Y-82537862D01*
X127326096Y-82610051D01*
X127330264Y-82705832D01*
X127330629Y-82719478D01*
X127335876Y-82925242D01*
X127291716Y-82948078D01*
X127259763Y-82963510D01*
X127240470Y-82970823D01*
X127239578Y-82970914D01*
X127236239Y-82957422D01*
X127233587Y-82921026D01*
X127231956Y-82867852D01*
X127231600Y-82824793D01*
X127231592Y-82755041D01*
X127228403Y-82711237D01*
X127217288Y-82690344D01*
X127193501Y-82689325D01*
X127152296Y-82705141D01*
X127090086Y-82734215D01*
X127044341Y-82758363D01*
X127020813Y-82779313D01*
X127013896Y-82802147D01*
X127013886Y-82803277D01*
X127025299Y-82842612D01*
X127059092Y-82863862D01*
X127110809Y-82866939D01*
X127148061Y-82866406D01*
X127167703Y-82877135D01*
X127179952Y-82902905D01*
X127187002Y-82935737D01*
X127176842Y-82954366D01*
X127173017Y-82957032D01*
X127137001Y-82967740D01*
X127086566Y-82969256D01*
X127034626Y-82962159D01*
X126997822Y-82949188D01*
X126946938Y-82905985D01*
X126918014Y-82845846D01*
X126912286Y-82798862D01*
X126916657Y-82756482D01*
X126932475Y-82721888D01*
X126963797Y-82691163D01*
X127014678Y-82660390D01*
X127089176Y-82625652D01*
X127093714Y-82623688D01*
X127160821Y-82592687D01*
X127202232Y-82567262D01*
X127219981Y-82544414D01*
X127216107Y-82521145D01*
X127192643Y-82494456D01*
X127185627Y-82488314D01*
X127138630Y-82464500D01*
X127089933Y-82465503D01*
X127047522Y-82488851D01*
X127019384Y-82532075D01*
X127016769Y-82540560D01*
X126991308Y-82581708D01*
X126959001Y-82601528D01*
X126912286Y-82621170D01*
X126912286Y-82570350D01*
X126926496Y-82496482D01*
X126968675Y-82428727D01*
X126990624Y-82406061D01*
X127040517Y-82376969D01*
X127103967Y-82363800D01*
X127169744Y-82367368D01*
G36*
X126505886Y-82267689D02*
G01*
X126510139Y-82327013D01*
X126515025Y-82361972D01*
X126521795Y-82377220D01*
X126531702Y-82377415D01*
X126534914Y-82375595D01*
X126577644Y-82362415D01*
X126633227Y-82363185D01*
X126689737Y-82376733D01*
X126725082Y-82394261D01*
X126761321Y-82422261D01*
X126787813Y-82453949D01*
X126805999Y-82494213D01*
X126817322Y-82547943D01*
X126823222Y-82620026D01*
X126825143Y-82715351D01*
X126825177Y-82733637D01*
X126825200Y-82939046D01*
X126779491Y-82954980D01*
X126747027Y-82965820D01*
X126729215Y-82970868D01*
X126728691Y-82970914D01*
X126726937Y-82957228D01*
X126725444Y-82919476D01*
X126724326Y-82862624D01*
X126723697Y-82791634D01*
X126723600Y-82748473D01*
X126723398Y-82663373D01*
X126722358Y-82602381D01*
X126719831Y-82560577D01*
X126715164Y-82533042D01*
X126707707Y-82514856D01*
X126696811Y-82501098D01*
X126690007Y-82494473D01*
X126643272Y-82467775D01*
X126592272Y-82465775D01*
X126546001Y-82488355D01*
X126537444Y-82496507D01*
X126524893Y-82511836D01*
X126516188Y-82530018D01*
X126510631Y-82556309D01*
X126507526Y-82595962D01*
X126506176Y-82654232D01*
X126505886Y-82734573D01*
X126505886Y-82939046D01*
X126460177Y-82954980D01*
X126427713Y-82965820D01*
X126409901Y-82970868D01*
X126409377Y-82970914D01*
X126408037Y-82957023D01*
X126406828Y-82917839D01*
X126405801Y-82857100D01*
X126405002Y-82778541D01*
X126404481Y-82685898D01*
X126404286Y-82582909D01*
X126404286Y-82185742D01*
X126451457Y-82165844D01*
X126498629Y-82145947D01*
X126505886Y-82267689D01*
G37*
X126505886Y-82267689D02*
X126510139Y-82327013D01*
X126515025Y-82361972D01*
X126521795Y-82377220D01*
X126531702Y-82377415D01*
X126534914Y-82375595D01*
X126577644Y-82362415D01*
X126633227Y-82363185D01*
X126689737Y-82376733D01*
X126725082Y-82394261D01*
X126761321Y-82422261D01*
X126787813Y-82453949D01*
X126805999Y-82494213D01*
X126817322Y-82547943D01*
X126823222Y-82620026D01*
X126825143Y-82715351D01*
X126825177Y-82733637D01*
X126825200Y-82939046D01*
X126779491Y-82954980D01*
X126747027Y-82965820D01*
X126729215Y-82970868D01*
X126728691Y-82970914D01*
X126726937Y-82957228D01*
X126725444Y-82919476D01*
X126724326Y-82862624D01*
X126723697Y-82791634D01*
X126723600Y-82748473D01*
X126723398Y-82663373D01*
X126722358Y-82602381D01*
X126719831Y-82560577D01*
X126715164Y-82533042D01*
X126707707Y-82514856D01*
X126696811Y-82501098D01*
X126690007Y-82494473D01*
X126643272Y-82467775D01*
X126592272Y-82465775D01*
X126546001Y-82488355D01*
X126537444Y-82496507D01*
X126524893Y-82511836D01*
X126516188Y-82530018D01*
X126510631Y-82556309D01*
X126507526Y-82595962D01*
X126506176Y-82654232D01*
X126505886Y-82734573D01*
X126505886Y-82939046D01*
X126460177Y-82954980D01*
X126427713Y-82965820D01*
X126409901Y-82970868D01*
X126409377Y-82970914D01*
X126408037Y-82957023D01*
X126406828Y-82917839D01*
X126405801Y-82857100D01*
X126405002Y-82778541D01*
X126404481Y-82685898D01*
X126404286Y-82582909D01*
X126404286Y-82185742D01*
X126451457Y-82165844D01*
X126498629Y-82145947D01*
X126505886Y-82267689D01*
G36*
X125298303Y-82347639D02*
G01*
X125355527Y-82386135D01*
X125399749Y-82441735D01*
X125426167Y-82512486D01*
X125431510Y-82564562D01*
X125430903Y-82586293D01*
X125425822Y-82602931D01*
X125411855Y-82617837D01*
X125384589Y-82634373D01*
X125339612Y-82655898D01*
X125272511Y-82685774D01*
X125272171Y-82685924D01*
X125210407Y-82714213D01*
X125159759Y-82739333D01*
X125125404Y-82758579D01*
X125112518Y-82769248D01*
X125112514Y-82769334D01*
X125123872Y-82792566D01*
X125150431Y-82818174D01*
X125180923Y-82836621D01*
X125196370Y-82840286D01*
X125238515Y-82827612D01*
X125274808Y-82795871D01*
X125292517Y-82760972D01*
X125309552Y-82735245D01*
X125342922Y-82705946D01*
X125382149Y-82680635D01*
X125416756Y-82666871D01*
X125423993Y-82666114D01*
X125432139Y-82678560D01*
X125432630Y-82710372D01*
X125426643Y-82753266D01*
X125415357Y-82798958D01*
X125399950Y-82839161D01*
X125399171Y-82840722D01*
X125352804Y-82905462D01*
X125292711Y-82949497D01*
X125224465Y-82971111D01*
X125153638Y-82968585D01*
X125085804Y-82940204D01*
X125082788Y-82938208D01*
X125029427Y-82889848D01*
X124994340Y-82826752D01*
X124974922Y-82743787D01*
X124972316Y-82720478D01*
X124967701Y-82610455D01*
X124973233Y-82559148D01*
X125112514Y-82559148D01*
X125114324Y-82591153D01*
X125124222Y-82600493D01*
X125148898Y-82593505D01*
X125187795Y-82576987D01*
X125231275Y-82556281D01*
X125232356Y-82555733D01*
X125269209Y-82536349D01*
X125284000Y-82523413D01*
X125280353Y-82509851D01*
X125264995Y-82492032D01*
X125225923Y-82466245D01*
X125183846Y-82464350D01*
X125146103Y-82483117D01*
X125120034Y-82519315D01*
X125112514Y-82559148D01*
X124973233Y-82559148D01*
X124977194Y-82522427D01*
X125001550Y-82452612D01*
X125035456Y-82403702D01*
X125096653Y-82354278D01*
X125164063Y-82329759D01*
X125232880Y-82328197D01*
X125298303Y-82347639D01*
G37*
X125298303Y-82347639D02*
X125355527Y-82386135D01*
X125399749Y-82441735D01*
X125426167Y-82512486D01*
X125431510Y-82564562D01*
X125430903Y-82586293D01*
X125425822Y-82602931D01*
X125411855Y-82617837D01*
X125384589Y-82634373D01*
X125339612Y-82655898D01*
X125272511Y-82685774D01*
X125272171Y-82685924D01*
X125210407Y-82714213D01*
X125159759Y-82739333D01*
X125125404Y-82758579D01*
X125112518Y-82769248D01*
X125112514Y-82769334D01*
X125123872Y-82792566D01*
X125150431Y-82818174D01*
X125180923Y-82836621D01*
X125196370Y-82840286D01*
X125238515Y-82827612D01*
X125274808Y-82795871D01*
X125292517Y-82760972D01*
X125309552Y-82735245D01*
X125342922Y-82705946D01*
X125382149Y-82680635D01*
X125416756Y-82666871D01*
X125423993Y-82666114D01*
X125432139Y-82678560D01*
X125432630Y-82710372D01*
X125426643Y-82753266D01*
X125415357Y-82798958D01*
X125399950Y-82839161D01*
X125399171Y-82840722D01*
X125352804Y-82905462D01*
X125292711Y-82949497D01*
X125224465Y-82971111D01*
X125153638Y-82968585D01*
X125085804Y-82940204D01*
X125082788Y-82938208D01*
X125029427Y-82889848D01*
X124994340Y-82826752D01*
X124974922Y-82743787D01*
X124972316Y-82720478D01*
X124967701Y-82610455D01*
X124973233Y-82559148D01*
X125112514Y-82559148D01*
X125114324Y-82591153D01*
X125124222Y-82600493D01*
X125148898Y-82593505D01*
X125187795Y-82576987D01*
X125231275Y-82556281D01*
X125232356Y-82555733D01*
X125269209Y-82536349D01*
X125284000Y-82523413D01*
X125280353Y-82509851D01*
X125264995Y-82492032D01*
X125225923Y-82466245D01*
X125183846Y-82464350D01*
X125146103Y-82483117D01*
X125120034Y-82519315D01*
X125112514Y-82559148D01*
X124973233Y-82559148D01*
X124977194Y-82522427D01*
X125001550Y-82452612D01*
X125035456Y-82403702D01*
X125096653Y-82354278D01*
X125164063Y-82329759D01*
X125232880Y-82328197D01*
X125298303Y-82347639D01*
G36*
X124171115Y-82338362D02*
G01*
X124239145Y-82374133D01*
X124289351Y-82431701D01*
X124307185Y-82468712D01*
X124321063Y-82524282D01*
X124328167Y-82594496D01*
X124328840Y-82671127D01*
X124323427Y-82745952D01*
X124312270Y-82810742D01*
X124295714Y-82857273D01*
X124290626Y-82865287D01*
X124230355Y-82925107D01*
X124158769Y-82960935D01*
X124081092Y-82971420D01*
X124002548Y-82955210D01*
X123980689Y-82945492D01*
X123938122Y-82915543D01*
X123900763Y-82875833D01*
X123897232Y-82870797D01*
X123882881Y-82846524D01*
X123873394Y-82820578D01*
X123867790Y-82786422D01*
X123865086Y-82737519D01*
X123864299Y-82667335D01*
X123864286Y-82651600D01*
X123864322Y-82646592D01*
X124009429Y-82646592D01*
X124010273Y-82712830D01*
X124013596Y-82756786D01*
X124020583Y-82785179D01*
X124032416Y-82804725D01*
X124038457Y-82811257D01*
X124073186Y-82836080D01*
X124106903Y-82834948D01*
X124140995Y-82813416D01*
X124161329Y-82790429D01*
X124173371Y-82756878D01*
X124180134Y-82703969D01*
X124180598Y-82697799D01*
X124181752Y-82601913D01*
X124169688Y-82530699D01*
X124144570Y-82484594D01*
X124106560Y-82464035D01*
X124092992Y-82462914D01*
X124057364Y-82468552D01*
X124032994Y-82488086D01*
X124018093Y-82525442D01*
X124010875Y-82584550D01*
X124009429Y-82646592D01*
X123864322Y-82646592D01*
X123864826Y-82576813D01*
X123867096Y-82524559D01*
X123872068Y-82488349D01*
X123880713Y-82461699D01*
X123894005Y-82438122D01*
X123896943Y-82433738D01*
X123946313Y-82374649D01*
X124000109Y-82340347D01*
X124065602Y-82326731D01*
X124087842Y-82326065D01*
X124171115Y-82338362D01*
G37*
X124171115Y-82338362D02*
X124239145Y-82374133D01*
X124289351Y-82431701D01*
X124307185Y-82468712D01*
X124321063Y-82524282D01*
X124328167Y-82594496D01*
X124328840Y-82671127D01*
X124323427Y-82745952D01*
X124312270Y-82810742D01*
X124295714Y-82857273D01*
X124290626Y-82865287D01*
X124230355Y-82925107D01*
X124158769Y-82960935D01*
X124081092Y-82971420D01*
X124002548Y-82955210D01*
X123980689Y-82945492D01*
X123938122Y-82915543D01*
X123900763Y-82875833D01*
X123897232Y-82870797D01*
X123882881Y-82846524D01*
X123873394Y-82820578D01*
X123867790Y-82786422D01*
X123865086Y-82737519D01*
X123864299Y-82667335D01*
X123864286Y-82651600D01*
X123864322Y-82646592D01*
X124009429Y-82646592D01*
X124010273Y-82712830D01*
X124013596Y-82756786D01*
X124020583Y-82785179D01*
X124032416Y-82804725D01*
X124038457Y-82811257D01*
X124073186Y-82836080D01*
X124106903Y-82834948D01*
X124140995Y-82813416D01*
X124161329Y-82790429D01*
X124173371Y-82756878D01*
X124180134Y-82703969D01*
X124180598Y-82697799D01*
X124181752Y-82601913D01*
X124169688Y-82530699D01*
X124144570Y-82484594D01*
X124106560Y-82464035D01*
X124092992Y-82462914D01*
X124057364Y-82468552D01*
X124032994Y-82488086D01*
X124018093Y-82525442D01*
X124010875Y-82584550D01*
X124009429Y-82646592D01*
X123864322Y-82646592D01*
X123864826Y-82576813D01*
X123867096Y-82524559D01*
X123872068Y-82488349D01*
X123880713Y-82461699D01*
X123894005Y-82438122D01*
X123896943Y-82433738D01*
X123946313Y-82374649D01*
X124000109Y-82340347D01*
X124065602Y-82326731D01*
X124087842Y-82326065D01*
X124171115Y-82338362D01*
G36*
X125846093Y-82344180D02*
G01*
X125892672Y-82371123D01*
X125925057Y-82397866D01*
X125948742Y-82425884D01*
X125965059Y-82460148D01*
X125975339Y-82505627D01*
X125980914Y-82567292D01*
X125983116Y-82650111D01*
X125983371Y-82709646D01*
X125983371Y-82928791D01*
X125921686Y-82956444D01*
X125860000Y-82984097D01*
X125852743Y-82744070D01*
X125849744Y-82654428D01*
X125846598Y-82589362D01*
X125842701Y-82544426D01*
X125837447Y-82515170D01*
X125830231Y-82497148D01*
X125820450Y-82485911D01*
X125817312Y-82483479D01*
X125769761Y-82464483D01*
X125721697Y-82472000D01*
X125693086Y-82491943D01*
X125681447Y-82506075D01*
X125673391Y-82524620D01*
X125668271Y-82552734D01*
X125665441Y-82595573D01*
X125664256Y-82658295D01*
X125664057Y-82723661D01*
X125664018Y-82805668D01*
X125662614Y-82863716D01*
X125657914Y-82902865D01*
X125647987Y-82928180D01*
X125630903Y-82944723D01*
X125604732Y-82957556D01*
X125569775Y-82970891D01*
X125531596Y-82985407D01*
X125536141Y-82727789D01*
X125537971Y-82634919D01*
X125540112Y-82566289D01*
X125543181Y-82517111D01*
X125547794Y-82482598D01*
X125554568Y-82457962D01*
X125564119Y-82438416D01*
X125575634Y-82421170D01*
X125631190Y-82366080D01*
X125698980Y-82334222D01*
X125772713Y-82326591D01*
X125846093Y-82344180D01*
G37*
X125846093Y-82344180D02*
X125892672Y-82371123D01*
X125925057Y-82397866D01*
X125948742Y-82425884D01*
X125965059Y-82460148D01*
X125975339Y-82505627D01*
X125980914Y-82567292D01*
X125983116Y-82650111D01*
X125983371Y-82709646D01*
X125983371Y-82928791D01*
X125921686Y-82956444D01*
X125860000Y-82984097D01*
X125852743Y-82744070D01*
X125849744Y-82654428D01*
X125846598Y-82589362D01*
X125842701Y-82544426D01*
X125837447Y-82515170D01*
X125830231Y-82497148D01*
X125820450Y-82485911D01*
X125817312Y-82483479D01*
X125769761Y-82464483D01*
X125721697Y-82472000D01*
X125693086Y-82491943D01*
X125681447Y-82506075D01*
X125673391Y-82524620D01*
X125668271Y-82552734D01*
X125665441Y-82595573D01*
X125664256Y-82658295D01*
X125664057Y-82723661D01*
X125664018Y-82805668D01*
X125662614Y-82863716D01*
X125657914Y-82902865D01*
X125647987Y-82928180D01*
X125630903Y-82944723D01*
X125604732Y-82957556D01*
X125569775Y-82970891D01*
X125531596Y-82985407D01*
X125536141Y-82727789D01*
X125537971Y-82634919D01*
X125540112Y-82566289D01*
X125543181Y-82517111D01*
X125547794Y-82482598D01*
X125554568Y-82457962D01*
X125564119Y-82438416D01*
X125575634Y-82421170D01*
X125631190Y-82366080D01*
X125698980Y-82334222D01*
X125772713Y-82326591D01*
X125846093Y-82344180D01*
G36*
X124729744Y-82336318D02*
G01*
X124785201Y-82363968D01*
X124834148Y-82414880D01*
X124847629Y-82433738D01*
X124862314Y-82458415D01*
X124871842Y-82485216D01*
X124877293Y-82520987D01*
X124879747Y-82572569D01*
X124880286Y-82640667D01*
X124877852Y-82733988D01*
X124869394Y-82804057D01*
X124853174Y-82856331D01*
X124827454Y-82896269D01*
X124790497Y-82929329D01*
X124787782Y-82931286D01*
X124751360Y-82951308D01*
X124707502Y-82961215D01*
X124651724Y-82963657D01*
X124561048Y-82963657D01*
X124561010Y-83051683D01*
X124560166Y-83100708D01*
X124555024Y-83129465D01*
X124541587Y-83146711D01*
X124515858Y-83161208D01*
X124509679Y-83164169D01*
X124480764Y-83178048D01*
X124458376Y-83186814D01*
X124441729Y-83187571D01*
X124430036Y-83177423D01*
X124422510Y-83153473D01*
X124418366Y-83112826D01*
X124416815Y-83052586D01*
X124417071Y-82969855D01*
X124418349Y-82861739D01*
X124418748Y-82829400D01*
X124420185Y-82717924D01*
X124421472Y-82645003D01*
X124560971Y-82645003D01*
X124561755Y-82706899D01*
X124565240Y-82747397D01*
X124573124Y-82774108D01*
X124587105Y-82794644D01*
X124596597Y-82804660D01*
X124635404Y-82833967D01*
X124669763Y-82836352D01*
X124705216Y-82812150D01*
X124706114Y-82811257D01*
X124720539Y-82792553D01*
X124729313Y-82767132D01*
X124733739Y-82727984D01*
X124735118Y-82668097D01*
X124735143Y-82654830D01*
X124731812Y-82572301D01*
X124720969Y-82515091D01*
X124701340Y-82480166D01*
X124671650Y-82464494D01*
X124654491Y-82462914D01*
X124613766Y-82470326D01*
X124585832Y-82494730D01*
X124569017Y-82539380D01*
X124561650Y-82607530D01*
X124560971Y-82645003D01*
X124421472Y-82645003D01*
X124421708Y-82631645D01*
X124423677Y-82566733D01*
X124426450Y-82519358D01*
X124430388Y-82485690D01*
X124435849Y-82461898D01*
X124443192Y-82444153D01*
X124452777Y-82428624D01*
X124456887Y-82422781D01*
X124511405Y-82367585D01*
X124580336Y-82336290D01*
X124660072Y-82327565D01*
X124729744Y-82336318D01*
G37*
X124729744Y-82336318D02*
X124785201Y-82363968D01*
X124834148Y-82414880D01*
X124847629Y-82433738D01*
X124862314Y-82458415D01*
X124871842Y-82485216D01*
X124877293Y-82520987D01*
X124879747Y-82572569D01*
X124880286Y-82640667D01*
X124877852Y-82733988D01*
X124869394Y-82804057D01*
X124853174Y-82856331D01*
X124827454Y-82896269D01*
X124790497Y-82929329D01*
X124787782Y-82931286D01*
X124751360Y-82951308D01*
X124707502Y-82961215D01*
X124651724Y-82963657D01*
X124561048Y-82963657D01*
X124561010Y-83051683D01*
X124560166Y-83100708D01*
X124555024Y-83129465D01*
X124541587Y-83146711D01*
X124515858Y-83161208D01*
X124509679Y-83164169D01*
X124480764Y-83178048D01*
X124458376Y-83186814D01*
X124441729Y-83187571D01*
X124430036Y-83177423D01*
X124422510Y-83153473D01*
X124418366Y-83112826D01*
X124416815Y-83052586D01*
X124417071Y-82969855D01*
X124418349Y-82861739D01*
X124418748Y-82829400D01*
X124420185Y-82717924D01*
X124421472Y-82645003D01*
X124560971Y-82645003D01*
X124561755Y-82706899D01*
X124565240Y-82747397D01*
X124573124Y-82774108D01*
X124587105Y-82794644D01*
X124596597Y-82804660D01*
X124635404Y-82833967D01*
X124669763Y-82836352D01*
X124705216Y-82812150D01*
X124706114Y-82811257D01*
X124720539Y-82792553D01*
X124729313Y-82767132D01*
X124733739Y-82727984D01*
X124735118Y-82668097D01*
X124735143Y-82654830D01*
X124731812Y-82572301D01*
X124720969Y-82515091D01*
X124701340Y-82480166D01*
X124671650Y-82464494D01*
X124654491Y-82462914D01*
X124613766Y-82470326D01*
X124585832Y-82494730D01*
X124569017Y-82539380D01*
X124561650Y-82607530D01*
X124560971Y-82645003D01*
X124421472Y-82645003D01*
X124421708Y-82631645D01*
X124423677Y-82566733D01*
X124426450Y-82519358D01*
X124430388Y-82485690D01*
X124435849Y-82461898D01*
X124443192Y-82444153D01*
X124452777Y-82428624D01*
X124456887Y-82422781D01*
X124511405Y-82367585D01*
X124580336Y-82336290D01*
X124660072Y-82327565D01*
X124729744Y-82336318D01*
D10*
X142380000Y-118110000D02*
X142380000Y-61110000D01*
X111880000Y-118110000D02*
X142380000Y-118110000D01*
X111880000Y-61110000D02*
X111880000Y-118110000D01*
X112380000Y-61110000D02*
X111880000Y-61110000D01*
X142380000Y-61110000D02*
X112380000Y-61110000D01*
X141626051Y-63670000D02*
G75*
G03X141626051Y-63670000I-1796051J0D01*
G01*
X116226051Y-63670000D02*
G75*
G03X116226051Y-63670000I-1796051J0D01*
G01*
X116226051Y-115740000D02*
G75*
G03X116226051Y-115740000I-1796051J0D01*
G01*
X141626051Y-115740000D02*
G75*
G03X141626051Y-115740000I-1796051J0D01*
G01*
D11*
X133250000Y-104726999D02*
X135990000Y-104726999D01*
X135990000Y-104726999D02*
X135990000Y-98186999D01*
X135990000Y-98186999D02*
X133250000Y-98186999D01*
X133250000Y-98186999D02*
X133250000Y-104726999D01*
X134620000Y-105496999D02*
X134620000Y-104726999D01*
X134620000Y-97416999D02*
X134620000Y-98186999D01*
X127000000Y-102646999D02*
X127000000Y-105186999D01*
X124460000Y-102646999D02*
X124460000Y-105186999D01*
X121920000Y-102646999D02*
X121920000Y-105186999D01*
X129580000Y-86756999D02*
X129580000Y-102646999D01*
X119340000Y-86756999D02*
X119340000Y-102646999D01*
X119340000Y-86756999D02*
X129580000Y-86756999D01*
X119340000Y-102646999D02*
X129580000Y-102646999D01*
X104059580Y-93440000D02*
X104059580Y-95940000D01*
X106559580Y-93440000D02*
X104059580Y-93440000D01*
X105859580Y-100460000D02*
X104359580Y-100460000D01*
X105859580Y-101460000D02*
X105859580Y-100460000D01*
X105859580Y-94740000D02*
X104359580Y-94740000D01*
X105859580Y-93740000D02*
X105859580Y-94740000D01*
X106669580Y-100960000D02*
X106669580Y-101460000D01*
X107879580Y-100960000D02*
X106669580Y-100960000D01*
X107879580Y-94240000D02*
X107879580Y-100960000D01*
X106669580Y-94240000D02*
X107879580Y-94240000D01*
X106669580Y-93740000D02*
X106669580Y-94240000D01*
X108379580Y-101460000D02*
X108379580Y-93740000D01*
X104359580Y-101460000D02*
X108379580Y-101460000D01*
X104359580Y-93740000D02*
X104359580Y-101460000D01*
X108379580Y-93740000D02*
X104359580Y-93740000D01*
X104059580Y-73040000D02*
X104059580Y-75540000D01*
X106559580Y-73040000D02*
X104059580Y-73040000D01*
X105859580Y-80060000D02*
X104359580Y-80060000D01*
X105859580Y-81060000D02*
X105859580Y-80060000D01*
X105859580Y-74340000D02*
X104359580Y-74340000D01*
X105859580Y-73340000D02*
X105859580Y-74340000D01*
X106669580Y-80560000D02*
X106669580Y-81060000D01*
X107879580Y-80560000D02*
X106669580Y-80560000D01*
X107879580Y-73840000D02*
X107879580Y-80560000D01*
X106669580Y-73840000D02*
X107879580Y-73840000D01*
X106669580Y-73340000D02*
X106669580Y-73840000D01*
X108379580Y-81060000D02*
X108379580Y-73340000D01*
X104359580Y-81060000D02*
X108379580Y-81060000D01*
X104359580Y-73340000D02*
X104359580Y-81060000D01*
X108379580Y-73340000D02*
X104359580Y-73340000D01*
X150204580Y-100034840D02*
X150204580Y-97534840D01*
X147704580Y-100034840D02*
X150204580Y-100034840D01*
X148404580Y-93014840D02*
X149904580Y-93014840D01*
X148404580Y-92014840D02*
X148404580Y-93014840D01*
X148404580Y-98734840D02*
X149904580Y-98734840D01*
X148404580Y-99734840D02*
X148404580Y-98734840D01*
X147594580Y-92514840D02*
X147594580Y-92014840D01*
X146384580Y-92514840D02*
X147594580Y-92514840D01*
X146384580Y-99234840D02*
X146384580Y-92514840D01*
X147594580Y-99234840D02*
X146384580Y-99234840D01*
X147594580Y-99734840D02*
X147594580Y-99234840D01*
X145884580Y-92014840D02*
X145884580Y-99734840D01*
X149904580Y-92014840D02*
X145884580Y-92014840D01*
X149904580Y-99734840D02*
X149904580Y-92014840D01*
X145884580Y-99734840D02*
X149904580Y-99734840D01*
X150204580Y-87484840D02*
X150204580Y-84984840D01*
X147704580Y-87484840D02*
X150204580Y-87484840D01*
X148404580Y-80464840D02*
X149904580Y-80464840D01*
X148404580Y-79464840D02*
X148404580Y-80464840D01*
X148404580Y-86184840D02*
X149904580Y-86184840D01*
X148404580Y-87184840D02*
X148404580Y-86184840D01*
X147594580Y-79964840D02*
X147594580Y-79464840D01*
X146384580Y-79964840D02*
X147594580Y-79964840D01*
X146384580Y-86684840D02*
X146384580Y-79964840D01*
X147594580Y-86684840D02*
X146384580Y-86684840D01*
X147594580Y-87184840D02*
X147594580Y-86684840D01*
X145884580Y-79464840D02*
X145884580Y-87184840D01*
X149904580Y-79464840D02*
X145884580Y-79464840D01*
X149904580Y-87184840D02*
X149904580Y-79464840D01*
X145884580Y-87184840D02*
X149904580Y-87184840D01*
X104644580Y-107954775D02*
X105144580Y-107954775D01*
X104894580Y-108204775D02*
X104894580Y-107704775D01*
X106085580Y-102799000D02*
X106653580Y-102799000D01*
X105851580Y-102839000D02*
X106887580Y-102839000D01*
X105692580Y-102879000D02*
X107046580Y-102879000D01*
X105564580Y-102919000D02*
X107174580Y-102919000D01*
X105454580Y-102959000D02*
X107284580Y-102959000D01*
X105358580Y-102999000D02*
X107380580Y-102999000D01*
X105271580Y-103039000D02*
X107467580Y-103039000D01*
X105191580Y-103079000D02*
X107547580Y-103079000D01*
X105118580Y-103119000D02*
X107620580Y-103119000D01*
X105050580Y-103159000D02*
X107688580Y-103159000D01*
X104986580Y-103199000D02*
X107752580Y-103199000D01*
X104926580Y-103239000D02*
X107812580Y-103239000D01*
X104869580Y-103279000D02*
X107869580Y-103279000D01*
X104815580Y-103319000D02*
X107923580Y-103319000D01*
X104764580Y-103359000D02*
X107974580Y-103359000D01*
X107409580Y-103399000D02*
X108022580Y-103399000D01*
X104716580Y-103399000D02*
X105329580Y-103399000D01*
X107409580Y-103439000D02*
X108068580Y-103439000D01*
X104670580Y-103439000D02*
X105329580Y-103439000D01*
X107409580Y-103479000D02*
X108112580Y-103479000D01*
X104626580Y-103479000D02*
X105329580Y-103479000D01*
X107409580Y-103519000D02*
X108154580Y-103519000D01*
X104584580Y-103519000D02*
X105329580Y-103519000D01*
X107409580Y-103559000D02*
X108195580Y-103559000D01*
X104543580Y-103559000D02*
X105329580Y-103559000D01*
X107409580Y-103599000D02*
X108233580Y-103599000D01*
X104505580Y-103599000D02*
X105329580Y-103599000D01*
X107409580Y-103639000D02*
X108270580Y-103639000D01*
X104468580Y-103639000D02*
X105329580Y-103639000D01*
X107409580Y-103679000D02*
X108306580Y-103679000D01*
X104432580Y-103679000D02*
X105329580Y-103679000D01*
X107409580Y-103719000D02*
X108340580Y-103719000D01*
X104398580Y-103719000D02*
X105329580Y-103719000D01*
X107409580Y-103759000D02*
X108373580Y-103759000D01*
X104365580Y-103759000D02*
X105329580Y-103759000D01*
X107409580Y-103799000D02*
X108404580Y-103799000D01*
X104334580Y-103799000D02*
X105329580Y-103799000D01*
X107409580Y-103839000D02*
X108434580Y-103839000D01*
X104304580Y-103839000D02*
X105329580Y-103839000D01*
X107409580Y-103879000D02*
X108464580Y-103879000D01*
X104274580Y-103879000D02*
X105329580Y-103879000D01*
X107409580Y-103919000D02*
X108491580Y-103919000D01*
X104247580Y-103919000D02*
X105329580Y-103919000D01*
X107409580Y-103959000D02*
X108518580Y-103959000D01*
X104220580Y-103959000D02*
X105329580Y-103959000D01*
X107409580Y-103999000D02*
X108544580Y-103999000D01*
X104194580Y-103999000D02*
X105329580Y-103999000D01*
X107409580Y-104039000D02*
X108569580Y-104039000D01*
X104169580Y-104039000D02*
X105329580Y-104039000D01*
X107409580Y-104079000D02*
X108593580Y-104079000D01*
X104145580Y-104079000D02*
X105329580Y-104079000D01*
X107409580Y-104119000D02*
X108616580Y-104119000D01*
X104122580Y-104119000D02*
X105329580Y-104119000D01*
X107409580Y-104159000D02*
X108637580Y-104159000D01*
X104101580Y-104159000D02*
X105329580Y-104159000D01*
X107409580Y-104199000D02*
X108659580Y-104199000D01*
X104079580Y-104199000D02*
X105329580Y-104199000D01*
X107409580Y-104239000D02*
X108679580Y-104239000D01*
X104059580Y-104239000D02*
X105329580Y-104239000D01*
X107409580Y-104279000D02*
X108698580Y-104279000D01*
X104040580Y-104279000D02*
X105329580Y-104279000D01*
X107409580Y-104319000D02*
X108717580Y-104319000D01*
X104021580Y-104319000D02*
X105329580Y-104319000D01*
X107409580Y-104359000D02*
X108734580Y-104359000D01*
X104004580Y-104359000D02*
X105329580Y-104359000D01*
X107409580Y-104399000D02*
X108751580Y-104399000D01*
X103987580Y-104399000D02*
X105329580Y-104399000D01*
X107409580Y-104439000D02*
X108767580Y-104439000D01*
X103971580Y-104439000D02*
X105329580Y-104439000D01*
X107409580Y-104479000D02*
X108783580Y-104479000D01*
X103955580Y-104479000D02*
X105329580Y-104479000D01*
X107409580Y-104519000D02*
X108797580Y-104519000D01*
X103941580Y-104519000D02*
X105329580Y-104519000D01*
X107409580Y-104559000D02*
X108811580Y-104559000D01*
X103927580Y-104559000D02*
X105329580Y-104559000D01*
X107409580Y-104599000D02*
X108824580Y-104599000D01*
X103914580Y-104599000D02*
X105329580Y-104599000D01*
X107409580Y-104639000D02*
X108837580Y-104639000D01*
X103901580Y-104639000D02*
X105329580Y-104639000D01*
X107409580Y-104679000D02*
X108849580Y-104679000D01*
X103889580Y-104679000D02*
X105329580Y-104679000D01*
X107409580Y-104720000D02*
X108860580Y-104720000D01*
X103878580Y-104720000D02*
X105329580Y-104720000D01*
X107409580Y-104760000D02*
X108870580Y-104760000D01*
X103868580Y-104760000D02*
X105329580Y-104760000D01*
X107409580Y-104800000D02*
X108880580Y-104800000D01*
X103858580Y-104800000D02*
X105329580Y-104800000D01*
X107409580Y-104840000D02*
X108889580Y-104840000D01*
X103849580Y-104840000D02*
X105329580Y-104840000D01*
X107409580Y-104880000D02*
X108897580Y-104880000D01*
X103841580Y-104880000D02*
X105329580Y-104880000D01*
X107409580Y-104920000D02*
X108905580Y-104920000D01*
X103833580Y-104920000D02*
X105329580Y-104920000D01*
X107409580Y-104960000D02*
X108912580Y-104960000D01*
X103826580Y-104960000D02*
X105329580Y-104960000D01*
X107409580Y-105000000D02*
X108919580Y-105000000D01*
X103819580Y-105000000D02*
X105329580Y-105000000D01*
X107409580Y-105040000D02*
X108925580Y-105040000D01*
X103813580Y-105040000D02*
X105329580Y-105040000D01*
X107409580Y-105080000D02*
X108930580Y-105080000D01*
X103808580Y-105080000D02*
X105329580Y-105080000D01*
X107409580Y-105120000D02*
X108934580Y-105120000D01*
X103804580Y-105120000D02*
X105329580Y-105120000D01*
X107409580Y-105160000D02*
X108938580Y-105160000D01*
X103800580Y-105160000D02*
X105329580Y-105160000D01*
X107409580Y-105200000D02*
X108942580Y-105200000D01*
X103796580Y-105200000D02*
X105329580Y-105200000D01*
X107409580Y-105240000D02*
X108945580Y-105240000D01*
X103793580Y-105240000D02*
X105329580Y-105240000D01*
X107409580Y-105280000D02*
X108947580Y-105280000D01*
X103791580Y-105280000D02*
X105329580Y-105280000D01*
X107409580Y-105320000D02*
X108948580Y-105320000D01*
X103790580Y-105320000D02*
X105329580Y-105320000D01*
X103789580Y-105360000D02*
X105329580Y-105360000D01*
X107409580Y-105360000D02*
X108949580Y-105360000D01*
X103789580Y-105400000D02*
X105329580Y-105400000D01*
X107409580Y-105400000D02*
X108949580Y-105400000D01*
X108989580Y-105400000D02*
G75*
G03X108989580Y-105400000I-2620000J0D01*
G01*
D10*
X132702380Y-89066666D02*
X132226190Y-89400000D01*
X132702380Y-89638095D02*
X131702380Y-89638095D01*
X131702380Y-89257142D01*
X131750000Y-89161904D01*
X131797619Y-89114285D01*
X131892857Y-89066666D01*
X132035714Y-89066666D01*
X132130952Y-89114285D01*
X132178571Y-89161904D01*
X132226190Y-89257142D01*
X132226190Y-89638095D01*
X131797619Y-88685714D02*
X131750000Y-88638095D01*
X131702380Y-88542857D01*
X131702380Y-88304761D01*
X131750000Y-88209523D01*
X131797619Y-88161904D01*
X131892857Y-88114285D01*
X131988095Y-88114285D01*
X132130952Y-88161904D01*
X132702380Y-88733333D01*
X132702380Y-88114285D01*
X132786380Y-86518666D02*
X132786380Y-87090095D01*
X132786380Y-86804380D02*
X131786380Y-86804380D01*
X131929238Y-86899619D01*
X132024476Y-86994857D01*
X132072095Y-87090095D01*
X131786380Y-85899619D02*
X131786380Y-85804380D01*
X131834000Y-85709142D01*
X131881619Y-85661523D01*
X131976857Y-85613904D01*
X132167333Y-85566285D01*
X132405428Y-85566285D01*
X132595904Y-85613904D01*
X132691142Y-85661523D01*
X132738761Y-85709142D01*
X132786380Y-85804380D01*
X132786380Y-85899619D01*
X132738761Y-85994857D01*
X132691142Y-86042476D01*
X132595904Y-86090095D01*
X132405428Y-86137714D01*
X132167333Y-86137714D01*
X131976857Y-86090095D01*
X131881619Y-86042476D01*
X131834000Y-85994857D01*
X131786380Y-85899619D01*
X131786380Y-84947238D02*
X131786380Y-84852000D01*
X131834000Y-84756761D01*
X131881619Y-84709142D01*
X131976857Y-84661523D01*
X132167333Y-84613904D01*
X132405428Y-84613904D01*
X132595904Y-84661523D01*
X132691142Y-84709142D01*
X132738761Y-84756761D01*
X132786380Y-84852000D01*
X132786380Y-84947238D01*
X132738761Y-85042476D01*
X132691142Y-85090095D01*
X132595904Y-85137714D01*
X132405428Y-85185333D01*
X132167333Y-85185333D01*
X131976857Y-85137714D01*
X131881619Y-85090095D01*
X131834000Y-85042476D01*
X131786380Y-84947238D01*
X126368095Y-91062380D02*
X126368095Y-91871904D01*
X126415714Y-91967142D01*
X126463333Y-92014761D01*
X126558571Y-92062380D01*
X126749047Y-92062380D01*
X126844285Y-92014761D01*
X126891904Y-91967142D01*
X126939523Y-91871904D01*
X126939523Y-91062380D01*
X127939523Y-92062380D02*
X127368095Y-92062380D01*
X127653809Y-92062380D02*
X127653809Y-91062380D01*
X127558571Y-91205238D01*
X127463333Y-91300476D01*
X127368095Y-91348095D01*
X137821904Y-71742380D02*
X137821904Y-70742380D01*
X138060000Y-70742380D01*
X138202857Y-70790000D01*
X138298095Y-70885238D01*
X138345714Y-70980476D01*
X138393333Y-71170952D01*
X138393333Y-71313809D01*
X138345714Y-71504285D01*
X138298095Y-71599523D01*
X138202857Y-71694761D01*
X138060000Y-71742380D01*
X137821904Y-71742380D01*
X139012380Y-70742380D02*
X139107619Y-70742380D01*
X139202857Y-70790000D01*
X139250476Y-70837619D01*
X139298095Y-70932857D01*
X139345714Y-71123333D01*
X139345714Y-71361428D01*
X139298095Y-71551904D01*
X139250476Y-71647142D01*
X139202857Y-71694761D01*
X139107619Y-71742380D01*
X139012380Y-71742380D01*
X138917142Y-71694761D01*
X138869523Y-71647142D01*
X138821904Y-71551904D01*
X138774285Y-71361428D01*
X138774285Y-71123333D01*
X138821904Y-70932857D01*
X138869523Y-70837619D01*
X138917142Y-70790000D01*
X139012380Y-70742380D01*
X137821904Y-74282380D02*
X137821904Y-73282380D01*
X138060000Y-73282380D01*
X138202857Y-73330000D01*
X138298095Y-73425238D01*
X138345714Y-73520476D01*
X138393333Y-73710952D01*
X138393333Y-73853809D01*
X138345714Y-74044285D01*
X138298095Y-74139523D01*
X138202857Y-74234761D01*
X138060000Y-74282380D01*
X137821904Y-74282380D01*
X139345714Y-74282380D02*
X138774285Y-74282380D01*
X139060000Y-74282380D02*
X139060000Y-73282380D01*
X138964761Y-73425238D01*
X138869523Y-73520476D01*
X138774285Y-73568095D01*
X137821904Y-76822380D02*
X137821904Y-75822380D01*
X138060000Y-75822380D01*
X138202857Y-75870000D01*
X138298095Y-75965238D01*
X138345714Y-76060476D01*
X138393333Y-76250952D01*
X138393333Y-76393809D01*
X138345714Y-76584285D01*
X138298095Y-76679523D01*
X138202857Y-76774761D01*
X138060000Y-76822380D01*
X137821904Y-76822380D01*
X138774285Y-75917619D02*
X138821904Y-75870000D01*
X138917142Y-75822380D01*
X139155238Y-75822380D01*
X139250476Y-75870000D01*
X139298095Y-75917619D01*
X139345714Y-76012857D01*
X139345714Y-76108095D01*
X139298095Y-76250952D01*
X138726666Y-76822380D01*
X139345714Y-76822380D01*
X137821904Y-79362380D02*
X137821904Y-78362380D01*
X138060000Y-78362380D01*
X138202857Y-78410000D01*
X138298095Y-78505238D01*
X138345714Y-78600476D01*
X138393333Y-78790952D01*
X138393333Y-78933809D01*
X138345714Y-79124285D01*
X138298095Y-79219523D01*
X138202857Y-79314761D01*
X138060000Y-79362380D01*
X137821904Y-79362380D01*
X138726666Y-78362380D02*
X139345714Y-78362380D01*
X139012380Y-78743333D01*
X139155238Y-78743333D01*
X139250476Y-78790952D01*
X139298095Y-78838571D01*
X139345714Y-78933809D01*
X139345714Y-79171904D01*
X139298095Y-79267142D01*
X139250476Y-79314761D01*
X139155238Y-79362380D01*
X138869523Y-79362380D01*
X138774285Y-79314761D01*
X138726666Y-79267142D01*
X137821904Y-81902380D02*
X137821904Y-80902380D01*
X138060000Y-80902380D01*
X138202857Y-80950000D01*
X138298095Y-81045238D01*
X138345714Y-81140476D01*
X138393333Y-81330952D01*
X138393333Y-81473809D01*
X138345714Y-81664285D01*
X138298095Y-81759523D01*
X138202857Y-81854761D01*
X138060000Y-81902380D01*
X137821904Y-81902380D01*
X139250476Y-81235714D02*
X139250476Y-81902380D01*
X139012380Y-80854761D02*
X138774285Y-81569047D01*
X139393333Y-81569047D01*
X137798095Y-83442380D02*
X138417142Y-83442380D01*
X138083809Y-83823333D01*
X138226666Y-83823333D01*
X138321904Y-83870952D01*
X138369523Y-83918571D01*
X138417142Y-84013809D01*
X138417142Y-84251904D01*
X138369523Y-84347142D01*
X138321904Y-84394761D01*
X138226666Y-84442380D01*
X137940952Y-84442380D01*
X137845714Y-84394761D01*
X137798095Y-84347142D01*
X138702857Y-83442380D02*
X139036190Y-84442380D01*
X139369523Y-83442380D01*
X138821904Y-86030000D02*
X138726666Y-85982380D01*
X138583809Y-85982380D01*
X138440952Y-86030000D01*
X138345714Y-86125238D01*
X138298095Y-86220476D01*
X138250476Y-86410952D01*
X138250476Y-86553809D01*
X138298095Y-86744285D01*
X138345714Y-86839523D01*
X138440952Y-86934761D01*
X138583809Y-86982380D01*
X138679047Y-86982380D01*
X138821904Y-86934761D01*
X138869523Y-86887142D01*
X138869523Y-86553809D01*
X138679047Y-86553809D01*
X137821904Y-89522380D02*
X137821904Y-88522380D01*
X138060000Y-88522380D01*
X138202857Y-88570000D01*
X138298095Y-88665238D01*
X138345714Y-88760476D01*
X138393333Y-88950952D01*
X138393333Y-89093809D01*
X138345714Y-89284285D01*
X138298095Y-89379523D01*
X138202857Y-89474761D01*
X138060000Y-89522380D01*
X137821904Y-89522380D01*
X139298095Y-88522380D02*
X138821904Y-88522380D01*
X138774285Y-88998571D01*
X138821904Y-88950952D01*
X138917142Y-88903333D01*
X139155238Y-88903333D01*
X139250476Y-88950952D01*
X139298095Y-88998571D01*
X139345714Y-89093809D01*
X139345714Y-89331904D01*
X139298095Y-89427142D01*
X139250476Y-89474761D01*
X139155238Y-89522380D01*
X138917142Y-89522380D01*
X138821904Y-89474761D01*
X138774285Y-89427142D01*
X137821904Y-92062380D02*
X137821904Y-91062380D01*
X138060000Y-91062380D01*
X138202857Y-91110000D01*
X138298095Y-91205238D01*
X138345714Y-91300476D01*
X138393333Y-91490952D01*
X138393333Y-91633809D01*
X138345714Y-91824285D01*
X138298095Y-91919523D01*
X138202857Y-92014761D01*
X138060000Y-92062380D01*
X137821904Y-92062380D01*
X139250476Y-91062380D02*
X139060000Y-91062380D01*
X138964761Y-91110000D01*
X138917142Y-91157619D01*
X138821904Y-91300476D01*
X138774285Y-91490952D01*
X138774285Y-91871904D01*
X138821904Y-91967142D01*
X138869523Y-92014761D01*
X138964761Y-92062380D01*
X139155238Y-92062380D01*
X139250476Y-92014761D01*
X139298095Y-91967142D01*
X139345714Y-91871904D01*
X139345714Y-91633809D01*
X139298095Y-91538571D01*
X139250476Y-91490952D01*
X139155238Y-91443333D01*
X138964761Y-91443333D01*
X138869523Y-91490952D01*
X138821904Y-91538571D01*
X138774285Y-91633809D01*
X137821904Y-94602380D02*
X137821904Y-93602380D01*
X138060000Y-93602380D01*
X138202857Y-93650000D01*
X138298095Y-93745238D01*
X138345714Y-93840476D01*
X138393333Y-94030952D01*
X138393333Y-94173809D01*
X138345714Y-94364285D01*
X138298095Y-94459523D01*
X138202857Y-94554761D01*
X138060000Y-94602380D01*
X137821904Y-94602380D01*
X138726666Y-93602380D02*
X139393333Y-93602380D01*
X138964761Y-94602380D01*
X137821904Y-97142380D02*
X137821904Y-96142380D01*
X138060000Y-96142380D01*
X138202857Y-96190000D01*
X138298095Y-96285238D01*
X138345714Y-96380476D01*
X138393333Y-96570952D01*
X138393333Y-96713809D01*
X138345714Y-96904285D01*
X138298095Y-96999523D01*
X138202857Y-97094761D01*
X138060000Y-97142380D01*
X137821904Y-97142380D01*
X138964761Y-96570952D02*
X138869523Y-96523333D01*
X138821904Y-96475714D01*
X138774285Y-96380476D01*
X138774285Y-96332857D01*
X138821904Y-96237619D01*
X138869523Y-96190000D01*
X138964761Y-96142380D01*
X139155238Y-96142380D01*
X139250476Y-96190000D01*
X139298095Y-96237619D01*
X139345714Y-96332857D01*
X139345714Y-96380476D01*
X139298095Y-96475714D01*
X139250476Y-96523333D01*
X139155238Y-96570952D01*
X138964761Y-96570952D01*
X138869523Y-96618571D01*
X138821904Y-96666190D01*
X138774285Y-96761428D01*
X138774285Y-96951904D01*
X138821904Y-97047142D01*
X138869523Y-97094761D01*
X138964761Y-97142380D01*
X139155238Y-97142380D01*
X139250476Y-97094761D01*
X139298095Y-97047142D01*
X139345714Y-96951904D01*
X139345714Y-96761428D01*
X139298095Y-96666190D01*
X139250476Y-96618571D01*
X139155238Y-96570952D01*
X138393333Y-99682380D02*
X138060000Y-99206190D01*
X137821904Y-99682380D02*
X137821904Y-98682380D01*
X138202857Y-98682380D01*
X138298095Y-98730000D01*
X138345714Y-98777619D01*
X138393333Y-98872857D01*
X138393333Y-99015714D01*
X138345714Y-99110952D01*
X138298095Y-99158571D01*
X138202857Y-99206190D01*
X137821904Y-99206190D01*
X138726666Y-98682380D02*
X139393333Y-99682380D01*
X139393333Y-98682380D02*
X138726666Y-99682380D01*
X137798095Y-101222380D02*
X138369523Y-101222380D01*
X138083809Y-102222380D02*
X138083809Y-101222380D01*
X138607619Y-101222380D02*
X139274285Y-102222380D01*
X139274285Y-101222380D02*
X138607619Y-102222380D01*
X138821904Y-103810000D02*
X138726666Y-103762380D01*
X138583809Y-103762380D01*
X138440952Y-103810000D01*
X138345714Y-103905238D01*
X138298095Y-104000476D01*
X138250476Y-104190952D01*
X138250476Y-104333809D01*
X138298095Y-104524285D01*
X138345714Y-104619523D01*
X138440952Y-104714761D01*
X138583809Y-104762380D01*
X138679047Y-104762380D01*
X138821904Y-104714761D01*
X138869523Y-104667142D01*
X138869523Y-104333809D01*
X138679047Y-104333809D01*
X137798095Y-106302380D02*
X138417142Y-106302380D01*
X138083809Y-106683333D01*
X138226666Y-106683333D01*
X138321904Y-106730952D01*
X138369523Y-106778571D01*
X138417142Y-106873809D01*
X138417142Y-107111904D01*
X138369523Y-107207142D01*
X138321904Y-107254761D01*
X138226666Y-107302380D01*
X137940952Y-107302380D01*
X137845714Y-107254761D01*
X137798095Y-107207142D01*
X138702857Y-106302380D02*
X139036190Y-107302380D01*
X139369523Y-106302380D01*
X114985714Y-71456666D02*
X115461904Y-71456666D01*
X114890476Y-71742380D02*
X115223809Y-70742380D01*
X115557142Y-71742380D01*
X116080952Y-70742380D02*
X116176190Y-70742380D01*
X116271428Y-70790000D01*
X116319047Y-70837619D01*
X116366666Y-70932857D01*
X116414285Y-71123333D01*
X116414285Y-71361428D01*
X116366666Y-71551904D01*
X116319047Y-71647142D01*
X116271428Y-71694761D01*
X116176190Y-71742380D01*
X116080952Y-71742380D01*
X115985714Y-71694761D01*
X115938095Y-71647142D01*
X115890476Y-71551904D01*
X115842857Y-71361428D01*
X115842857Y-71123333D01*
X115890476Y-70932857D01*
X115938095Y-70837619D01*
X115985714Y-70790000D01*
X116080952Y-70742380D01*
X115961904Y-73330000D02*
X115866666Y-73282380D01*
X115723809Y-73282380D01*
X115580952Y-73330000D01*
X115485714Y-73425238D01*
X115438095Y-73520476D01*
X115390476Y-73710952D01*
X115390476Y-73853809D01*
X115438095Y-74044285D01*
X115485714Y-74139523D01*
X115580952Y-74234761D01*
X115723809Y-74282380D01*
X115819047Y-74282380D01*
X115961904Y-74234761D01*
X116009523Y-74187142D01*
X116009523Y-73853809D01*
X115819047Y-73853809D01*
X114842857Y-75822380D02*
X115176190Y-76822380D01*
X115509523Y-75822380D01*
X115842857Y-75822380D02*
X115842857Y-76631904D01*
X115890476Y-76727142D01*
X115938095Y-76774761D01*
X116033333Y-76822380D01*
X116223809Y-76822380D01*
X116319047Y-76774761D01*
X116366666Y-76727142D01*
X116414285Y-76631904D01*
X116414285Y-75822380D01*
X114938095Y-79314761D02*
X115080952Y-79362380D01*
X115319047Y-79362380D01*
X115414285Y-79314761D01*
X115461904Y-79267142D01*
X115509523Y-79171904D01*
X115509523Y-79076666D01*
X115461904Y-78981428D01*
X115414285Y-78933809D01*
X115319047Y-78886190D01*
X115128571Y-78838571D01*
X115033333Y-78790952D01*
X114985714Y-78743333D01*
X114938095Y-78648095D01*
X114938095Y-78552857D01*
X114985714Y-78457619D01*
X115033333Y-78410000D01*
X115128571Y-78362380D01*
X115366666Y-78362380D01*
X115509523Y-78410000D01*
X115842857Y-78362380D02*
X116461904Y-78362380D01*
X116128571Y-78743333D01*
X116271428Y-78743333D01*
X116366666Y-78790952D01*
X116414285Y-78838571D01*
X116461904Y-78933809D01*
X116461904Y-79171904D01*
X116414285Y-79267142D01*
X116366666Y-79314761D01*
X116271428Y-79362380D01*
X115985714Y-79362380D01*
X115890476Y-79314761D01*
X115842857Y-79267142D01*
X114938095Y-81854761D02*
X115080952Y-81902380D01*
X115319047Y-81902380D01*
X115414285Y-81854761D01*
X115461904Y-81807142D01*
X115509523Y-81711904D01*
X115509523Y-81616666D01*
X115461904Y-81521428D01*
X115414285Y-81473809D01*
X115319047Y-81426190D01*
X115128571Y-81378571D01*
X115033333Y-81330952D01*
X114985714Y-81283333D01*
X114938095Y-81188095D01*
X114938095Y-81092857D01*
X114985714Y-80997619D01*
X115033333Y-80950000D01*
X115128571Y-80902380D01*
X115366666Y-80902380D01*
X115509523Y-80950000D01*
X115890476Y-80997619D02*
X115938095Y-80950000D01*
X116033333Y-80902380D01*
X116271428Y-80902380D01*
X116366666Y-80950000D01*
X116414285Y-80997619D01*
X116461904Y-81092857D01*
X116461904Y-81188095D01*
X116414285Y-81330952D01*
X115842857Y-81902380D01*
X116461904Y-81902380D01*
X114938095Y-84394761D02*
X115080952Y-84442380D01*
X115319047Y-84442380D01*
X115414285Y-84394761D01*
X115461904Y-84347142D01*
X115509523Y-84251904D01*
X115509523Y-84156666D01*
X115461904Y-84061428D01*
X115414285Y-84013809D01*
X115319047Y-83966190D01*
X115128571Y-83918571D01*
X115033333Y-83870952D01*
X114985714Y-83823333D01*
X114938095Y-83728095D01*
X114938095Y-83632857D01*
X114985714Y-83537619D01*
X115033333Y-83490000D01*
X115128571Y-83442380D01*
X115366666Y-83442380D01*
X115509523Y-83490000D01*
X116461904Y-84442380D02*
X115890476Y-84442380D01*
X116176190Y-84442380D02*
X116176190Y-83442380D01*
X116080952Y-83585238D01*
X115985714Y-83680476D01*
X115890476Y-83728095D01*
X114914285Y-86934761D02*
X115057142Y-86982380D01*
X115295238Y-86982380D01*
X115390476Y-86934761D01*
X115438095Y-86887142D01*
X115485714Y-86791904D01*
X115485714Y-86696666D01*
X115438095Y-86601428D01*
X115390476Y-86553809D01*
X115295238Y-86506190D01*
X115104761Y-86458571D01*
X115009523Y-86410952D01*
X114961904Y-86363333D01*
X114914285Y-86268095D01*
X114914285Y-86172857D01*
X114961904Y-86077619D01*
X115009523Y-86030000D01*
X115104761Y-85982380D01*
X115342857Y-85982380D01*
X115485714Y-86030000D01*
X116485714Y-86887142D02*
X116438095Y-86934761D01*
X116295238Y-86982380D01*
X116200000Y-86982380D01*
X116057142Y-86934761D01*
X115961904Y-86839523D01*
X115914285Y-86744285D01*
X115866666Y-86553809D01*
X115866666Y-86410952D01*
X115914285Y-86220476D01*
X115961904Y-86125238D01*
X116057142Y-86030000D01*
X116200000Y-85982380D01*
X116295238Y-85982380D01*
X116438095Y-86030000D01*
X116485714Y-86077619D01*
X114890476Y-89474761D02*
X115033333Y-89522380D01*
X115271428Y-89522380D01*
X115366666Y-89474761D01*
X115414285Y-89427142D01*
X115461904Y-89331904D01*
X115461904Y-89236666D01*
X115414285Y-89141428D01*
X115366666Y-89093809D01*
X115271428Y-89046190D01*
X115080952Y-88998571D01*
X114985714Y-88950952D01*
X114938095Y-88903333D01*
X114890476Y-88808095D01*
X114890476Y-88712857D01*
X114938095Y-88617619D01*
X114985714Y-88570000D01*
X115080952Y-88522380D01*
X115319047Y-88522380D01*
X115461904Y-88570000D01*
X116080952Y-88522380D02*
X116271428Y-88522380D01*
X116366666Y-88570000D01*
X116461904Y-88665238D01*
X116509523Y-88855714D01*
X116509523Y-89189047D01*
X116461904Y-89379523D01*
X116366666Y-89474761D01*
X116271428Y-89522380D01*
X116080952Y-89522380D01*
X115985714Y-89474761D01*
X115890476Y-89379523D01*
X115842857Y-89189047D01*
X115842857Y-88855714D01*
X115890476Y-88665238D01*
X115985714Y-88570000D01*
X116080952Y-88522380D01*
X114914285Y-92014761D02*
X115057142Y-92062380D01*
X115295238Y-92062380D01*
X115390476Y-92014761D01*
X115438095Y-91967142D01*
X115485714Y-91871904D01*
X115485714Y-91776666D01*
X115438095Y-91681428D01*
X115390476Y-91633809D01*
X115295238Y-91586190D01*
X115104761Y-91538571D01*
X115009523Y-91490952D01*
X114961904Y-91443333D01*
X114914285Y-91348095D01*
X114914285Y-91252857D01*
X114961904Y-91157619D01*
X115009523Y-91110000D01*
X115104761Y-91062380D01*
X115342857Y-91062380D01*
X115485714Y-91110000D01*
X115914285Y-92062380D02*
X115914285Y-91062380D01*
X116485714Y-92062380D02*
X116057142Y-91490952D01*
X116485714Y-91062380D02*
X115914285Y-91633809D01*
X115961904Y-93650000D02*
X115866666Y-93602380D01*
X115723809Y-93602380D01*
X115580952Y-93650000D01*
X115485714Y-93745238D01*
X115438095Y-93840476D01*
X115390476Y-94030952D01*
X115390476Y-94173809D01*
X115438095Y-94364285D01*
X115485714Y-94459523D01*
X115580952Y-94554761D01*
X115723809Y-94602380D01*
X115819047Y-94602380D01*
X115961904Y-94554761D01*
X116009523Y-94507142D01*
X116009523Y-94173809D01*
X115819047Y-94173809D01*
X114938095Y-96142380D02*
X115557142Y-96142380D01*
X115223809Y-96523333D01*
X115366666Y-96523333D01*
X115461904Y-96570952D01*
X115509523Y-96618571D01*
X115557142Y-96713809D01*
X115557142Y-96951904D01*
X115509523Y-97047142D01*
X115461904Y-97094761D01*
X115366666Y-97142380D01*
X115080952Y-97142380D01*
X114985714Y-97094761D01*
X114938095Y-97047142D01*
X115842857Y-96142380D02*
X116176190Y-97142380D01*
X116509523Y-96142380D01*
X114961904Y-99158571D02*
X115295238Y-99158571D01*
X115438095Y-99682380D02*
X114961904Y-99682380D01*
X114961904Y-98682380D01*
X115438095Y-98682380D01*
X115866666Y-99682380D02*
X115866666Y-98682380D01*
X116438095Y-99682380D01*
X116438095Y-98682380D01*
X115152380Y-102222380D02*
X114819047Y-101746190D01*
X114580952Y-102222380D02*
X114580952Y-101222380D01*
X114961904Y-101222380D01*
X115057142Y-101270000D01*
X115104761Y-101317619D01*
X115152380Y-101412857D01*
X115152380Y-101555714D01*
X115104761Y-101650952D01*
X115057142Y-101698571D01*
X114961904Y-101746190D01*
X114580952Y-101746190D01*
X115533333Y-102174761D02*
X115676190Y-102222380D01*
X115914285Y-102222380D01*
X116009523Y-102174761D01*
X116057142Y-102127142D01*
X116104761Y-102031904D01*
X116104761Y-101936666D01*
X116057142Y-101841428D01*
X116009523Y-101793809D01*
X115914285Y-101746190D01*
X115723809Y-101698571D01*
X115628571Y-101650952D01*
X115580952Y-101603333D01*
X115533333Y-101508095D01*
X115533333Y-101412857D01*
X115580952Y-101317619D01*
X115628571Y-101270000D01*
X115723809Y-101222380D01*
X115961904Y-101222380D01*
X116104761Y-101270000D01*
X116390476Y-101222380D02*
X116961904Y-101222380D01*
X116676190Y-102222380D02*
X116676190Y-101222380D01*
X115961904Y-103810000D02*
X115866666Y-103762380D01*
X115723809Y-103762380D01*
X115580952Y-103810000D01*
X115485714Y-103905238D01*
X115438095Y-104000476D01*
X115390476Y-104190952D01*
X115390476Y-104333809D01*
X115438095Y-104524285D01*
X115485714Y-104619523D01*
X115580952Y-104714761D01*
X115723809Y-104762380D01*
X115819047Y-104762380D01*
X115961904Y-104714761D01*
X116009523Y-104667142D01*
X116009523Y-104333809D01*
X115819047Y-104333809D01*
X114604761Y-106302380D02*
X114938095Y-107302380D01*
X115271428Y-106302380D01*
X115604761Y-107302380D02*
X115604761Y-106302380D01*
X116080952Y-107302380D02*
X116080952Y-106302380D01*
X116652380Y-107302380D01*
X116652380Y-106302380D01*
X132786380Y-103036666D02*
X132310190Y-103370000D01*
X132786380Y-103608095D02*
X131786380Y-103608095D01*
X131786380Y-103227142D01*
X131834000Y-103131904D01*
X131881619Y-103084285D01*
X131976857Y-103036666D01*
X132119714Y-103036666D01*
X132214952Y-103084285D01*
X132262571Y-103131904D01*
X132310190Y-103227142D01*
X132310190Y-103608095D01*
X132786380Y-102084285D02*
X132786380Y-102655714D01*
X132786380Y-102370000D02*
X131786380Y-102370000D01*
X131929238Y-102465238D01*
X132024476Y-102560476D01*
X132072095Y-102655714D01*
X132786380Y-100671238D02*
X132786380Y-101242666D01*
X132786380Y-100956952D02*
X131786380Y-100956952D01*
X131929238Y-101052190D01*
X132024476Y-101147428D01*
X132072095Y-101242666D01*
X131786380Y-100052190D02*
X131786380Y-99956952D01*
X131834000Y-99861714D01*
X131881619Y-99814095D01*
X131976857Y-99766476D01*
X132167333Y-99718857D01*
X132405428Y-99718857D01*
X132595904Y-99766476D01*
X132691142Y-99814095D01*
X132738761Y-99861714D01*
X132786380Y-99956952D01*
X132786380Y-100052190D01*
X132738761Y-100147428D01*
X132691142Y-100195047D01*
X132595904Y-100242666D01*
X132405428Y-100290285D01*
X132167333Y-100290285D01*
X131976857Y-100242666D01*
X131881619Y-100195047D01*
X131834000Y-100147428D01*
X131786380Y-100052190D01*
X132786380Y-99290285D02*
X131786380Y-99290285D01*
X132405428Y-99195047D02*
X132786380Y-98909333D01*
X132119714Y-98909333D02*
X132500666Y-99290285D01*
X131349761Y-94527619D02*
X131254523Y-94480000D01*
X131159285Y-94384761D01*
X131016428Y-94241904D01*
X130921190Y-94194285D01*
X130825952Y-94194285D01*
X130873571Y-94432380D02*
X130778333Y-94384761D01*
X130683095Y-94289523D01*
X130635476Y-94099047D01*
X130635476Y-93765714D01*
X130683095Y-93575238D01*
X130778333Y-93480000D01*
X130873571Y-93432380D01*
X131064047Y-93432380D01*
X131159285Y-93480000D01*
X131254523Y-93575238D01*
X131302142Y-93765714D01*
X131302142Y-94099047D01*
X131254523Y-94289523D01*
X131159285Y-94384761D01*
X131064047Y-94432380D01*
X130873571Y-94432380D01*
X132254523Y-94432380D02*
X131683095Y-94432380D01*
X131968809Y-94432380D02*
X131968809Y-93432380D01*
X131873571Y-93575238D01*
X131778333Y-93670476D01*
X131683095Y-93718095D01*
X120482219Y-101830119D02*
X120386980Y-101782500D01*
X120291742Y-101687261D01*
X120148885Y-101544404D01*
X120053647Y-101496785D01*
X119958409Y-101496785D01*
X120006028Y-101734880D02*
X119910790Y-101687261D01*
X119815552Y-101592023D01*
X119767933Y-101401547D01*
X119767933Y-101068214D01*
X119815552Y-100877738D01*
X119910790Y-100782500D01*
X120006028Y-100734880D01*
X120196504Y-100734880D01*
X120291742Y-100782500D01*
X120386980Y-100877738D01*
X120434600Y-101068214D01*
X120434600Y-101401547D01*
X120386980Y-101592023D01*
X120291742Y-101687261D01*
X120196504Y-101734880D01*
X120006028Y-101734880D01*
X120625076Y-101830119D02*
X121386980Y-101830119D01*
X121625076Y-101734880D02*
X121625076Y-100734880D01*
X122196504Y-101734880D01*
X122196504Y-100734880D01*
X122672695Y-101734880D02*
X122672695Y-100734880D01*
X123006028Y-101449166D01*
X123339361Y-100734880D01*
X123339361Y-101734880D01*
X124006028Y-100734880D02*
X124196504Y-100734880D01*
X124291742Y-100782500D01*
X124386980Y-100877738D01*
X124434600Y-101068214D01*
X124434600Y-101401547D01*
X124386980Y-101592023D01*
X124291742Y-101687261D01*
X124196504Y-101734880D01*
X124006028Y-101734880D01*
X123910790Y-101687261D01*
X123815552Y-101592023D01*
X123767933Y-101401547D01*
X123767933Y-101068214D01*
X123815552Y-100877738D01*
X123910790Y-100782500D01*
X124006028Y-100734880D01*
X124815552Y-101687261D02*
X124958409Y-101734880D01*
X125196504Y-101734880D01*
X125291742Y-101687261D01*
X125339361Y-101639642D01*
X125386980Y-101544404D01*
X125386980Y-101449166D01*
X125339361Y-101353928D01*
X125291742Y-101306309D01*
X125196504Y-101258690D01*
X125006028Y-101211071D01*
X124910790Y-101163452D01*
X124863171Y-101115833D01*
X124815552Y-101020595D01*
X124815552Y-100925357D01*
X124863171Y-100830119D01*
X124910790Y-100782500D01*
X125006028Y-100734880D01*
X125244123Y-100734880D01*
X125386980Y-100782500D01*
X125577457Y-101830119D02*
X126339361Y-101830119D01*
X127101266Y-100782500D02*
X127006028Y-100734880D01*
X126863171Y-100734880D01*
X126720314Y-100782500D01*
X126625076Y-100877738D01*
X126577457Y-100972976D01*
X126529838Y-101163452D01*
X126529838Y-101306309D01*
X126577457Y-101496785D01*
X126625076Y-101592023D01*
X126720314Y-101687261D01*
X126863171Y-101734880D01*
X126958409Y-101734880D01*
X127101266Y-101687261D01*
X127148885Y-101639642D01*
X127148885Y-101306309D01*
X126958409Y-101306309D01*
X127577457Y-101734880D02*
X127577457Y-100734880D01*
X127815552Y-100734880D01*
X127958409Y-100782500D01*
X128053647Y-100877738D01*
X128101266Y-100972976D01*
X128148885Y-101163452D01*
X128148885Y-101306309D01*
X128101266Y-101496785D01*
X128053647Y-101592023D01*
X127958409Y-101687261D01*
X127815552Y-101734880D01*
X127577457Y-101734880D01*
X128529838Y-101687261D02*
X128672695Y-101734880D01*
X128910790Y-101734880D01*
X129006028Y-101687261D01*
X129053647Y-101639642D01*
X129101266Y-101544404D01*
X129101266Y-101449166D01*
X129053647Y-101353928D01*
X129006028Y-101306309D01*
X128910790Y-101258690D01*
X128720314Y-101211071D01*
X128625076Y-101163452D01*
X128577457Y-101115833D01*
X128529838Y-101020595D01*
X128529838Y-100925357D01*
X128577457Y-100830119D01*
X128625076Y-100782500D01*
X128720314Y-100734880D01*
X128958409Y-100734880D01*
X129101266Y-100782500D01*
X108921960Y-97933333D02*
X109636246Y-97933333D01*
X109779103Y-97980952D01*
X109874341Y-98076190D01*
X109921960Y-98219047D01*
X109921960Y-98314285D01*
X109921960Y-96933333D02*
X109921960Y-97504761D01*
X109921960Y-97219047D02*
X108921960Y-97219047D01*
X109064818Y-97314285D01*
X109160056Y-97409523D01*
X109207675Y-97504761D01*
X102721960Y-100361904D02*
X103436246Y-100361904D01*
X103579103Y-100409523D01*
X103674341Y-100504761D01*
X103721960Y-100647619D01*
X103721960Y-100742857D01*
X103721960Y-99457142D02*
X103198151Y-99457142D01*
X103102913Y-99504761D01*
X103055294Y-99600000D01*
X103055294Y-99790476D01*
X103102913Y-99885714D01*
X103674341Y-99457142D02*
X103721960Y-99552380D01*
X103721960Y-99790476D01*
X103674341Y-99885714D01*
X103579103Y-99933333D01*
X103483865Y-99933333D01*
X103388627Y-99885714D01*
X103341008Y-99790476D01*
X103341008Y-99552380D01*
X103293389Y-99457142D01*
X103674341Y-98552380D02*
X103721960Y-98647619D01*
X103721960Y-98838095D01*
X103674341Y-98933333D01*
X103626722Y-98980952D01*
X103531484Y-99028571D01*
X103245770Y-99028571D01*
X103150532Y-98980952D01*
X103102913Y-98933333D01*
X103055294Y-98838095D01*
X103055294Y-98647619D01*
X103102913Y-98552380D01*
X103721960Y-98123809D02*
X102721960Y-98123809D01*
X103341008Y-98028571D02*
X103721960Y-97742857D01*
X103055294Y-97742857D02*
X103436246Y-98123809D01*
X103341008Y-97314285D02*
X103341008Y-96552380D01*
X103721960Y-96076190D02*
X102721960Y-96076190D01*
X102721960Y-95838095D01*
X102769580Y-95695238D01*
X102864818Y-95600000D01*
X102960056Y-95552380D01*
X103150532Y-95504761D01*
X103293389Y-95504761D01*
X103483865Y-95552380D01*
X103579103Y-95600000D01*
X103674341Y-95695238D01*
X103721960Y-95838095D01*
X103721960Y-96076190D01*
X103626722Y-94504761D02*
X103674341Y-94552380D01*
X103721960Y-94695238D01*
X103721960Y-94790476D01*
X103674341Y-94933333D01*
X103579103Y-95028571D01*
X103483865Y-95076190D01*
X103293389Y-95123809D01*
X103150532Y-95123809D01*
X102960056Y-95076190D01*
X102864818Y-95028571D01*
X102769580Y-94933333D01*
X102721960Y-94790476D01*
X102721960Y-94695238D01*
X102769580Y-94552380D01*
X102817199Y-94504761D01*
X109921960Y-77938095D02*
X108921960Y-77938095D01*
X108921960Y-77700000D01*
X108969580Y-77557142D01*
X109064818Y-77461904D01*
X109160056Y-77414285D01*
X109350532Y-77366666D01*
X109493389Y-77366666D01*
X109683865Y-77414285D01*
X109779103Y-77461904D01*
X109874341Y-77557142D01*
X109921960Y-77700000D01*
X109921960Y-77938095D01*
X108921960Y-77033333D02*
X108921960Y-76414285D01*
X109302913Y-76747619D01*
X109302913Y-76604761D01*
X109350532Y-76509523D01*
X109398151Y-76461904D01*
X109493389Y-76414285D01*
X109731484Y-76414285D01*
X109826722Y-76461904D01*
X109874341Y-76509523D01*
X109921960Y-76604761D01*
X109921960Y-76890476D01*
X109874341Y-76985714D01*
X109826722Y-77033333D01*
D12*
X103495770Y-81832141D02*
X102995770Y-81832141D01*
X102995770Y-81641665D01*
X103019580Y-81594046D01*
X103043389Y-81570236D01*
X103091008Y-81546427D01*
X103162437Y-81546427D01*
X103210056Y-81570236D01*
X103233865Y-81594046D01*
X103257675Y-81641665D01*
X103257675Y-81832141D01*
X102995770Y-81236903D02*
X102995770Y-81141665D01*
X103019580Y-81094046D01*
X103067199Y-81046427D01*
X103162437Y-81022617D01*
X103329103Y-81022617D01*
X103424341Y-81046427D01*
X103471960Y-81094046D01*
X103495770Y-81141665D01*
X103495770Y-81236903D01*
X103471960Y-81284522D01*
X103424341Y-81332141D01*
X103329103Y-81355951D01*
X103162437Y-81355951D01*
X103067199Y-81332141D01*
X103019580Y-81284522D01*
X102995770Y-81236903D01*
X102995770Y-80855951D02*
X103495770Y-80736903D01*
X103138627Y-80641665D01*
X103495770Y-80546427D01*
X102995770Y-80427379D01*
X103233865Y-80236903D02*
X103233865Y-80070236D01*
X103495770Y-79998808D02*
X103495770Y-80236903D01*
X102995770Y-80236903D01*
X102995770Y-79998808D01*
X103495770Y-79498808D02*
X103257675Y-79665474D01*
X103495770Y-79784522D02*
X102995770Y-79784522D01*
X102995770Y-79594046D01*
X103019580Y-79546427D01*
X103043389Y-79522617D01*
X103091008Y-79498808D01*
X103162437Y-79498808D01*
X103210056Y-79522617D01*
X103233865Y-79546427D01*
X103257675Y-79594046D01*
X103257675Y-79784522D01*
X103495770Y-78665474D02*
X103495770Y-78903570D01*
X102995770Y-78903570D01*
X103233865Y-78498808D02*
X103233865Y-78332141D01*
X103495770Y-78260713D02*
X103495770Y-78498808D01*
X102995770Y-78498808D01*
X102995770Y-78260713D01*
X103495770Y-78046427D02*
X102995770Y-78046427D01*
X102995770Y-77927379D01*
X103019580Y-77855951D01*
X103067199Y-77808332D01*
X103114818Y-77784522D01*
X103210056Y-77760713D01*
X103281484Y-77760713D01*
X103376722Y-77784522D01*
X103424341Y-77808332D01*
X103471960Y-77855951D01*
X103495770Y-77927379D01*
X103495770Y-78046427D01*
X103686246Y-77022617D02*
X103662437Y-77046427D01*
X103591008Y-77094046D01*
X103543389Y-77117855D01*
X103471960Y-77141665D01*
X103352913Y-77165474D01*
X103257675Y-77165474D01*
X103138627Y-77141665D01*
X103067199Y-77117855D01*
X103019580Y-77094046D01*
X102948151Y-77046427D01*
X102924341Y-77022617D01*
X102995770Y-76879760D02*
X102995770Y-76570236D01*
X103186246Y-76736903D01*
X103186246Y-76665474D01*
X103210056Y-76617855D01*
X103233865Y-76594046D01*
X103281484Y-76570236D01*
X103400532Y-76570236D01*
X103448151Y-76594046D01*
X103471960Y-76617855D01*
X103495770Y-76665474D01*
X103495770Y-76808332D01*
X103471960Y-76855951D01*
X103448151Y-76879760D01*
X103495770Y-76355951D02*
X103162437Y-76355951D01*
X103210056Y-76355951D02*
X103186246Y-76332141D01*
X103162437Y-76284522D01*
X103162437Y-76213094D01*
X103186246Y-76165474D01*
X103233865Y-76141665D01*
X103495770Y-76141665D01*
X103233865Y-76141665D02*
X103186246Y-76117855D01*
X103162437Y-76070236D01*
X103162437Y-75998808D01*
X103186246Y-75951189D01*
X103233865Y-75927379D01*
X103495770Y-75927379D01*
X103495770Y-75689284D02*
X103162437Y-75689284D01*
X103210056Y-75689284D02*
X103186246Y-75665474D01*
X103162437Y-75617855D01*
X103162437Y-75546427D01*
X103186246Y-75498808D01*
X103233865Y-75474998D01*
X103495770Y-75474998D01*
X103233865Y-75474998D02*
X103186246Y-75451189D01*
X103162437Y-75403570D01*
X103162437Y-75332141D01*
X103186246Y-75284522D01*
X103233865Y-75260713D01*
X103495770Y-75260713D01*
X103495770Y-74355951D02*
X103257675Y-74522617D01*
X103495770Y-74641665D02*
X102995770Y-74641665D01*
X102995770Y-74451189D01*
X103019580Y-74403570D01*
X103043389Y-74379760D01*
X103091008Y-74355951D01*
X103162437Y-74355951D01*
X103210056Y-74379760D01*
X103233865Y-74403570D01*
X103257675Y-74451189D01*
X103257675Y-74641665D01*
X103233865Y-74141665D02*
X103233865Y-73974998D01*
X103495770Y-73903570D02*
X103495770Y-74141665D01*
X102995770Y-74141665D01*
X102995770Y-73903570D01*
X103495770Y-73689284D02*
X102995770Y-73689284D01*
X102995770Y-73570236D01*
X103019580Y-73498808D01*
X103067199Y-73451189D01*
X103114818Y-73427379D01*
X103210056Y-73403570D01*
X103281484Y-73403570D01*
X103376722Y-73427379D01*
X103424341Y-73451189D01*
X103471960Y-73498808D01*
X103495770Y-73570236D01*
X103495770Y-73689284D01*
X103686246Y-73236903D02*
X103662437Y-73213094D01*
X103591008Y-73165474D01*
X103543389Y-73141665D01*
X103471960Y-73117855D01*
X103352913Y-73094046D01*
X103257675Y-73094046D01*
X103138627Y-73117855D01*
X103067199Y-73141665D01*
X103019580Y-73165474D01*
X102948151Y-73213094D01*
X102924341Y-73236903D01*
D10*
X145246960Y-96612935D02*
X144246960Y-96612935D01*
X144246960Y-96374840D01*
X144294580Y-96231982D01*
X144389818Y-96136744D01*
X144485056Y-96089125D01*
X144675532Y-96041506D01*
X144818389Y-96041506D01*
X145008865Y-96089125D01*
X145104103Y-96136744D01*
X145199341Y-96231982D01*
X145246960Y-96374840D01*
X145246960Y-96612935D01*
X144342199Y-95660554D02*
X144294580Y-95612935D01*
X144246960Y-95517697D01*
X144246960Y-95279601D01*
X144294580Y-95184363D01*
X144342199Y-95136744D01*
X144437437Y-95089125D01*
X144532675Y-95089125D01*
X144675532Y-95136744D01*
X145246960Y-95708173D01*
X145246960Y-95089125D01*
D12*
X151333865Y-100017697D02*
X150976722Y-100267697D01*
X151333865Y-100446268D02*
X150583865Y-100446268D01*
X150583865Y-100160554D01*
X150619580Y-100089125D01*
X150655294Y-100053411D01*
X150726722Y-100017697D01*
X150833865Y-100017697D01*
X150905294Y-100053411D01*
X150941008Y-100089125D01*
X150976722Y-100160554D01*
X150976722Y-100446268D01*
X151333865Y-99696268D02*
X150833865Y-99696268D01*
X150583865Y-99696268D02*
X150619580Y-99731982D01*
X150655294Y-99696268D01*
X150619580Y-99660554D01*
X150583865Y-99696268D01*
X150655294Y-99696268D01*
X150833865Y-99339125D02*
X151333865Y-99339125D01*
X150905294Y-99339125D02*
X150869580Y-99303411D01*
X150833865Y-99231982D01*
X150833865Y-99124840D01*
X150869580Y-99053411D01*
X150941008Y-99017697D01*
X151333865Y-99017697D01*
X150833865Y-98339125D02*
X151441008Y-98339125D01*
X151512437Y-98374840D01*
X151548151Y-98410554D01*
X151583865Y-98481982D01*
X151583865Y-98589125D01*
X151548151Y-98660554D01*
X151298151Y-98339125D02*
X151333865Y-98410554D01*
X151333865Y-98553411D01*
X151298151Y-98624840D01*
X151262437Y-98660554D01*
X151191008Y-98696268D01*
X150976722Y-98696268D01*
X150905294Y-98660554D01*
X150869580Y-98624840D01*
X150833865Y-98553411D01*
X150833865Y-98410554D01*
X150869580Y-98339125D01*
X151333865Y-97053411D02*
X151333865Y-97410554D01*
X150583865Y-97410554D01*
X150941008Y-96803411D02*
X150941008Y-96553411D01*
X151333865Y-96446268D02*
X151333865Y-96803411D01*
X150583865Y-96803411D01*
X150583865Y-96446268D01*
X151333865Y-96124840D02*
X150583865Y-96124840D01*
X150583865Y-95946268D01*
X150619580Y-95839125D01*
X150691008Y-95767697D01*
X150762437Y-95731982D01*
X150905294Y-95696268D01*
X151012437Y-95696268D01*
X151155294Y-95731982D01*
X151226722Y-95767697D01*
X151298151Y-95839125D01*
X151333865Y-95946268D01*
X151333865Y-96124840D01*
X150833865Y-94803411D02*
X151048151Y-94231982D01*
X151262437Y-94803411D01*
X150583865Y-93374840D02*
X150583865Y-92910554D01*
X150869580Y-93160554D01*
X150869580Y-93053411D01*
X150905294Y-92981982D01*
X150941008Y-92946268D01*
X151012437Y-92910554D01*
X151191008Y-92910554D01*
X151262437Y-92946268D01*
X151298151Y-92981982D01*
X151333865Y-93053411D01*
X151333865Y-93267697D01*
X151298151Y-93339125D01*
X151262437Y-93374840D01*
X151262437Y-92589125D02*
X151298151Y-92553411D01*
X151333865Y-92589125D01*
X151298151Y-92624840D01*
X151262437Y-92589125D01*
X151333865Y-92589125D01*
X150583865Y-92303411D02*
X150583865Y-91839125D01*
X150869580Y-92089125D01*
X150869580Y-91981982D01*
X150905294Y-91910554D01*
X150941008Y-91874840D01*
X151012437Y-91839125D01*
X151191008Y-91839125D01*
X151262437Y-91874840D01*
X151298151Y-91910554D01*
X151333865Y-91981982D01*
X151333865Y-92196268D01*
X151298151Y-92267697D01*
X151262437Y-92303411D01*
X150833865Y-91589125D02*
X151333865Y-91410554D01*
X150833865Y-91231982D01*
D10*
X145246960Y-84062935D02*
X144246960Y-84062935D01*
X144246960Y-83824840D01*
X144294580Y-83681982D01*
X144389818Y-83586744D01*
X144485056Y-83539125D01*
X144675532Y-83491506D01*
X144818389Y-83491506D01*
X145008865Y-83539125D01*
X145104103Y-83586744D01*
X145199341Y-83681982D01*
X145246960Y-83824840D01*
X145246960Y-84062935D01*
X145246960Y-82539125D02*
X145246960Y-83110554D01*
X145246960Y-82824840D02*
X144246960Y-82824840D01*
X144389818Y-82920078D01*
X144485056Y-83015316D01*
X144532675Y-83110554D01*
D12*
X151333865Y-89306982D02*
X150976722Y-89556982D01*
X151333865Y-89735554D02*
X150583865Y-89735554D01*
X150583865Y-89449840D01*
X150619580Y-89378411D01*
X150655294Y-89342697D01*
X150726722Y-89306982D01*
X150833865Y-89306982D01*
X150905294Y-89342697D01*
X150941008Y-89378411D01*
X150976722Y-89449840D01*
X150976722Y-89735554D01*
X151333865Y-88985554D02*
X150833865Y-88985554D01*
X150583865Y-88985554D02*
X150619580Y-89021268D01*
X150655294Y-88985554D01*
X150619580Y-88949840D01*
X150583865Y-88985554D01*
X150655294Y-88985554D01*
X150833865Y-88628411D02*
X151333865Y-88628411D01*
X150905294Y-88628411D02*
X150869580Y-88592697D01*
X150833865Y-88521268D01*
X150833865Y-88414125D01*
X150869580Y-88342697D01*
X150941008Y-88306982D01*
X151333865Y-88306982D01*
X150833865Y-87628411D02*
X151441008Y-87628411D01*
X151512437Y-87664125D01*
X151548151Y-87699840D01*
X151583865Y-87771268D01*
X151583865Y-87878411D01*
X151548151Y-87949840D01*
X151298151Y-87628411D02*
X151333865Y-87699840D01*
X151333865Y-87842697D01*
X151298151Y-87914125D01*
X151262437Y-87949840D01*
X151191008Y-87985554D01*
X150976722Y-87985554D01*
X150905294Y-87949840D01*
X150869580Y-87914125D01*
X150833865Y-87842697D01*
X150833865Y-87699840D01*
X150869580Y-87628411D01*
X151333865Y-86342697D02*
X151333865Y-86699840D01*
X150583865Y-86699840D01*
X150941008Y-86092697D02*
X150941008Y-85842697D01*
X151333865Y-85735554D02*
X151333865Y-86092697D01*
X150583865Y-86092697D01*
X150583865Y-85735554D01*
X151333865Y-85414125D02*
X150583865Y-85414125D01*
X150583865Y-85235554D01*
X150619580Y-85128411D01*
X150691008Y-85056982D01*
X150762437Y-85021268D01*
X150905294Y-84985554D01*
X151012437Y-84985554D01*
X151155294Y-85021268D01*
X151226722Y-85056982D01*
X151298151Y-85128411D01*
X151333865Y-85235554D01*
X151333865Y-85414125D01*
X151619580Y-83878411D02*
X151583865Y-83914125D01*
X151476722Y-83985554D01*
X151405294Y-84021268D01*
X151298151Y-84056982D01*
X151119580Y-84092697D01*
X150976722Y-84092697D01*
X150798151Y-84056982D01*
X150691008Y-84021268D01*
X150619580Y-83985554D01*
X150512437Y-83914125D01*
X150476722Y-83878411D01*
X150583865Y-83235554D02*
X150583865Y-83592697D01*
X150941008Y-83628411D01*
X150905294Y-83592697D01*
X150869580Y-83521268D01*
X150869580Y-83342697D01*
X150905294Y-83271268D01*
X150941008Y-83235554D01*
X151012437Y-83199840D01*
X151191008Y-83199840D01*
X151262437Y-83235554D01*
X151298151Y-83271268D01*
X151333865Y-83342697D01*
X151333865Y-83521268D01*
X151298151Y-83592697D01*
X151262437Y-83628411D01*
X151333865Y-82878411D02*
X150833865Y-82878411D01*
X150905294Y-82878411D02*
X150869580Y-82842697D01*
X150833865Y-82771268D01*
X150833865Y-82664125D01*
X150869580Y-82592697D01*
X150941008Y-82556982D01*
X151333865Y-82556982D01*
X150941008Y-82556982D02*
X150869580Y-82521268D01*
X150833865Y-82449840D01*
X150833865Y-82342697D01*
X150869580Y-82271268D01*
X150941008Y-82235554D01*
X151333865Y-82235554D01*
X151333865Y-81878411D02*
X150833865Y-81878411D01*
X150905294Y-81878411D02*
X150869580Y-81842697D01*
X150833865Y-81771268D01*
X150833865Y-81664125D01*
X150869580Y-81592697D01*
X150941008Y-81556982D01*
X151333865Y-81556982D01*
X150941008Y-81556982D02*
X150869580Y-81521268D01*
X150833865Y-81449840D01*
X150833865Y-81342697D01*
X150869580Y-81271268D01*
X150941008Y-81235554D01*
X151333865Y-81235554D01*
X150583865Y-80378411D02*
X151333865Y-80199840D01*
X150798151Y-80056982D01*
X151333865Y-79914125D01*
X150583865Y-79735554D01*
X151333865Y-79449840D02*
X150583865Y-79449840D01*
X150941008Y-79449840D02*
X150941008Y-79021268D01*
X151333865Y-79021268D02*
X150583865Y-79021268D01*
X151333865Y-78664125D02*
X150583865Y-78664125D01*
X150583865Y-78414125D02*
X150583865Y-77985554D01*
X151333865Y-78199840D02*
X150583865Y-78199840D01*
X150941008Y-77735554D02*
X150941008Y-77485554D01*
X151333865Y-77378411D02*
X151333865Y-77735554D01*
X150583865Y-77735554D01*
X150583865Y-77378411D01*
X151619580Y-77128411D02*
X151583865Y-77092697D01*
X151476722Y-77021268D01*
X151405294Y-76985554D01*
X151298151Y-76949840D01*
X151119580Y-76914125D01*
X150976722Y-76914125D01*
X150798151Y-76949840D01*
X150691008Y-76985554D01*
X150619580Y-77021268D01*
X150512437Y-77092697D01*
X150476722Y-77128411D01*
D10*
X110157142Y-108119442D02*
X110204761Y-108167061D01*
X110252380Y-108309918D01*
X110252380Y-108405156D01*
X110204761Y-108548014D01*
X110109523Y-108643252D01*
X110014285Y-108690871D01*
X109823809Y-108738490D01*
X109680952Y-108738490D01*
X109490476Y-108690871D01*
X109395238Y-108643252D01*
X109300000Y-108548014D01*
X109252380Y-108405156D01*
X109252380Y-108309918D01*
X109300000Y-108167061D01*
X109347619Y-108119442D01*
X110252380Y-107167061D02*
X110252380Y-107738490D01*
X110252380Y-107452776D02*
X109252380Y-107452776D01*
X109395238Y-107548014D01*
X109490476Y-107643252D01*
X109538095Y-107738490D01*
X109643919Y-104681185D02*
X109596300Y-104633566D01*
X109548680Y-104538328D01*
X109548680Y-104300233D01*
X109596300Y-104204995D01*
X109643919Y-104157376D01*
X109739157Y-104109757D01*
X109834395Y-104109757D01*
X109977252Y-104157376D01*
X110548680Y-104728804D01*
X110548680Y-104109757D01*
X109643919Y-103728804D02*
X109596300Y-103681185D01*
X109548680Y-103585947D01*
X109548680Y-103347852D01*
X109596300Y-103252614D01*
X109643919Y-103204995D01*
X109739157Y-103157376D01*
X109834395Y-103157376D01*
X109977252Y-103204995D01*
X110548680Y-103776423D01*
X110548680Y-103157376D01*
X109882014Y-102300233D02*
X110548680Y-102300233D01*
X109882014Y-102728804D02*
X110405823Y-102728804D01*
X110501061Y-102681185D01*
X110548680Y-102585947D01*
X110548680Y-102443090D01*
X110501061Y-102347852D01*
X110453442Y-102300233D01*
M02*
