G04 #@! TF.GenerationSoftware,KiCad,Pcbnew,5.1.5+dfsg1-2build2*
G04 #@! TF.CreationDate,2022-01-06T00:43:13+01:00*
G04 #@! TF.ProjectId,Bell,42656c6c-2e6b-4696-9361-645f70636258,V1.0*
G04 #@! TF.SameCoordinates,Original*
G04 #@! TF.FileFunction,Soldermask,Bot*
G04 #@! TF.FilePolarity,Negative*
%FSLAX46Y46*%
G04 Gerber Fmt 4.6, Leading zero omitted, Abs format (unit mm)*
G04 Created by KiCad (PCBNEW 5.1.5+dfsg1-2build2) date 2022-01-06 00:43:13*
%MOMM*%
%LPD*%
G04 APERTURE LIST*
%ADD10C,0.100000*%
G04 APERTURE END LIST*
D10*
G36*
X141337142Y-106068242D02*
G01*
X141485101Y-106129529D01*
X141618255Y-106218499D01*
X141731501Y-106331745D01*
X141820471Y-106464899D01*
X141881758Y-106612858D01*
X141913000Y-106769925D01*
X141913000Y-106930075D01*
X141881758Y-107087142D01*
X141820471Y-107235101D01*
X141731501Y-107368255D01*
X141618255Y-107481501D01*
X141485101Y-107570471D01*
X141337142Y-107631758D01*
X141180075Y-107663000D01*
X141019925Y-107663000D01*
X140862858Y-107631758D01*
X140714899Y-107570471D01*
X140581745Y-107481501D01*
X140468499Y-107368255D01*
X140379529Y-107235101D01*
X140318242Y-107087142D01*
X140287000Y-106930075D01*
X140287000Y-106769925D01*
X140318242Y-106612858D01*
X140379529Y-106464899D01*
X140468499Y-106331745D01*
X140581745Y-106218499D01*
X140714899Y-106129529D01*
X140862858Y-106068242D01*
X141019925Y-106037000D01*
X141180075Y-106037000D01*
X141337142Y-106068242D01*
G37*
G36*
X113397142Y-106068242D02*
G01*
X113545101Y-106129529D01*
X113678255Y-106218499D01*
X113791501Y-106331745D01*
X113880471Y-106464899D01*
X113941758Y-106612858D01*
X113973000Y-106769925D01*
X113973000Y-106930075D01*
X113941758Y-107087142D01*
X113880471Y-107235101D01*
X113791501Y-107368255D01*
X113678255Y-107481501D01*
X113545101Y-107570471D01*
X113397142Y-107631758D01*
X113240075Y-107663000D01*
X113079925Y-107663000D01*
X112922858Y-107631758D01*
X112774899Y-107570471D01*
X112641745Y-107481501D01*
X112528499Y-107368255D01*
X112439529Y-107235101D01*
X112378242Y-107087142D01*
X112347000Y-106930075D01*
X112347000Y-106769925D01*
X112378242Y-106612858D01*
X112439529Y-106464899D01*
X112528499Y-106331745D01*
X112641745Y-106218499D01*
X112774899Y-106129529D01*
X112922858Y-106068242D01*
X113079925Y-106037000D01*
X113240075Y-106037000D01*
X113397142Y-106068242D01*
G37*
G36*
X124656719Y-105300519D02*
G01*
X124845880Y-105357900D01*
X124845883Y-105357901D01*
X124938333Y-105407317D01*
X125020212Y-105451082D01*
X125173015Y-105576484D01*
X125298417Y-105729287D01*
X125391599Y-105903618D01*
X125448980Y-106092779D01*
X125463500Y-106240205D01*
X125463500Y-106433792D01*
X125448980Y-106581218D01*
X125436968Y-106620815D01*
X125391598Y-106770382D01*
X125342182Y-106862832D01*
X125298417Y-106944711D01*
X125173015Y-107097514D01*
X125020212Y-107222916D01*
X124845881Y-107316098D01*
X124656720Y-107373479D01*
X124460000Y-107392854D01*
X124263281Y-107373479D01*
X124074120Y-107316098D01*
X123899788Y-107222916D01*
X123746985Y-107097514D01*
X123621583Y-106944711D01*
X123528401Y-106770380D01*
X123471020Y-106581219D01*
X123456500Y-106433793D01*
X123456500Y-106240206D01*
X123471020Y-106092780D01*
X123528401Y-105903619D01*
X123528402Y-105903616D01*
X123592953Y-105782851D01*
X123621583Y-105729287D01*
X123746985Y-105576484D01*
X123899788Y-105451082D01*
X124074119Y-105357900D01*
X124263280Y-105300519D01*
X124460000Y-105281144D01*
X124656719Y-105300519D01*
G37*
G36*
X127196719Y-105300519D02*
G01*
X127385880Y-105357900D01*
X127385883Y-105357901D01*
X127478333Y-105407317D01*
X127560212Y-105451082D01*
X127713015Y-105576484D01*
X127838417Y-105729287D01*
X127931599Y-105903618D01*
X127988980Y-106092779D01*
X128003500Y-106240205D01*
X128003500Y-106433792D01*
X127988980Y-106581218D01*
X127976968Y-106620815D01*
X127931598Y-106770382D01*
X127882182Y-106862832D01*
X127838417Y-106944711D01*
X127713015Y-107097514D01*
X127560212Y-107222916D01*
X127385881Y-107316098D01*
X127196720Y-107373479D01*
X127000000Y-107392854D01*
X126803281Y-107373479D01*
X126614120Y-107316098D01*
X126439788Y-107222916D01*
X126286985Y-107097514D01*
X126161583Y-106944711D01*
X126068401Y-106770380D01*
X126011020Y-106581219D01*
X125996500Y-106433793D01*
X125996500Y-106240206D01*
X126011020Y-106092780D01*
X126068401Y-105903619D01*
X126068402Y-105903616D01*
X126132953Y-105782851D01*
X126161583Y-105729287D01*
X126286985Y-105576484D01*
X126439788Y-105451082D01*
X126614119Y-105357900D01*
X126803280Y-105300519D01*
X127000000Y-105281144D01*
X127196719Y-105300519D01*
G37*
G36*
X122923500Y-107387999D02*
G01*
X120916500Y-107387999D01*
X120916500Y-105285999D01*
X122923500Y-105285999D01*
X122923500Y-107387999D01*
G37*
G36*
X134868228Y-105718702D02*
G01*
X135023100Y-105782852D01*
X135162481Y-105875984D01*
X135281015Y-105994518D01*
X135374147Y-106133899D01*
X135438297Y-106288771D01*
X135471000Y-106453183D01*
X135471000Y-106620815D01*
X135438297Y-106785227D01*
X135374147Y-106940099D01*
X135281015Y-107079480D01*
X135162481Y-107198014D01*
X135023100Y-107291146D01*
X134868228Y-107355296D01*
X134703816Y-107387999D01*
X134536184Y-107387999D01*
X134371772Y-107355296D01*
X134216900Y-107291146D01*
X134077519Y-107198014D01*
X133958985Y-107079480D01*
X133865853Y-106940099D01*
X133801703Y-106785227D01*
X133769000Y-106620815D01*
X133769000Y-106453183D01*
X133801703Y-106288771D01*
X133865853Y-106133899D01*
X133958985Y-105994518D01*
X134077519Y-105875984D01*
X134216900Y-105782852D01*
X134371772Y-105718702D01*
X134536184Y-105685999D01*
X134703816Y-105685999D01*
X134868228Y-105718702D01*
G37*
G36*
X149475256Y-104091298D02*
G01*
X149581579Y-104112447D01*
X149882042Y-104236903D01*
X150152451Y-104417585D01*
X150382415Y-104647549D01*
X150563097Y-104917958D01*
X150687502Y-105218297D01*
X150687553Y-105218422D01*
X150751000Y-105537389D01*
X150751000Y-105862611D01*
X150742843Y-105903618D01*
X150687553Y-106181579D01*
X150625353Y-106331743D01*
X150570198Y-106464900D01*
X150563097Y-106482042D01*
X150382415Y-106752451D01*
X150152451Y-106982415D01*
X149882042Y-107163097D01*
X149581579Y-107287553D01*
X149475256Y-107308702D01*
X149262611Y-107351000D01*
X148937389Y-107351000D01*
X148724744Y-107308702D01*
X148618421Y-107287553D01*
X148317958Y-107163097D01*
X148047549Y-106982415D01*
X147817585Y-106752451D01*
X147636903Y-106482042D01*
X147629803Y-106464900D01*
X147574647Y-106331743D01*
X147512447Y-106181579D01*
X147457157Y-105903618D01*
X147449000Y-105862611D01*
X147449000Y-105537389D01*
X147512447Y-105218422D01*
X147512499Y-105218297D01*
X147636903Y-104917958D01*
X147817585Y-104647549D01*
X148047549Y-104417585D01*
X148317958Y-104236903D01*
X148618421Y-104112447D01*
X148724744Y-104091298D01*
X148937389Y-104049000D01*
X149262611Y-104049000D01*
X149475256Y-104091298D01*
G37*
G36*
X107220580Y-107251000D02*
G01*
X105518580Y-107251000D01*
X105518580Y-105549000D01*
X107220580Y-105549000D01*
X107220580Y-107251000D01*
G37*
G36*
X106617808Y-103581703D02*
G01*
X106772680Y-103645853D01*
X106912061Y-103738985D01*
X107030595Y-103857519D01*
X107123727Y-103996900D01*
X107187877Y-104151772D01*
X107220580Y-104316184D01*
X107220580Y-104483816D01*
X107187877Y-104648228D01*
X107123727Y-104803100D01*
X107030595Y-104942481D01*
X106912061Y-105061015D01*
X106772680Y-105154147D01*
X106617808Y-105218297D01*
X106453396Y-105251000D01*
X106285764Y-105251000D01*
X106121352Y-105218297D01*
X105966480Y-105154147D01*
X105827099Y-105061015D01*
X105708565Y-104942481D01*
X105615433Y-104803100D01*
X105551283Y-104648228D01*
X105518580Y-104483816D01*
X105518580Y-104316184D01*
X105551283Y-104151772D01*
X105615433Y-103996900D01*
X105708565Y-103857519D01*
X105827099Y-103738985D01*
X105966480Y-103645853D01*
X106121352Y-103581703D01*
X106285764Y-103549000D01*
X106453396Y-103549000D01*
X106617808Y-103581703D01*
G37*
G36*
X141337142Y-103528242D02*
G01*
X141485101Y-103589529D01*
X141618255Y-103678499D01*
X141731501Y-103791745D01*
X141820471Y-103924899D01*
X141881758Y-104072858D01*
X141913000Y-104229925D01*
X141913000Y-104390075D01*
X141881758Y-104547142D01*
X141820471Y-104695101D01*
X141731501Y-104828255D01*
X141618255Y-104941501D01*
X141485101Y-105030471D01*
X141337142Y-105091758D01*
X141180075Y-105123000D01*
X141019925Y-105123000D01*
X140862858Y-105091758D01*
X140714899Y-105030471D01*
X140581745Y-104941501D01*
X140468499Y-104828255D01*
X140379529Y-104695101D01*
X140318242Y-104547142D01*
X140287000Y-104390075D01*
X140287000Y-104229925D01*
X140318242Y-104072858D01*
X140379529Y-103924899D01*
X140468499Y-103791745D01*
X140581745Y-103678499D01*
X140714899Y-103589529D01*
X140862858Y-103528242D01*
X141019925Y-103497000D01*
X141180075Y-103497000D01*
X141337142Y-103528242D01*
G37*
G36*
X113397142Y-103528242D02*
G01*
X113545101Y-103589529D01*
X113678255Y-103678499D01*
X113791501Y-103791745D01*
X113880471Y-103924899D01*
X113941758Y-104072858D01*
X113973000Y-104229925D01*
X113973000Y-104390075D01*
X113941758Y-104547142D01*
X113880471Y-104695101D01*
X113791501Y-104828255D01*
X113678255Y-104941501D01*
X113545101Y-105030471D01*
X113397142Y-105091758D01*
X113240075Y-105123000D01*
X113079925Y-105123000D01*
X112922858Y-105091758D01*
X112774899Y-105030471D01*
X112641745Y-104941501D01*
X112528499Y-104828255D01*
X112439529Y-104695101D01*
X112378242Y-104547142D01*
X112347000Y-104390075D01*
X112347000Y-104229925D01*
X112378242Y-104072858D01*
X112439529Y-103924899D01*
X112528499Y-103791745D01*
X112641745Y-103678499D01*
X112774899Y-103589529D01*
X112922858Y-103528242D01*
X113079925Y-103497000D01*
X113240075Y-103497000D01*
X113397142Y-103528242D01*
G37*
G36*
X113397142Y-100988242D02*
G01*
X113545101Y-101049529D01*
X113678255Y-101138499D01*
X113791501Y-101251745D01*
X113880471Y-101384899D01*
X113941758Y-101532858D01*
X113973000Y-101689925D01*
X113973000Y-101850075D01*
X113941758Y-102007142D01*
X113880471Y-102155101D01*
X113791501Y-102288255D01*
X113678255Y-102401501D01*
X113545101Y-102490471D01*
X113397142Y-102551758D01*
X113240075Y-102583000D01*
X113079925Y-102583000D01*
X112922858Y-102551758D01*
X112774899Y-102490471D01*
X112641745Y-102401501D01*
X112528499Y-102288255D01*
X112439529Y-102155101D01*
X112378242Y-102007142D01*
X112347000Y-101850075D01*
X112347000Y-101689925D01*
X112378242Y-101532858D01*
X112439529Y-101384899D01*
X112528499Y-101251745D01*
X112641745Y-101138499D01*
X112774899Y-101049529D01*
X112922858Y-100988242D01*
X113079925Y-100957000D01*
X113240075Y-100957000D01*
X113397142Y-100988242D01*
G37*
G36*
X141337142Y-100988242D02*
G01*
X141485101Y-101049529D01*
X141618255Y-101138499D01*
X141731501Y-101251745D01*
X141820471Y-101384899D01*
X141881758Y-101532858D01*
X141913000Y-101689925D01*
X141913000Y-101850075D01*
X141881758Y-102007142D01*
X141820471Y-102155101D01*
X141731501Y-102288255D01*
X141618255Y-102401501D01*
X141485101Y-102490471D01*
X141337142Y-102551758D01*
X141180075Y-102583000D01*
X141019925Y-102583000D01*
X140862858Y-102551758D01*
X140714899Y-102490471D01*
X140581745Y-102401501D01*
X140468499Y-102288255D01*
X140379529Y-102155101D01*
X140318242Y-102007142D01*
X140287000Y-101850075D01*
X140287000Y-101689925D01*
X140318242Y-101532858D01*
X140379529Y-101384899D01*
X140468499Y-101251745D01*
X140581745Y-101138499D01*
X140714899Y-101049529D01*
X140862858Y-100988242D01*
X141019925Y-100957000D01*
X141180075Y-100957000D01*
X141337142Y-100988242D01*
G37*
G36*
X113397142Y-98448242D02*
G01*
X113545101Y-98509529D01*
X113678255Y-98598499D01*
X113791501Y-98711745D01*
X113880471Y-98844899D01*
X113941758Y-98992858D01*
X113973000Y-99149925D01*
X113973000Y-99310075D01*
X113941758Y-99467142D01*
X113880471Y-99615101D01*
X113791501Y-99748255D01*
X113678255Y-99861501D01*
X113545101Y-99950471D01*
X113397142Y-100011758D01*
X113240075Y-100043000D01*
X113079925Y-100043000D01*
X112922858Y-100011758D01*
X112774899Y-99950471D01*
X112641745Y-99861501D01*
X112528499Y-99748255D01*
X112439529Y-99615101D01*
X112378242Y-99467142D01*
X112347000Y-99310075D01*
X112347000Y-99149925D01*
X112378242Y-98992858D01*
X112439529Y-98844899D01*
X112528499Y-98711745D01*
X112641745Y-98598499D01*
X112774899Y-98509529D01*
X112922858Y-98448242D01*
X113079925Y-98417000D01*
X113240075Y-98417000D01*
X113397142Y-98448242D01*
G37*
G36*
X141337142Y-98448242D02*
G01*
X141485101Y-98509529D01*
X141618255Y-98598499D01*
X141731501Y-98711745D01*
X141820471Y-98844899D01*
X141881758Y-98992858D01*
X141913000Y-99149925D01*
X141913000Y-99310075D01*
X141881758Y-99467142D01*
X141820471Y-99615101D01*
X141731501Y-99748255D01*
X141618255Y-99861501D01*
X141485101Y-99950471D01*
X141337142Y-100011758D01*
X141180075Y-100043000D01*
X141019925Y-100043000D01*
X140862858Y-100011758D01*
X140714899Y-99950471D01*
X140581745Y-99861501D01*
X140468499Y-99748255D01*
X140379529Y-99615101D01*
X140318242Y-99467142D01*
X140287000Y-99310075D01*
X140287000Y-99149925D01*
X140318242Y-98992858D01*
X140379529Y-98844899D01*
X140468499Y-98711745D01*
X140581745Y-98598499D01*
X140714899Y-98509529D01*
X140862858Y-98448242D01*
X141019925Y-98417000D01*
X141180075Y-98417000D01*
X141337142Y-98448242D01*
G37*
G36*
X106930022Y-97955518D02*
G01*
X106996207Y-97962037D01*
X107166046Y-98013557D01*
X107322571Y-98097222D01*
X107358309Y-98126552D01*
X107459766Y-98209814D01*
X107543028Y-98311271D01*
X107572358Y-98347009D01*
X107656023Y-98503534D01*
X107707543Y-98673373D01*
X107724939Y-98850000D01*
X107707543Y-99026627D01*
X107656023Y-99196466D01*
X107572358Y-99352991D01*
X107543028Y-99388729D01*
X107459766Y-99490186D01*
X107358309Y-99573448D01*
X107322571Y-99602778D01*
X107166046Y-99686443D01*
X106996207Y-99737963D01*
X106930022Y-99744482D01*
X106863840Y-99751000D01*
X106475320Y-99751000D01*
X106409137Y-99744481D01*
X106342953Y-99737963D01*
X106173114Y-99686443D01*
X106016589Y-99602778D01*
X105980851Y-99573448D01*
X105879394Y-99490186D01*
X105796132Y-99388729D01*
X105766802Y-99352991D01*
X105683137Y-99196466D01*
X105631617Y-99026627D01*
X105614221Y-98850000D01*
X105631617Y-98673373D01*
X105683137Y-98503534D01*
X105766802Y-98347009D01*
X105796132Y-98311271D01*
X105879394Y-98209814D01*
X105980851Y-98126552D01*
X106016589Y-98097222D01*
X106173114Y-98013557D01*
X106342953Y-97962037D01*
X106409137Y-97955519D01*
X106475320Y-97949000D01*
X106863840Y-97949000D01*
X106930022Y-97955518D01*
G37*
G36*
X148503278Y-96227827D02*
G01*
X148536304Y-96237845D01*
X148566739Y-96254113D01*
X148593415Y-96276005D01*
X148615307Y-96302681D01*
X148631575Y-96333116D01*
X148641593Y-96366142D01*
X148645580Y-96406624D01*
X148645580Y-97843056D01*
X148641593Y-97883538D01*
X148631575Y-97916564D01*
X148615307Y-97946999D01*
X148593415Y-97973675D01*
X148566739Y-97995567D01*
X148536304Y-98011835D01*
X148503278Y-98021853D01*
X148462796Y-98025840D01*
X146726364Y-98025840D01*
X146685882Y-98021853D01*
X146652856Y-98011835D01*
X146622421Y-97995567D01*
X146595745Y-97973675D01*
X146573853Y-97946999D01*
X146557585Y-97916564D01*
X146547567Y-97883538D01*
X146543580Y-97843056D01*
X146543580Y-96406624D01*
X146547567Y-96366142D01*
X146557585Y-96333116D01*
X146573853Y-96302681D01*
X146595745Y-96276005D01*
X146622421Y-96254113D01*
X146652856Y-96237845D01*
X146685882Y-96227827D01*
X146726364Y-96223840D01*
X148462796Y-96223840D01*
X148503278Y-96227827D01*
G37*
G36*
X113397142Y-95908242D02*
G01*
X113545101Y-95969529D01*
X113678255Y-96058499D01*
X113791501Y-96171745D01*
X113880471Y-96304899D01*
X113941758Y-96452858D01*
X113973000Y-96609925D01*
X113973000Y-96770075D01*
X113941758Y-96927142D01*
X113880471Y-97075101D01*
X113791501Y-97208255D01*
X113678255Y-97321501D01*
X113545101Y-97410471D01*
X113397142Y-97471758D01*
X113240075Y-97503000D01*
X113079925Y-97503000D01*
X112922858Y-97471758D01*
X112774899Y-97410471D01*
X112641745Y-97321501D01*
X112528499Y-97208255D01*
X112439529Y-97075101D01*
X112378242Y-96927142D01*
X112347000Y-96770075D01*
X112347000Y-96609925D01*
X112378242Y-96452858D01*
X112439529Y-96304899D01*
X112528499Y-96171745D01*
X112641745Y-96058499D01*
X112774899Y-95969529D01*
X112922858Y-95908242D01*
X113079925Y-95877000D01*
X113240075Y-95877000D01*
X113397142Y-95908242D01*
G37*
G36*
X141337142Y-95908242D02*
G01*
X141485101Y-95969529D01*
X141618255Y-96058499D01*
X141731501Y-96171745D01*
X141820471Y-96304899D01*
X141881758Y-96452858D01*
X141913000Y-96609925D01*
X141913000Y-96770075D01*
X141881758Y-96927142D01*
X141820471Y-97075101D01*
X141731501Y-97208255D01*
X141618255Y-97321501D01*
X141485101Y-97410471D01*
X141337142Y-97471758D01*
X141180075Y-97503000D01*
X141019925Y-97503000D01*
X140862858Y-97471758D01*
X140714899Y-97410471D01*
X140581745Y-97321501D01*
X140468499Y-97208255D01*
X140379529Y-97075101D01*
X140318242Y-96927142D01*
X140287000Y-96770075D01*
X140287000Y-96609925D01*
X140318242Y-96452858D01*
X140379529Y-96304899D01*
X140468499Y-96171745D01*
X140581745Y-96058499D01*
X140714899Y-95969529D01*
X140862858Y-95908242D01*
X141019925Y-95877000D01*
X141180075Y-95877000D01*
X141337142Y-95908242D01*
G37*
G36*
X107578180Y-95452989D02*
G01*
X107611232Y-95463015D01*
X107641683Y-95479292D01*
X107668379Y-95501201D01*
X107690288Y-95527897D01*
X107706565Y-95558348D01*
X107716591Y-95591400D01*
X107720580Y-95631903D01*
X107720580Y-97068097D01*
X107716591Y-97108600D01*
X107706565Y-97141652D01*
X107690288Y-97172103D01*
X107668379Y-97198799D01*
X107641683Y-97220708D01*
X107611232Y-97236985D01*
X107578180Y-97247011D01*
X107537677Y-97251000D01*
X105801483Y-97251000D01*
X105760980Y-97247011D01*
X105727928Y-97236985D01*
X105697477Y-97220708D01*
X105670781Y-97198799D01*
X105648872Y-97172103D01*
X105632595Y-97141652D01*
X105622569Y-97108600D01*
X105618580Y-97068097D01*
X105618580Y-95631903D01*
X105622569Y-95591400D01*
X105632595Y-95558348D01*
X105648872Y-95527897D01*
X105670781Y-95501201D01*
X105697477Y-95479292D01*
X105727928Y-95463015D01*
X105760980Y-95452989D01*
X105801483Y-95449000D01*
X107537677Y-95449000D01*
X107578180Y-95452989D01*
G37*
G36*
X134868228Y-95558702D02*
G01*
X135023100Y-95622852D01*
X135162481Y-95715984D01*
X135281015Y-95834518D01*
X135374147Y-95973899D01*
X135438297Y-96128771D01*
X135471000Y-96293183D01*
X135471000Y-96460815D01*
X135438297Y-96625227D01*
X135374147Y-96780099D01*
X135281015Y-96919480D01*
X135162481Y-97038014D01*
X135023100Y-97131146D01*
X134868228Y-97195296D01*
X134703816Y-97227999D01*
X134536184Y-97227999D01*
X134371772Y-97195296D01*
X134216900Y-97131146D01*
X134077519Y-97038014D01*
X133958985Y-96919480D01*
X133865853Y-96780099D01*
X133801703Y-96625227D01*
X133769000Y-96460815D01*
X133769000Y-96293183D01*
X133801703Y-96128771D01*
X133865853Y-95973899D01*
X133958985Y-95834518D01*
X134077519Y-95715984D01*
X134216900Y-95622852D01*
X134371772Y-95558702D01*
X134536184Y-95525999D01*
X134703816Y-95525999D01*
X134868228Y-95558702D01*
G37*
G36*
X147855022Y-93730358D02*
G01*
X147921207Y-93736877D01*
X148091046Y-93788397D01*
X148247571Y-93872062D01*
X148283309Y-93901392D01*
X148384766Y-93984654D01*
X148454745Y-94069925D01*
X148497358Y-94121849D01*
X148581023Y-94278374D01*
X148632543Y-94448213D01*
X148649939Y-94624840D01*
X148632543Y-94801467D01*
X148581023Y-94971306D01*
X148497358Y-95127831D01*
X148468028Y-95163569D01*
X148384766Y-95265026D01*
X148283309Y-95348288D01*
X148247571Y-95377618D01*
X148091046Y-95461283D01*
X147921207Y-95512803D01*
X147855022Y-95519322D01*
X147788840Y-95525840D01*
X147400320Y-95525840D01*
X147334138Y-95519322D01*
X147267953Y-95512803D01*
X147098114Y-95461283D01*
X146941589Y-95377618D01*
X146905851Y-95348288D01*
X146804394Y-95265026D01*
X146721132Y-95163569D01*
X146691802Y-95127831D01*
X146608137Y-94971306D01*
X146556617Y-94801467D01*
X146539221Y-94624840D01*
X146556617Y-94448213D01*
X146608137Y-94278374D01*
X146691802Y-94121849D01*
X146734415Y-94069925D01*
X146804394Y-93984654D01*
X146905851Y-93901392D01*
X146941589Y-93872062D01*
X147098114Y-93788397D01*
X147267953Y-93736877D01*
X147334138Y-93730358D01*
X147400320Y-93723840D01*
X147788840Y-93723840D01*
X147855022Y-93730358D01*
G37*
G36*
X113397142Y-93368242D02*
G01*
X113545101Y-93429529D01*
X113678255Y-93518499D01*
X113791501Y-93631745D01*
X113880471Y-93764899D01*
X113941758Y-93912858D01*
X113973000Y-94069925D01*
X113973000Y-94230075D01*
X113941758Y-94387142D01*
X113880471Y-94535101D01*
X113791501Y-94668255D01*
X113678255Y-94781501D01*
X113545101Y-94870471D01*
X113397142Y-94931758D01*
X113240075Y-94963000D01*
X113079925Y-94963000D01*
X112922858Y-94931758D01*
X112774899Y-94870471D01*
X112641745Y-94781501D01*
X112528499Y-94668255D01*
X112439529Y-94535101D01*
X112378242Y-94387142D01*
X112347000Y-94230075D01*
X112347000Y-94069925D01*
X112378242Y-93912858D01*
X112439529Y-93764899D01*
X112528499Y-93631745D01*
X112641745Y-93518499D01*
X112774899Y-93429529D01*
X112922858Y-93368242D01*
X113079925Y-93337000D01*
X113240075Y-93337000D01*
X113397142Y-93368242D01*
G37*
G36*
X141337142Y-93368242D02*
G01*
X141485101Y-93429529D01*
X141618255Y-93518499D01*
X141731501Y-93631745D01*
X141820471Y-93764899D01*
X141881758Y-93912858D01*
X141913000Y-94069925D01*
X141913000Y-94230075D01*
X141881758Y-94387142D01*
X141820471Y-94535101D01*
X141731501Y-94668255D01*
X141618255Y-94781501D01*
X141485101Y-94870471D01*
X141337142Y-94931758D01*
X141180075Y-94963000D01*
X141019925Y-94963000D01*
X140862858Y-94931758D01*
X140714899Y-94870471D01*
X140581745Y-94781501D01*
X140468499Y-94668255D01*
X140379529Y-94535101D01*
X140318242Y-94387142D01*
X140287000Y-94230075D01*
X140287000Y-94069925D01*
X140318242Y-93912858D01*
X140379529Y-93764899D01*
X140468499Y-93631745D01*
X140581745Y-93518499D01*
X140714899Y-93429529D01*
X140862858Y-93368242D01*
X141019925Y-93337000D01*
X141180075Y-93337000D01*
X141337142Y-93368242D01*
G37*
G36*
X134868228Y-91428403D02*
G01*
X135023100Y-91492553D01*
X135162481Y-91585685D01*
X135281015Y-91704219D01*
X135374147Y-91843600D01*
X135438297Y-91998472D01*
X135471000Y-92162884D01*
X135471000Y-92330516D01*
X135438297Y-92494928D01*
X135374147Y-92649800D01*
X135281015Y-92789181D01*
X135162481Y-92907715D01*
X135023100Y-93000847D01*
X134868228Y-93064997D01*
X134703816Y-93097700D01*
X134536184Y-93097700D01*
X134371772Y-93064997D01*
X134216900Y-93000847D01*
X134077519Y-92907715D01*
X133958985Y-92789181D01*
X133865853Y-92649800D01*
X133801703Y-92494928D01*
X133769000Y-92330516D01*
X133769000Y-92162884D01*
X133801703Y-91998472D01*
X133865853Y-91843600D01*
X133958985Y-91704219D01*
X134077519Y-91585685D01*
X134216900Y-91492553D01*
X134371772Y-91428403D01*
X134536184Y-91395700D01*
X134703816Y-91395700D01*
X134868228Y-91428403D01*
G37*
G36*
X113397142Y-90828242D02*
G01*
X113545101Y-90889529D01*
X113678255Y-90978499D01*
X113791501Y-91091745D01*
X113880471Y-91224899D01*
X113941758Y-91372858D01*
X113973000Y-91529925D01*
X113973000Y-91690075D01*
X113941758Y-91847142D01*
X113880471Y-91995101D01*
X113791501Y-92128255D01*
X113678255Y-92241501D01*
X113545101Y-92330471D01*
X113397142Y-92391758D01*
X113240075Y-92423000D01*
X113079925Y-92423000D01*
X112922858Y-92391758D01*
X112774899Y-92330471D01*
X112641745Y-92241501D01*
X112528499Y-92128255D01*
X112439529Y-91995101D01*
X112378242Y-91847142D01*
X112347000Y-91690075D01*
X112347000Y-91529925D01*
X112378242Y-91372858D01*
X112439529Y-91224899D01*
X112528499Y-91091745D01*
X112641745Y-90978499D01*
X112774899Y-90889529D01*
X112922858Y-90828242D01*
X113079925Y-90797000D01*
X113240075Y-90797000D01*
X113397142Y-90828242D01*
G37*
G36*
X141337142Y-90828242D02*
G01*
X141485101Y-90889529D01*
X141618255Y-90978499D01*
X141731501Y-91091745D01*
X141820471Y-91224899D01*
X141881758Y-91372858D01*
X141913000Y-91529925D01*
X141913000Y-91690075D01*
X141881758Y-91847142D01*
X141820471Y-91995101D01*
X141731501Y-92128255D01*
X141618255Y-92241501D01*
X141485101Y-92330471D01*
X141337142Y-92391758D01*
X141180075Y-92423000D01*
X141019925Y-92423000D01*
X140862858Y-92391758D01*
X140714899Y-92330471D01*
X140581745Y-92241501D01*
X140468499Y-92128255D01*
X140379529Y-91995101D01*
X140318242Y-91847142D01*
X140287000Y-91690075D01*
X140287000Y-91529925D01*
X140318242Y-91372858D01*
X140379529Y-91224899D01*
X140468499Y-91091745D01*
X140581745Y-90978499D01*
X140714899Y-90889529D01*
X140862858Y-90828242D01*
X141019925Y-90797000D01*
X141180075Y-90797000D01*
X141337142Y-90828242D01*
G37*
G36*
X124985331Y-87945210D02*
G01*
X125313092Y-88080973D01*
X125608070Y-88278071D01*
X125858928Y-88528929D01*
X126056026Y-88823907D01*
X126191789Y-89151668D01*
X126261000Y-89499615D01*
X126261000Y-89854383D01*
X126191789Y-90202330D01*
X126056026Y-90530091D01*
X125858928Y-90825069D01*
X125608070Y-91075927D01*
X125313092Y-91273025D01*
X124985331Y-91408788D01*
X124637384Y-91477999D01*
X124282616Y-91477999D01*
X123934669Y-91408788D01*
X123606908Y-91273025D01*
X123311930Y-91075927D01*
X123061072Y-90825069D01*
X122863974Y-90530091D01*
X122728211Y-90202330D01*
X122659000Y-89854383D01*
X122659000Y-89499615D01*
X122728211Y-89151668D01*
X122863974Y-88823907D01*
X123061072Y-88528929D01*
X123311930Y-88278071D01*
X123606908Y-88080973D01*
X123934669Y-87945210D01*
X124282616Y-87875999D01*
X124637384Y-87875999D01*
X124985331Y-87945210D01*
G37*
G36*
X106675256Y-87391298D02*
G01*
X106781579Y-87412447D01*
X107082042Y-87536903D01*
X107352451Y-87717585D01*
X107582415Y-87947549D01*
X107763097Y-88217958D01*
X107887553Y-88518421D01*
X107908702Y-88624744D01*
X107951000Y-88837389D01*
X107951000Y-89162611D01*
X107908702Y-89375256D01*
X107887553Y-89481579D01*
X107763097Y-89782042D01*
X107582415Y-90052451D01*
X107352451Y-90282415D01*
X107082042Y-90463097D01*
X106781579Y-90587553D01*
X106675256Y-90608702D01*
X106462611Y-90651000D01*
X106137389Y-90651000D01*
X105924744Y-90608702D01*
X105818421Y-90587553D01*
X105517958Y-90463097D01*
X105247549Y-90282415D01*
X105017585Y-90052451D01*
X104836903Y-89782042D01*
X104712447Y-89481579D01*
X104691298Y-89375256D01*
X104649000Y-89162611D01*
X104649000Y-88837389D01*
X104691298Y-88624744D01*
X104712447Y-88518421D01*
X104836903Y-88217958D01*
X105017585Y-87947549D01*
X105247549Y-87717585D01*
X105517958Y-87536903D01*
X105818421Y-87412447D01*
X105924744Y-87391298D01*
X106137389Y-87349000D01*
X106462611Y-87349000D01*
X106675256Y-87391298D01*
G37*
G36*
X113397142Y-88288242D02*
G01*
X113545101Y-88349529D01*
X113678255Y-88438499D01*
X113791501Y-88551745D01*
X113880471Y-88684899D01*
X113941758Y-88832858D01*
X113973000Y-88989925D01*
X113973000Y-89150075D01*
X113941758Y-89307142D01*
X113880471Y-89455101D01*
X113791501Y-89588255D01*
X113678255Y-89701501D01*
X113545101Y-89790471D01*
X113397142Y-89851758D01*
X113240075Y-89883000D01*
X113079925Y-89883000D01*
X112922858Y-89851758D01*
X112774899Y-89790471D01*
X112641745Y-89701501D01*
X112528499Y-89588255D01*
X112439529Y-89455101D01*
X112378242Y-89307142D01*
X112347000Y-89150075D01*
X112347000Y-88989925D01*
X112378242Y-88832858D01*
X112439529Y-88684899D01*
X112528499Y-88551745D01*
X112641745Y-88438499D01*
X112774899Y-88349529D01*
X112922858Y-88288242D01*
X113079925Y-88257000D01*
X113240075Y-88257000D01*
X113397142Y-88288242D01*
G37*
G36*
X141337142Y-88288242D02*
G01*
X141485101Y-88349529D01*
X141618255Y-88438499D01*
X141731501Y-88551745D01*
X141820471Y-88684899D01*
X141881758Y-88832858D01*
X141913000Y-88989925D01*
X141913000Y-89150075D01*
X141881758Y-89307142D01*
X141820471Y-89455101D01*
X141731501Y-89588255D01*
X141618255Y-89701501D01*
X141485101Y-89790471D01*
X141337142Y-89851758D01*
X141180075Y-89883000D01*
X141019925Y-89883000D01*
X140862858Y-89851758D01*
X140714899Y-89790471D01*
X140581745Y-89701501D01*
X140468499Y-89588255D01*
X140379529Y-89455101D01*
X140318242Y-89307142D01*
X140287000Y-89150075D01*
X140287000Y-88989925D01*
X140318242Y-88832858D01*
X140379529Y-88684899D01*
X140468499Y-88551745D01*
X140581745Y-88438499D01*
X140714899Y-88349529D01*
X140862858Y-88288242D01*
X141019925Y-88257000D01*
X141180075Y-88257000D01*
X141337142Y-88288242D01*
G37*
G36*
X141337142Y-85748242D02*
G01*
X141485101Y-85809529D01*
X141618255Y-85898499D01*
X141731501Y-86011745D01*
X141820471Y-86144899D01*
X141881758Y-86292858D01*
X141913000Y-86449925D01*
X141913000Y-86610075D01*
X141881758Y-86767142D01*
X141820471Y-86915101D01*
X141731501Y-87048255D01*
X141618255Y-87161501D01*
X141485101Y-87250471D01*
X141337142Y-87311758D01*
X141180075Y-87343000D01*
X141019925Y-87343000D01*
X140862858Y-87311758D01*
X140714899Y-87250471D01*
X140581745Y-87161501D01*
X140468499Y-87048255D01*
X140379529Y-86915101D01*
X140318242Y-86767142D01*
X140287000Y-86610075D01*
X140287000Y-86449925D01*
X140318242Y-86292858D01*
X140379529Y-86144899D01*
X140468499Y-86011745D01*
X140581745Y-85898499D01*
X140714899Y-85809529D01*
X140862858Y-85748242D01*
X141019925Y-85717000D01*
X141180075Y-85717000D01*
X141337142Y-85748242D01*
G37*
G36*
X113397142Y-85748242D02*
G01*
X113545101Y-85809529D01*
X113678255Y-85898499D01*
X113791501Y-86011745D01*
X113880471Y-86144899D01*
X113941758Y-86292858D01*
X113973000Y-86449925D01*
X113973000Y-86610075D01*
X113941758Y-86767142D01*
X113880471Y-86915101D01*
X113791501Y-87048255D01*
X113678255Y-87161501D01*
X113545101Y-87250471D01*
X113397142Y-87311758D01*
X113240075Y-87343000D01*
X113079925Y-87343000D01*
X112922858Y-87311758D01*
X112774899Y-87250471D01*
X112641745Y-87161501D01*
X112528499Y-87048255D01*
X112439529Y-86915101D01*
X112378242Y-86767142D01*
X112347000Y-86610075D01*
X112347000Y-86449925D01*
X112378242Y-86292858D01*
X112439529Y-86144899D01*
X112528499Y-86011745D01*
X112641745Y-85898499D01*
X112774899Y-85809529D01*
X112922858Y-85748242D01*
X113079925Y-85717000D01*
X113240075Y-85717000D01*
X113397142Y-85748242D01*
G37*
G36*
X148503278Y-83677827D02*
G01*
X148536304Y-83687845D01*
X148566739Y-83704113D01*
X148593415Y-83726005D01*
X148615307Y-83752681D01*
X148631575Y-83783116D01*
X148641593Y-83816142D01*
X148645580Y-83856624D01*
X148645580Y-85293056D01*
X148641593Y-85333538D01*
X148631575Y-85366564D01*
X148615307Y-85396999D01*
X148593415Y-85423675D01*
X148566739Y-85445567D01*
X148536304Y-85461835D01*
X148503278Y-85471853D01*
X148462796Y-85475840D01*
X146726364Y-85475840D01*
X146685882Y-85471853D01*
X146652856Y-85461835D01*
X146622421Y-85445567D01*
X146595745Y-85423675D01*
X146573853Y-85396999D01*
X146557585Y-85366564D01*
X146547567Y-85333538D01*
X146543580Y-85293056D01*
X146543580Y-83856624D01*
X146547567Y-83816142D01*
X146557585Y-83783116D01*
X146573853Y-83752681D01*
X146595745Y-83726005D01*
X146622421Y-83704113D01*
X146652856Y-83687845D01*
X146685882Y-83677827D01*
X146726364Y-83673840D01*
X148462796Y-83673840D01*
X148503278Y-83677827D01*
G37*
G36*
X113397142Y-83208242D02*
G01*
X113545101Y-83269529D01*
X113678255Y-83358499D01*
X113791501Y-83471745D01*
X113880471Y-83604899D01*
X113941758Y-83752858D01*
X113973000Y-83909925D01*
X113973000Y-84070075D01*
X113941758Y-84227142D01*
X113880471Y-84375101D01*
X113791501Y-84508255D01*
X113678255Y-84621501D01*
X113545101Y-84710471D01*
X113397142Y-84771758D01*
X113240075Y-84803000D01*
X113079925Y-84803000D01*
X112922858Y-84771758D01*
X112774899Y-84710471D01*
X112641745Y-84621501D01*
X112528499Y-84508255D01*
X112439529Y-84375101D01*
X112378242Y-84227142D01*
X112347000Y-84070075D01*
X112347000Y-83909925D01*
X112378242Y-83752858D01*
X112439529Y-83604899D01*
X112528499Y-83471745D01*
X112641745Y-83358499D01*
X112774899Y-83269529D01*
X112922858Y-83208242D01*
X113079925Y-83177000D01*
X113240075Y-83177000D01*
X113397142Y-83208242D01*
G37*
G36*
X141337142Y-83208242D02*
G01*
X141485101Y-83269529D01*
X141618255Y-83358499D01*
X141731501Y-83471745D01*
X141820471Y-83604899D01*
X141881758Y-83752858D01*
X141913000Y-83909925D01*
X141913000Y-84070075D01*
X141881758Y-84227142D01*
X141820471Y-84375101D01*
X141731501Y-84508255D01*
X141618255Y-84621501D01*
X141485101Y-84710471D01*
X141337142Y-84771758D01*
X141180075Y-84803000D01*
X141019925Y-84803000D01*
X140862858Y-84771758D01*
X140714899Y-84710471D01*
X140581745Y-84621501D01*
X140468499Y-84508255D01*
X140379529Y-84375101D01*
X140318242Y-84227142D01*
X140287000Y-84070075D01*
X140287000Y-83909925D01*
X140318242Y-83752858D01*
X140379529Y-83604899D01*
X140468499Y-83471745D01*
X140581745Y-83358499D01*
X140714899Y-83269529D01*
X140862858Y-83208242D01*
X141019925Y-83177000D01*
X141180075Y-83177000D01*
X141337142Y-83208242D01*
G37*
G36*
X147855023Y-81180359D02*
G01*
X147921207Y-81186877D01*
X148091046Y-81238397D01*
X148247571Y-81322062D01*
X148260353Y-81332552D01*
X148384766Y-81434654D01*
X148463074Y-81530074D01*
X148497358Y-81571849D01*
X148581023Y-81728374D01*
X148632543Y-81898213D01*
X148649939Y-82074840D01*
X148632543Y-82251467D01*
X148581023Y-82421306D01*
X148497358Y-82577831D01*
X148468028Y-82613569D01*
X148384766Y-82715026D01*
X148283309Y-82798288D01*
X148247571Y-82827618D01*
X148091046Y-82911283D01*
X147921207Y-82962803D01*
X147855022Y-82969322D01*
X147788840Y-82975840D01*
X147400320Y-82975840D01*
X147334138Y-82969322D01*
X147267953Y-82962803D01*
X147098114Y-82911283D01*
X146941589Y-82827618D01*
X146905851Y-82798288D01*
X146804394Y-82715026D01*
X146721132Y-82613569D01*
X146691802Y-82577831D01*
X146608137Y-82421306D01*
X146556617Y-82251467D01*
X146539221Y-82074840D01*
X146556617Y-81898213D01*
X146608137Y-81728374D01*
X146691802Y-81571849D01*
X146726086Y-81530074D01*
X146804394Y-81434654D01*
X146928807Y-81332552D01*
X146941589Y-81322062D01*
X147098114Y-81238397D01*
X147267953Y-81186877D01*
X147334137Y-81180359D01*
X147400320Y-81173840D01*
X147788840Y-81173840D01*
X147855023Y-81180359D01*
G37*
G36*
X134868228Y-81268403D02*
G01*
X135023100Y-81332553D01*
X135162481Y-81425685D01*
X135281015Y-81544219D01*
X135374147Y-81683600D01*
X135438297Y-81838472D01*
X135471000Y-82002884D01*
X135471000Y-82170516D01*
X135438297Y-82334928D01*
X135374147Y-82489800D01*
X135281015Y-82629181D01*
X135162481Y-82747715D01*
X135023100Y-82840847D01*
X134868228Y-82904997D01*
X134703816Y-82937700D01*
X134536184Y-82937700D01*
X134371772Y-82904997D01*
X134216900Y-82840847D01*
X134077519Y-82747715D01*
X133958985Y-82629181D01*
X133865853Y-82489800D01*
X133801703Y-82334928D01*
X133769000Y-82170516D01*
X133769000Y-82002884D01*
X133801703Y-81838472D01*
X133865853Y-81683600D01*
X133958985Y-81544219D01*
X134077519Y-81425685D01*
X134216900Y-81332553D01*
X134371772Y-81268403D01*
X134536184Y-81235700D01*
X134703816Y-81235700D01*
X134868228Y-81268403D01*
G37*
G36*
X141337142Y-80668242D02*
G01*
X141485101Y-80729529D01*
X141618255Y-80818499D01*
X141731501Y-80931745D01*
X141820471Y-81064899D01*
X141881758Y-81212858D01*
X141913000Y-81369925D01*
X141913000Y-81530075D01*
X141881758Y-81687142D01*
X141820471Y-81835101D01*
X141731501Y-81968255D01*
X141618255Y-82081501D01*
X141485101Y-82170471D01*
X141337142Y-82231758D01*
X141180075Y-82263000D01*
X141019925Y-82263000D01*
X140862858Y-82231758D01*
X140714899Y-82170471D01*
X140581745Y-82081501D01*
X140468499Y-81968255D01*
X140379529Y-81835101D01*
X140318242Y-81687142D01*
X140287000Y-81530075D01*
X140287000Y-81369925D01*
X140318242Y-81212858D01*
X140379529Y-81064899D01*
X140468499Y-80931745D01*
X140581745Y-80818499D01*
X140714899Y-80729529D01*
X140862858Y-80668242D01*
X141019925Y-80637000D01*
X141180075Y-80637000D01*
X141337142Y-80668242D01*
G37*
G36*
X113397142Y-80668242D02*
G01*
X113545101Y-80729529D01*
X113678255Y-80818499D01*
X113791501Y-80931745D01*
X113880471Y-81064899D01*
X113941758Y-81212858D01*
X113973000Y-81369925D01*
X113973000Y-81530075D01*
X113941758Y-81687142D01*
X113880471Y-81835101D01*
X113791501Y-81968255D01*
X113678255Y-82081501D01*
X113545101Y-82170471D01*
X113397142Y-82231758D01*
X113240075Y-82263000D01*
X113079925Y-82263000D01*
X112922858Y-82231758D01*
X112774899Y-82170471D01*
X112641745Y-82081501D01*
X112528499Y-81968255D01*
X112439529Y-81835101D01*
X112378242Y-81687142D01*
X112347000Y-81530075D01*
X112347000Y-81369925D01*
X112378242Y-81212858D01*
X112439529Y-81064899D01*
X112528499Y-80931745D01*
X112641745Y-80818499D01*
X112774899Y-80729529D01*
X112922858Y-80668242D01*
X113079925Y-80637000D01*
X113240075Y-80637000D01*
X113397142Y-80668242D01*
G37*
G36*
X113397142Y-78128242D02*
G01*
X113545101Y-78189529D01*
X113678255Y-78278499D01*
X113791501Y-78391745D01*
X113880471Y-78524899D01*
X113941758Y-78672858D01*
X113973000Y-78829925D01*
X113973000Y-78990075D01*
X113941758Y-79147142D01*
X113880471Y-79295101D01*
X113791501Y-79428255D01*
X113678255Y-79541501D01*
X113545101Y-79630471D01*
X113397142Y-79691758D01*
X113240075Y-79723000D01*
X113079925Y-79723000D01*
X112922858Y-79691758D01*
X112774899Y-79630471D01*
X112641745Y-79541501D01*
X112528499Y-79428255D01*
X112439529Y-79295101D01*
X112378242Y-79147142D01*
X112347000Y-78990075D01*
X112347000Y-78829925D01*
X112378242Y-78672858D01*
X112439529Y-78524899D01*
X112528499Y-78391745D01*
X112641745Y-78278499D01*
X112774899Y-78189529D01*
X112922858Y-78128242D01*
X113079925Y-78097000D01*
X113240075Y-78097000D01*
X113397142Y-78128242D01*
G37*
G36*
X141337142Y-78128242D02*
G01*
X141485101Y-78189529D01*
X141618255Y-78278499D01*
X141731501Y-78391745D01*
X141820471Y-78524899D01*
X141881758Y-78672858D01*
X141913000Y-78829925D01*
X141913000Y-78990075D01*
X141881758Y-79147142D01*
X141820471Y-79295101D01*
X141731501Y-79428255D01*
X141618255Y-79541501D01*
X141485101Y-79630471D01*
X141337142Y-79691758D01*
X141180075Y-79723000D01*
X141019925Y-79723000D01*
X140862858Y-79691758D01*
X140714899Y-79630471D01*
X140581745Y-79541501D01*
X140468499Y-79428255D01*
X140379529Y-79295101D01*
X140318242Y-79147142D01*
X140287000Y-78990075D01*
X140287000Y-78829925D01*
X140318242Y-78672858D01*
X140379529Y-78524899D01*
X140468499Y-78391745D01*
X140581745Y-78278499D01*
X140714899Y-78189529D01*
X140862858Y-78128242D01*
X141019925Y-78097000D01*
X141180075Y-78097000D01*
X141337142Y-78128242D01*
G37*
G36*
X106930022Y-77555518D02*
G01*
X106996207Y-77562037D01*
X107166046Y-77613557D01*
X107322571Y-77697222D01*
X107358309Y-77726552D01*
X107459766Y-77809814D01*
X107543028Y-77911271D01*
X107572358Y-77947009D01*
X107572359Y-77947011D01*
X107652531Y-78097000D01*
X107656023Y-78103534D01*
X107707543Y-78273373D01*
X107724939Y-78450000D01*
X107707543Y-78626627D01*
X107656023Y-78796466D01*
X107572358Y-78952991D01*
X107543028Y-78988729D01*
X107459766Y-79090186D01*
X107358309Y-79173448D01*
X107322571Y-79202778D01*
X107166046Y-79286443D01*
X106996207Y-79337963D01*
X106930023Y-79344481D01*
X106863840Y-79351000D01*
X106475320Y-79351000D01*
X106409137Y-79344481D01*
X106342953Y-79337963D01*
X106173114Y-79286443D01*
X106016589Y-79202778D01*
X105980851Y-79173448D01*
X105879394Y-79090186D01*
X105796132Y-78988729D01*
X105766802Y-78952991D01*
X105683137Y-78796466D01*
X105631617Y-78626627D01*
X105614221Y-78450000D01*
X105631617Y-78273373D01*
X105683137Y-78103534D01*
X105686630Y-78097000D01*
X105766801Y-77947011D01*
X105766802Y-77947009D01*
X105796132Y-77911271D01*
X105879394Y-77809814D01*
X105980851Y-77726552D01*
X106016589Y-77697222D01*
X106173114Y-77613557D01*
X106342953Y-77562037D01*
X106409138Y-77555518D01*
X106475320Y-77549000D01*
X106863840Y-77549000D01*
X106930022Y-77555518D01*
G37*
G36*
X131096564Y-76459389D02*
G01*
X131287833Y-76538615D01*
X131287835Y-76538616D01*
X131390391Y-76607142D01*
X131459973Y-76653635D01*
X131606365Y-76800027D01*
X131721385Y-76972167D01*
X131800611Y-77163436D01*
X131841000Y-77366484D01*
X131841000Y-77573516D01*
X131800611Y-77776564D01*
X131730010Y-77947011D01*
X131721384Y-77967835D01*
X131606365Y-78139973D01*
X131459973Y-78286365D01*
X131287835Y-78401384D01*
X131287834Y-78401385D01*
X131287833Y-78401385D01*
X131096564Y-78480611D01*
X130893516Y-78521000D01*
X130686484Y-78521000D01*
X130483436Y-78480611D01*
X130292167Y-78401385D01*
X130292166Y-78401385D01*
X130292165Y-78401384D01*
X130120027Y-78286365D01*
X129973635Y-78139973D01*
X129858616Y-77967835D01*
X129849990Y-77947011D01*
X129779389Y-77776564D01*
X129739000Y-77573516D01*
X129739000Y-77366484D01*
X129779389Y-77163436D01*
X129858615Y-76972167D01*
X129973635Y-76800027D01*
X130120027Y-76653635D01*
X130189609Y-76607142D01*
X130292165Y-76538616D01*
X130292167Y-76538615D01*
X130483436Y-76459389D01*
X130686484Y-76419000D01*
X130893516Y-76419000D01*
X131096564Y-76459389D01*
G37*
G36*
X124241000Y-78521000D02*
G01*
X122139000Y-78521000D01*
X122139000Y-76419000D01*
X124241000Y-76419000D01*
X124241000Y-78521000D01*
G37*
G36*
X113397142Y-75588242D02*
G01*
X113545101Y-75649529D01*
X113678255Y-75738499D01*
X113791501Y-75851745D01*
X113880471Y-75984899D01*
X113941758Y-76132858D01*
X113973000Y-76289925D01*
X113973000Y-76450075D01*
X113941758Y-76607142D01*
X113880471Y-76755101D01*
X113791501Y-76888255D01*
X113678255Y-77001501D01*
X113545101Y-77090471D01*
X113397142Y-77151758D01*
X113240075Y-77183000D01*
X113079925Y-77183000D01*
X112922858Y-77151758D01*
X112774899Y-77090471D01*
X112641745Y-77001501D01*
X112528499Y-76888255D01*
X112439529Y-76755101D01*
X112378242Y-76607142D01*
X112347000Y-76450075D01*
X112347000Y-76289925D01*
X112378242Y-76132858D01*
X112439529Y-75984899D01*
X112528499Y-75851745D01*
X112641745Y-75738499D01*
X112774899Y-75649529D01*
X112922858Y-75588242D01*
X113079925Y-75557000D01*
X113240075Y-75557000D01*
X113397142Y-75588242D01*
G37*
G36*
X141337142Y-75588242D02*
G01*
X141485101Y-75649529D01*
X141618255Y-75738499D01*
X141731501Y-75851745D01*
X141820471Y-75984899D01*
X141881758Y-76132858D01*
X141913000Y-76289925D01*
X141913000Y-76450075D01*
X141881758Y-76607142D01*
X141820471Y-76755101D01*
X141731501Y-76888255D01*
X141618255Y-77001501D01*
X141485101Y-77090471D01*
X141337142Y-77151758D01*
X141180075Y-77183000D01*
X141019925Y-77183000D01*
X140862858Y-77151758D01*
X140714899Y-77090471D01*
X140581745Y-77001501D01*
X140468499Y-76888255D01*
X140379529Y-76755101D01*
X140318242Y-76607142D01*
X140287000Y-76450075D01*
X140287000Y-76289925D01*
X140318242Y-76132858D01*
X140379529Y-75984899D01*
X140468499Y-75851745D01*
X140581745Y-75738499D01*
X140714899Y-75649529D01*
X140862858Y-75588242D01*
X141019925Y-75557000D01*
X141180075Y-75557000D01*
X141337142Y-75588242D01*
G37*
G36*
X107578278Y-75052987D02*
G01*
X107611304Y-75063005D01*
X107641739Y-75079273D01*
X107668415Y-75101165D01*
X107690307Y-75127841D01*
X107706575Y-75158276D01*
X107716593Y-75191302D01*
X107720580Y-75231784D01*
X107720580Y-76668216D01*
X107716593Y-76708698D01*
X107706575Y-76741724D01*
X107690307Y-76772159D01*
X107668415Y-76798835D01*
X107641739Y-76820727D01*
X107611304Y-76836995D01*
X107578278Y-76847013D01*
X107537796Y-76851000D01*
X105801364Y-76851000D01*
X105760882Y-76847013D01*
X105727856Y-76836995D01*
X105697421Y-76820727D01*
X105670745Y-76798835D01*
X105648853Y-76772159D01*
X105632585Y-76741724D01*
X105622567Y-76708698D01*
X105618580Y-76668216D01*
X105618580Y-75231784D01*
X105622567Y-75191302D01*
X105632585Y-75158276D01*
X105648853Y-75127841D01*
X105670745Y-75101165D01*
X105697421Y-75079273D01*
X105727856Y-75063005D01*
X105760882Y-75052987D01*
X105801364Y-75049000D01*
X107537796Y-75049000D01*
X107578278Y-75052987D01*
G37*
G36*
X113397142Y-73048242D02*
G01*
X113545101Y-73109529D01*
X113678255Y-73198499D01*
X113791501Y-73311745D01*
X113880471Y-73444899D01*
X113941758Y-73592858D01*
X113973000Y-73749925D01*
X113973000Y-73910075D01*
X113941758Y-74067142D01*
X113880471Y-74215101D01*
X113791501Y-74348255D01*
X113678255Y-74461501D01*
X113545101Y-74550471D01*
X113397142Y-74611758D01*
X113240075Y-74643000D01*
X113079925Y-74643000D01*
X112922858Y-74611758D01*
X112774899Y-74550471D01*
X112641745Y-74461501D01*
X112528499Y-74348255D01*
X112439529Y-74215101D01*
X112378242Y-74067142D01*
X112347000Y-73910075D01*
X112347000Y-73749925D01*
X112378242Y-73592858D01*
X112439529Y-73444899D01*
X112528499Y-73311745D01*
X112641745Y-73198499D01*
X112774899Y-73109529D01*
X112922858Y-73048242D01*
X113079925Y-73017000D01*
X113240075Y-73017000D01*
X113397142Y-73048242D01*
G37*
G36*
X141337142Y-73048242D02*
G01*
X141485101Y-73109529D01*
X141618255Y-73198499D01*
X141731501Y-73311745D01*
X141820471Y-73444899D01*
X141881758Y-73592858D01*
X141913000Y-73749925D01*
X141913000Y-73910075D01*
X141881758Y-74067142D01*
X141820471Y-74215101D01*
X141731501Y-74348255D01*
X141618255Y-74461501D01*
X141485101Y-74550471D01*
X141337142Y-74611758D01*
X141180075Y-74643000D01*
X141019925Y-74643000D01*
X140862858Y-74611758D01*
X140714899Y-74550471D01*
X140581745Y-74461501D01*
X140468499Y-74348255D01*
X140379529Y-74215101D01*
X140318242Y-74067142D01*
X140287000Y-73910075D01*
X140287000Y-73749925D01*
X140318242Y-73592858D01*
X140379529Y-73444899D01*
X140468499Y-73311745D01*
X140581745Y-73198499D01*
X140714899Y-73109529D01*
X140862858Y-73048242D01*
X141019925Y-73017000D01*
X141180075Y-73017000D01*
X141337142Y-73048242D01*
G37*
G36*
X149575256Y-70691298D02*
G01*
X149681579Y-70712447D01*
X149982042Y-70836903D01*
X150252451Y-71017585D01*
X150482415Y-71247549D01*
X150564284Y-71370075D01*
X150663098Y-71517960D01*
X150787553Y-71818422D01*
X150851000Y-72137389D01*
X150851000Y-72462611D01*
X150787553Y-72781578D01*
X150677098Y-73048242D01*
X150663097Y-73082042D01*
X150482415Y-73352451D01*
X150252451Y-73582415D01*
X149982042Y-73763097D01*
X149681579Y-73887553D01*
X149575256Y-73908702D01*
X149362611Y-73951000D01*
X149037389Y-73951000D01*
X148824744Y-73908702D01*
X148718421Y-73887553D01*
X148417958Y-73763097D01*
X148147549Y-73582415D01*
X147917585Y-73352451D01*
X147736903Y-73082042D01*
X147722903Y-73048242D01*
X147612447Y-72781578D01*
X147549000Y-72462611D01*
X147549000Y-72137389D01*
X147612447Y-71818422D01*
X147736902Y-71517960D01*
X147835716Y-71370075D01*
X147917585Y-71247549D01*
X148147549Y-71017585D01*
X148417958Y-70836903D01*
X148718421Y-70712447D01*
X148824744Y-70691298D01*
X149037389Y-70649000D01*
X149362611Y-70649000D01*
X149575256Y-70691298D01*
G37*
G36*
X141337142Y-70508242D02*
G01*
X141485101Y-70569529D01*
X141618255Y-70658499D01*
X141731501Y-70771745D01*
X141820471Y-70904899D01*
X141881758Y-71052858D01*
X141913000Y-71209925D01*
X141913000Y-71370075D01*
X141881758Y-71527142D01*
X141820471Y-71675101D01*
X141731501Y-71808255D01*
X141618255Y-71921501D01*
X141485101Y-72010471D01*
X141337142Y-72071758D01*
X141180075Y-72103000D01*
X141019925Y-72103000D01*
X140862858Y-72071758D01*
X140714899Y-72010471D01*
X140581745Y-71921501D01*
X140468499Y-71808255D01*
X140379529Y-71675101D01*
X140318242Y-71527142D01*
X140287000Y-71370075D01*
X140287000Y-71209925D01*
X140318242Y-71052858D01*
X140379529Y-70904899D01*
X140468499Y-70771745D01*
X140581745Y-70658499D01*
X140714899Y-70569529D01*
X140862858Y-70508242D01*
X141019925Y-70477000D01*
X141180075Y-70477000D01*
X141337142Y-70508242D01*
G37*
G36*
X113397142Y-70508242D02*
G01*
X113545101Y-70569529D01*
X113678255Y-70658499D01*
X113791501Y-70771745D01*
X113880471Y-70904899D01*
X113941758Y-71052858D01*
X113973000Y-71209925D01*
X113973000Y-71370075D01*
X113941758Y-71527142D01*
X113880471Y-71675101D01*
X113791501Y-71808255D01*
X113678255Y-71921501D01*
X113545101Y-72010471D01*
X113397142Y-72071758D01*
X113240075Y-72103000D01*
X113079925Y-72103000D01*
X112922858Y-72071758D01*
X112774899Y-72010471D01*
X112641745Y-71921501D01*
X112528499Y-71808255D01*
X112439529Y-71675101D01*
X112378242Y-71527142D01*
X112347000Y-71370075D01*
X112347000Y-71209925D01*
X112378242Y-71052858D01*
X112439529Y-70904899D01*
X112528499Y-70771745D01*
X112641745Y-70658499D01*
X112774899Y-70569529D01*
X112922858Y-70508242D01*
X113079925Y-70477000D01*
X113240075Y-70477000D01*
X113397142Y-70508242D01*
G37*
M02*
