G04 #@! TF.GenerationSoftware,KiCad,Pcbnew,5.1.5+dfsg1-2build2*
G04 #@! TF.CreationDate,2022-01-06T00:43:13+01:00*
G04 #@! TF.ProjectId,Bell,42656c6c-2e6b-4696-9361-645f70636258,V1.0*
G04 #@! TF.SameCoordinates,Original*
G04 #@! TF.FileFunction,Legend,Bot*
G04 #@! TF.FilePolarity,Positive*
%FSLAX46Y46*%
G04 Gerber Fmt 4.6, Leading zero omitted, Abs format (unit mm)*
G04 Created by KiCad (PCBNEW 5.1.5+dfsg1-2build2) date 2022-01-06 00:43:13*
%MOMM*%
%LPD*%
G04 APERTURE LIST*
%ADD10C,0.125000*%
%ADD11C,0.100000*%
%ADD12C,0.120000*%
%ADD13C,0.150000*%
G04 APERTURE END LIST*
D10*
X130838571Y-97528071D02*
X130695714Y-97575690D01*
X130648095Y-97623309D01*
X130600476Y-97718547D01*
X130600476Y-97861404D01*
X130648095Y-97956642D01*
X130695714Y-98004261D01*
X130790952Y-98051880D01*
X131171904Y-98051880D01*
X131171904Y-97051880D01*
X130838571Y-97051880D01*
X130743333Y-97099500D01*
X130695714Y-97147119D01*
X130648095Y-97242357D01*
X130648095Y-97337595D01*
X130695714Y-97432833D01*
X130743333Y-97480452D01*
X130838571Y-97528071D01*
X131171904Y-97528071D01*
X129790952Y-98004261D02*
X129886190Y-98051880D01*
X130076666Y-98051880D01*
X130171904Y-98004261D01*
X130219523Y-97909023D01*
X130219523Y-97528071D01*
X130171904Y-97432833D01*
X130076666Y-97385214D01*
X129886190Y-97385214D01*
X129790952Y-97432833D01*
X129743333Y-97528071D01*
X129743333Y-97623309D01*
X130219523Y-97718547D01*
X129171904Y-98051880D02*
X129267142Y-98004261D01*
X129314761Y-97909023D01*
X129314761Y-97051880D01*
X128648095Y-98051880D02*
X128743333Y-98004261D01*
X128790952Y-97909023D01*
X128790952Y-97051880D01*
X127171904Y-97528071D02*
X127029047Y-97575690D01*
X126981428Y-97623309D01*
X126933809Y-97718547D01*
X126933809Y-97861404D01*
X126981428Y-97956642D01*
X127029047Y-98004261D01*
X127124285Y-98051880D01*
X127505238Y-98051880D01*
X127505238Y-97051880D01*
X127171904Y-97051880D01*
X127076666Y-97099500D01*
X127029047Y-97147119D01*
X126981428Y-97242357D01*
X126981428Y-97337595D01*
X127029047Y-97432833D01*
X127076666Y-97480452D01*
X127171904Y-97528071D01*
X127505238Y-97528071D01*
X126362380Y-98051880D02*
X126457619Y-98004261D01*
X126505238Y-97956642D01*
X126552857Y-97861404D01*
X126552857Y-97575690D01*
X126505238Y-97480452D01*
X126457619Y-97432833D01*
X126362380Y-97385214D01*
X126219523Y-97385214D01*
X126124285Y-97432833D01*
X126076666Y-97480452D01*
X126029047Y-97575690D01*
X126029047Y-97861404D01*
X126076666Y-97956642D01*
X126124285Y-98004261D01*
X126219523Y-98051880D01*
X126362380Y-98051880D01*
X125171904Y-98051880D02*
X125171904Y-97528071D01*
X125219523Y-97432833D01*
X125314761Y-97385214D01*
X125505238Y-97385214D01*
X125600476Y-97432833D01*
X125171904Y-98004261D02*
X125267142Y-98051880D01*
X125505238Y-98051880D01*
X125600476Y-98004261D01*
X125648095Y-97909023D01*
X125648095Y-97813785D01*
X125600476Y-97718547D01*
X125505238Y-97670928D01*
X125267142Y-97670928D01*
X125171904Y-97623309D01*
X124695714Y-98051880D02*
X124695714Y-97385214D01*
X124695714Y-97575690D02*
X124648095Y-97480452D01*
X124600476Y-97432833D01*
X124505238Y-97385214D01*
X124410000Y-97385214D01*
X123648095Y-98051880D02*
X123648095Y-97051880D01*
X123648095Y-98004261D02*
X123743333Y-98051880D01*
X123933809Y-98051880D01*
X124029047Y-98004261D01*
X124076666Y-97956642D01*
X124124285Y-97861404D01*
X124124285Y-97575690D01*
X124076666Y-97480452D01*
X124029047Y-97432833D01*
X123933809Y-97385214D01*
X123743333Y-97385214D01*
X123648095Y-97432833D01*
X133957619Y-100490880D02*
X133957619Y-99490880D01*
X133576666Y-99490880D01*
X133481428Y-99538500D01*
X133433809Y-99586119D01*
X133386190Y-99681357D01*
X133386190Y-99824214D01*
X133433809Y-99919452D01*
X133481428Y-99967071D01*
X133576666Y-100014690D01*
X133957619Y-100014690D01*
X132529047Y-100490880D02*
X132529047Y-99967071D01*
X132576666Y-99871833D01*
X132671904Y-99824214D01*
X132862380Y-99824214D01*
X132957619Y-99871833D01*
X132529047Y-100443261D02*
X132624285Y-100490880D01*
X132862380Y-100490880D01*
X132957619Y-100443261D01*
X133005238Y-100348023D01*
X133005238Y-100252785D01*
X132957619Y-100157547D01*
X132862380Y-100109928D01*
X132624285Y-100109928D01*
X132529047Y-100062309D01*
X132195714Y-99824214D02*
X131814761Y-99824214D01*
X132052857Y-99490880D02*
X132052857Y-100348023D01*
X132005238Y-100443261D01*
X131910000Y-100490880D01*
X131814761Y-100490880D01*
X131481428Y-100490880D02*
X131481428Y-99824214D01*
X131481428Y-100014690D02*
X131433809Y-99919452D01*
X131386190Y-99871833D01*
X131290952Y-99824214D01*
X131195714Y-99824214D01*
X130862380Y-100490880D02*
X130862380Y-99824214D01*
X130862380Y-99490880D02*
X130910000Y-99538500D01*
X130862380Y-99586119D01*
X130814761Y-99538500D01*
X130862380Y-99490880D01*
X130862380Y-99586119D01*
X129957619Y-100443261D02*
X130052857Y-100490880D01*
X130243333Y-100490880D01*
X130338571Y-100443261D01*
X130386190Y-100395642D01*
X130433809Y-100300404D01*
X130433809Y-100014690D01*
X130386190Y-99919452D01*
X130338571Y-99871833D01*
X130243333Y-99824214D01*
X130052857Y-99824214D01*
X129957619Y-99871833D01*
X129529047Y-100490880D02*
X129529047Y-99490880D01*
X129433809Y-100109928D02*
X129148095Y-100490880D01*
X129148095Y-99824214D02*
X129529047Y-100205166D01*
X127957619Y-100490880D02*
X127957619Y-99490880D01*
X127576666Y-99490880D01*
X127481428Y-99538500D01*
X127433809Y-99586119D01*
X127386190Y-99681357D01*
X127386190Y-99824214D01*
X127433809Y-99919452D01*
X127481428Y-99967071D01*
X127576666Y-100014690D01*
X127957619Y-100014690D01*
X126576666Y-100443261D02*
X126671904Y-100490880D01*
X126862380Y-100490880D01*
X126957619Y-100443261D01*
X127005238Y-100348023D01*
X127005238Y-99967071D01*
X126957619Y-99871833D01*
X126862380Y-99824214D01*
X126671904Y-99824214D01*
X126576666Y-99871833D01*
X126529047Y-99967071D01*
X126529047Y-100062309D01*
X127005238Y-100157547D01*
X125671904Y-100490880D02*
X125671904Y-99490880D01*
X125671904Y-100443261D02*
X125767142Y-100490880D01*
X125957619Y-100490880D01*
X126052857Y-100443261D01*
X126100476Y-100395642D01*
X126148095Y-100300404D01*
X126148095Y-100014690D01*
X126100476Y-99919452D01*
X126052857Y-99871833D01*
X125957619Y-99824214D01*
X125767142Y-99824214D01*
X125671904Y-99871833D01*
X124814761Y-100443261D02*
X124910000Y-100490880D01*
X125100476Y-100490880D01*
X125195714Y-100443261D01*
X125243333Y-100348023D01*
X125243333Y-99967071D01*
X125195714Y-99871833D01*
X125100476Y-99824214D01*
X124910000Y-99824214D01*
X124814761Y-99871833D01*
X124767142Y-99967071D01*
X124767142Y-100062309D01*
X125243333Y-100157547D01*
X124338571Y-100490880D02*
X124338571Y-99824214D01*
X124338571Y-100014690D02*
X124290952Y-99919452D01*
X124243333Y-99871833D01*
X124148095Y-99824214D01*
X124052857Y-99824214D01*
X123767142Y-100443261D02*
X123671904Y-100490880D01*
X123481428Y-100490880D01*
X123386190Y-100443261D01*
X123338571Y-100348023D01*
X123338571Y-100300404D01*
X123386190Y-100205166D01*
X123481428Y-100157547D01*
X123624285Y-100157547D01*
X123719523Y-100109928D01*
X123767142Y-100014690D01*
X123767142Y-99967071D01*
X123719523Y-99871833D01*
X123624285Y-99824214D01*
X123481428Y-99824214D01*
X123386190Y-99871833D01*
X122529047Y-100443261D02*
X122624285Y-100490880D01*
X122814761Y-100490880D01*
X122910000Y-100443261D01*
X122957619Y-100348023D01*
X122957619Y-99967071D01*
X122910000Y-99871833D01*
X122814761Y-99824214D01*
X122624285Y-99824214D01*
X122529047Y-99871833D01*
X122481428Y-99967071D01*
X122481428Y-100062309D01*
X122957619Y-100157547D01*
X122052857Y-99824214D02*
X122052857Y-100490880D01*
X122052857Y-99919452D02*
X122005238Y-99871833D01*
X121910000Y-99824214D01*
X121767142Y-99824214D01*
X121671904Y-99871833D01*
X121624285Y-99967071D01*
X121624285Y-100490880D01*
X133910000Y-102068261D02*
X134005238Y-102115880D01*
X134195714Y-102115880D01*
X134290952Y-102068261D01*
X134338571Y-102020642D01*
X134386190Y-101925404D01*
X134386190Y-101639690D01*
X134338571Y-101544452D01*
X134290952Y-101496833D01*
X134195714Y-101449214D01*
X134005238Y-101449214D01*
X133910000Y-101496833D01*
X133624285Y-101449214D02*
X133243333Y-101449214D01*
X133481428Y-101115880D02*
X133481428Y-101973023D01*
X133433809Y-102068261D01*
X133338571Y-102115880D01*
X133243333Y-102115880D01*
X133005238Y-102115880D02*
X132481428Y-101449214D01*
X133005238Y-101449214D02*
X132481428Y-102115880D01*
X132100476Y-102020642D02*
X132052857Y-102068261D01*
X132100476Y-102115880D01*
X132148095Y-102068261D01*
X132100476Y-102020642D01*
X132100476Y-102115880D01*
X131719523Y-102115880D02*
X131195714Y-101449214D01*
X131719523Y-101449214D02*
X131195714Y-102115880D01*
X130386190Y-102115880D02*
X130386190Y-101115880D01*
X130386190Y-102068261D02*
X130481428Y-102115880D01*
X130671904Y-102115880D01*
X130767142Y-102068261D01*
X130814761Y-102020642D01*
X130862380Y-101925404D01*
X130862380Y-101639690D01*
X130814761Y-101544452D01*
X130767142Y-101496833D01*
X130671904Y-101449214D01*
X130481428Y-101449214D01*
X130386190Y-101496833D01*
X129481428Y-102115880D02*
X129481428Y-101592071D01*
X129529047Y-101496833D01*
X129624285Y-101449214D01*
X129814761Y-101449214D01*
X129910000Y-101496833D01*
X129481428Y-102068261D02*
X129576666Y-102115880D01*
X129814761Y-102115880D01*
X129910000Y-102068261D01*
X129957619Y-101973023D01*
X129957619Y-101877785D01*
X129910000Y-101782547D01*
X129814761Y-101734928D01*
X129576666Y-101734928D01*
X129481428Y-101687309D01*
X128386190Y-101639690D02*
X128433809Y-101592071D01*
X128529047Y-101544452D01*
X128624285Y-101544452D01*
X128719523Y-101592071D01*
X128767142Y-101639690D01*
X128814761Y-101734928D01*
X128814761Y-101830166D01*
X128767142Y-101925404D01*
X128719523Y-101973023D01*
X128624285Y-102020642D01*
X128529047Y-102020642D01*
X128433809Y-101973023D01*
X128386190Y-101925404D01*
X128386190Y-101544452D02*
X128386190Y-101925404D01*
X128338571Y-101973023D01*
X128290952Y-101973023D01*
X128195714Y-101925404D01*
X128148095Y-101830166D01*
X128148095Y-101592071D01*
X128243333Y-101449214D01*
X128386190Y-101353976D01*
X128576666Y-101306357D01*
X128767142Y-101353976D01*
X128910000Y-101449214D01*
X129005238Y-101592071D01*
X129052857Y-101782547D01*
X129005238Y-101973023D01*
X128910000Y-102115880D01*
X128767142Y-102211119D01*
X128576666Y-102258738D01*
X128386190Y-102211119D01*
X128243333Y-102115880D01*
X127290952Y-101449214D02*
X127290952Y-102258738D01*
X127338571Y-102353976D01*
X127386190Y-102401595D01*
X127481428Y-102449214D01*
X127624285Y-102449214D01*
X127719523Y-102401595D01*
X127290952Y-102068261D02*
X127386190Y-102115880D01*
X127576666Y-102115880D01*
X127671904Y-102068261D01*
X127719523Y-102020642D01*
X127767142Y-101925404D01*
X127767142Y-101639690D01*
X127719523Y-101544452D01*
X127671904Y-101496833D01*
X127576666Y-101449214D01*
X127386190Y-101449214D01*
X127290952Y-101496833D01*
X126814761Y-102115880D02*
X126814761Y-101449214D01*
X126814761Y-101544452D02*
X126767142Y-101496833D01*
X126671904Y-101449214D01*
X126529047Y-101449214D01*
X126433809Y-101496833D01*
X126386190Y-101592071D01*
X126386190Y-102115880D01*
X126386190Y-101592071D02*
X126338571Y-101496833D01*
X126243333Y-101449214D01*
X126100476Y-101449214D01*
X126005238Y-101496833D01*
X125957619Y-101592071D01*
X125957619Y-102115880D01*
X125052857Y-102115880D02*
X125052857Y-101592071D01*
X125100476Y-101496833D01*
X125195714Y-101449214D01*
X125386190Y-101449214D01*
X125481428Y-101496833D01*
X125052857Y-102068261D02*
X125148095Y-102115880D01*
X125386190Y-102115880D01*
X125481428Y-102068261D01*
X125529047Y-101973023D01*
X125529047Y-101877785D01*
X125481428Y-101782547D01*
X125386190Y-101734928D01*
X125148095Y-101734928D01*
X125052857Y-101687309D01*
X124576666Y-102115880D02*
X124576666Y-101449214D01*
X124576666Y-101115880D02*
X124624285Y-101163500D01*
X124576666Y-101211119D01*
X124529047Y-101163500D01*
X124576666Y-101115880D01*
X124576666Y-101211119D01*
X123957619Y-102115880D02*
X124052857Y-102068261D01*
X124100476Y-101973023D01*
X124100476Y-101115880D01*
X123576666Y-102020642D02*
X123529047Y-102068261D01*
X123576666Y-102115880D01*
X123624285Y-102068261D01*
X123576666Y-102020642D01*
X123576666Y-102115880D01*
X122671904Y-102068261D02*
X122767142Y-102115880D01*
X122957619Y-102115880D01*
X123052857Y-102068261D01*
X123100476Y-102020642D01*
X123148095Y-101925404D01*
X123148095Y-101639690D01*
X123100476Y-101544452D01*
X123052857Y-101496833D01*
X122957619Y-101449214D01*
X122767142Y-101449214D01*
X122671904Y-101496833D01*
X122100476Y-102115880D02*
X122195714Y-102068261D01*
X122243333Y-102020642D01*
X122290952Y-101925404D01*
X122290952Y-101639690D01*
X122243333Y-101544452D01*
X122195714Y-101496833D01*
X122100476Y-101449214D01*
X121957619Y-101449214D01*
X121862380Y-101496833D01*
X121814761Y-101544452D01*
X121767142Y-101639690D01*
X121767142Y-101925404D01*
X121814761Y-102020642D01*
X121862380Y-102068261D01*
X121957619Y-102115880D01*
X122100476Y-102115880D01*
X121338571Y-102115880D02*
X121338571Y-101449214D01*
X121338571Y-101544452D02*
X121290952Y-101496833D01*
X121195714Y-101449214D01*
X121052857Y-101449214D01*
X120957619Y-101496833D01*
X120910000Y-101592071D01*
X120910000Y-102115880D01*
X120910000Y-101592071D02*
X120862380Y-101496833D01*
X120767142Y-101449214D01*
X120624285Y-101449214D01*
X120529047Y-101496833D01*
X120481428Y-101592071D01*
X120481428Y-102115880D01*
X136743333Y-103740880D02*
X136743333Y-102740880D01*
X136314761Y-103740880D02*
X136314761Y-103217071D01*
X136362380Y-103121833D01*
X136457619Y-103074214D01*
X136600476Y-103074214D01*
X136695714Y-103121833D01*
X136743333Y-103169452D01*
X135981428Y-103074214D02*
X135600476Y-103074214D01*
X135838571Y-102740880D02*
X135838571Y-103598023D01*
X135790952Y-103693261D01*
X135695714Y-103740880D01*
X135600476Y-103740880D01*
X135410000Y-103074214D02*
X135029047Y-103074214D01*
X135267142Y-102740880D02*
X135267142Y-103598023D01*
X135219523Y-103693261D01*
X135124285Y-103740880D01*
X135029047Y-103740880D01*
X134695714Y-103074214D02*
X134695714Y-104074214D01*
X134695714Y-103121833D02*
X134600476Y-103074214D01*
X134410000Y-103074214D01*
X134314761Y-103121833D01*
X134267142Y-103169452D01*
X134219523Y-103264690D01*
X134219523Y-103550404D01*
X134267142Y-103645642D01*
X134314761Y-103693261D01*
X134410000Y-103740880D01*
X134600476Y-103740880D01*
X134695714Y-103693261D01*
X133838571Y-103693261D02*
X133743333Y-103740880D01*
X133552857Y-103740880D01*
X133457619Y-103693261D01*
X133410000Y-103598023D01*
X133410000Y-103550404D01*
X133457619Y-103455166D01*
X133552857Y-103407547D01*
X133695714Y-103407547D01*
X133790952Y-103359928D01*
X133838571Y-103264690D01*
X133838571Y-103217071D01*
X133790952Y-103121833D01*
X133695714Y-103074214D01*
X133552857Y-103074214D01*
X133457619Y-103121833D01*
X132981428Y-103645642D02*
X132933809Y-103693261D01*
X132981428Y-103740880D01*
X133029047Y-103693261D01*
X132981428Y-103645642D01*
X132981428Y-103740880D01*
X132981428Y-103121833D02*
X132933809Y-103169452D01*
X132981428Y-103217071D01*
X133029047Y-103169452D01*
X132981428Y-103121833D01*
X132981428Y-103217071D01*
X131790952Y-102693261D02*
X132648095Y-103978976D01*
X130743333Y-102693261D02*
X131600476Y-103978976D01*
X129981428Y-103074214D02*
X129981428Y-103883738D01*
X130029047Y-103978976D01*
X130076666Y-104026595D01*
X130171904Y-104074214D01*
X130314761Y-104074214D01*
X130410000Y-104026595D01*
X129981428Y-103693261D02*
X130076666Y-103740880D01*
X130267142Y-103740880D01*
X130362380Y-103693261D01*
X130410000Y-103645642D01*
X130457619Y-103550404D01*
X130457619Y-103264690D01*
X130410000Y-103169452D01*
X130362380Y-103121833D01*
X130267142Y-103074214D01*
X130076666Y-103074214D01*
X129981428Y-103121833D01*
X129505238Y-103740880D02*
X129505238Y-103074214D01*
X129505238Y-102740880D02*
X129552857Y-102788500D01*
X129505238Y-102836119D01*
X129457619Y-102788500D01*
X129505238Y-102740880D01*
X129505238Y-102836119D01*
X129171904Y-103074214D02*
X128790952Y-103074214D01*
X129029047Y-102740880D02*
X129029047Y-103598023D01*
X128981428Y-103693261D01*
X128886190Y-103740880D01*
X128790952Y-103740880D01*
X128457619Y-103740880D02*
X128457619Y-102740880D01*
X128029047Y-103740880D02*
X128029047Y-103217071D01*
X128076666Y-103121833D01*
X128171904Y-103074214D01*
X128314761Y-103074214D01*
X128410000Y-103121833D01*
X128457619Y-103169452D01*
X127124285Y-103074214D02*
X127124285Y-103740880D01*
X127552857Y-103074214D02*
X127552857Y-103598023D01*
X127505238Y-103693261D01*
X127410000Y-103740880D01*
X127267142Y-103740880D01*
X127171904Y-103693261D01*
X127124285Y-103645642D01*
X126648095Y-103740880D02*
X126648095Y-102740880D01*
X126648095Y-103121833D02*
X126552857Y-103074214D01*
X126362380Y-103074214D01*
X126267142Y-103121833D01*
X126219523Y-103169452D01*
X126171904Y-103264690D01*
X126171904Y-103550404D01*
X126219523Y-103645642D01*
X126267142Y-103693261D01*
X126362380Y-103740880D01*
X126552857Y-103740880D01*
X126648095Y-103693261D01*
X125743333Y-103645642D02*
X125695714Y-103693261D01*
X125743333Y-103740880D01*
X125790952Y-103693261D01*
X125743333Y-103645642D01*
X125743333Y-103740880D01*
X124838571Y-103693261D02*
X124933809Y-103740880D01*
X125124285Y-103740880D01*
X125219523Y-103693261D01*
X125267142Y-103645642D01*
X125314761Y-103550404D01*
X125314761Y-103264690D01*
X125267142Y-103169452D01*
X125219523Y-103121833D01*
X125124285Y-103074214D01*
X124933809Y-103074214D01*
X124838571Y-103121833D01*
X124267142Y-103740880D02*
X124362380Y-103693261D01*
X124410000Y-103645642D01*
X124457619Y-103550404D01*
X124457619Y-103264690D01*
X124410000Y-103169452D01*
X124362380Y-103121833D01*
X124267142Y-103074214D01*
X124124285Y-103074214D01*
X124029047Y-103121833D01*
X123981428Y-103169452D01*
X123933809Y-103264690D01*
X123933809Y-103550404D01*
X123981428Y-103645642D01*
X124029047Y-103693261D01*
X124124285Y-103740880D01*
X124267142Y-103740880D01*
X123505238Y-103740880D02*
X123505238Y-103074214D01*
X123505238Y-103169452D02*
X123457619Y-103121833D01*
X123362380Y-103074214D01*
X123219523Y-103074214D01*
X123124285Y-103121833D01*
X123076666Y-103217071D01*
X123076666Y-103740880D01*
X123076666Y-103217071D02*
X123029047Y-103121833D01*
X122933809Y-103074214D01*
X122790952Y-103074214D01*
X122695714Y-103121833D01*
X122648095Y-103217071D01*
X122648095Y-103740880D01*
X121457619Y-102693261D02*
X122314761Y-103978976D01*
X120552857Y-103645642D02*
X120600476Y-103693261D01*
X120743333Y-103740880D01*
X120838571Y-103740880D01*
X120981428Y-103693261D01*
X121076666Y-103598023D01*
X121124285Y-103502785D01*
X121171904Y-103312309D01*
X121171904Y-103169452D01*
X121124285Y-102978976D01*
X121076666Y-102883738D01*
X120981428Y-102788500D01*
X120838571Y-102740880D01*
X120743333Y-102740880D01*
X120600476Y-102788500D01*
X120552857Y-102836119D01*
X120267142Y-102740880D02*
X119695714Y-102740880D01*
X119981428Y-103740880D02*
X119981428Y-102740880D01*
X119457619Y-102740880D02*
X118790952Y-103740880D01*
X118790952Y-102740880D02*
X119457619Y-103740880D01*
X118505238Y-103074214D02*
X117981428Y-103074214D01*
X118505238Y-103740880D01*
X117981428Y-103740880D01*
D11*
X137802857Y-69933357D02*
X137802857Y-70338119D01*
X137826666Y-70385738D01*
X137850476Y-70409547D01*
X137898095Y-70433357D01*
X137969523Y-70433357D01*
X138017142Y-70409547D01*
X137802857Y-70242880D02*
X137850476Y-70266690D01*
X137945714Y-70266690D01*
X137993333Y-70242880D01*
X138017142Y-70219071D01*
X138040952Y-70171452D01*
X138040952Y-70028595D01*
X138017142Y-69980976D01*
X137993333Y-69957166D01*
X137945714Y-69933357D01*
X137850476Y-69933357D01*
X137802857Y-69957166D01*
X137564761Y-70266690D02*
X137564761Y-69933357D01*
X137564761Y-69766690D02*
X137588571Y-69790500D01*
X137564761Y-69814309D01*
X137540952Y-69790500D01*
X137564761Y-69766690D01*
X137564761Y-69814309D01*
X137398095Y-69933357D02*
X137207619Y-69933357D01*
X137326666Y-69766690D02*
X137326666Y-70195261D01*
X137302857Y-70242880D01*
X137255238Y-70266690D01*
X137207619Y-70266690D01*
X137040952Y-70266690D02*
X137040952Y-69766690D01*
X136826666Y-70266690D02*
X136826666Y-70004785D01*
X136850476Y-69957166D01*
X136898095Y-69933357D01*
X136969523Y-69933357D01*
X137017142Y-69957166D01*
X137040952Y-69980976D01*
X136374285Y-69933357D02*
X136374285Y-70266690D01*
X136588571Y-69933357D02*
X136588571Y-70195261D01*
X136564761Y-70242880D01*
X136517142Y-70266690D01*
X136445714Y-70266690D01*
X136398095Y-70242880D01*
X136374285Y-70219071D01*
X136136190Y-70266690D02*
X136136190Y-69766690D01*
X136136190Y-69957166D02*
X136088571Y-69933357D01*
X135993333Y-69933357D01*
X135945714Y-69957166D01*
X135921904Y-69980976D01*
X135898095Y-70028595D01*
X135898095Y-70171452D01*
X135921904Y-70219071D01*
X135945714Y-70242880D01*
X135993333Y-70266690D01*
X136088571Y-70266690D01*
X136136190Y-70242880D01*
X135683809Y-70219071D02*
X135660000Y-70242880D01*
X135683809Y-70266690D01*
X135707619Y-70242880D01*
X135683809Y-70219071D01*
X135683809Y-70266690D01*
X135231428Y-70242880D02*
X135279047Y-70266690D01*
X135374285Y-70266690D01*
X135421904Y-70242880D01*
X135445714Y-70219071D01*
X135469523Y-70171452D01*
X135469523Y-70028595D01*
X135445714Y-69980976D01*
X135421904Y-69957166D01*
X135374285Y-69933357D01*
X135279047Y-69933357D01*
X135231428Y-69957166D01*
X134945714Y-70266690D02*
X134993333Y-70242880D01*
X135017142Y-70219071D01*
X135040952Y-70171452D01*
X135040952Y-70028595D01*
X135017142Y-69980976D01*
X134993333Y-69957166D01*
X134945714Y-69933357D01*
X134874285Y-69933357D01*
X134826666Y-69957166D01*
X134802857Y-69980976D01*
X134779047Y-70028595D01*
X134779047Y-70171452D01*
X134802857Y-70219071D01*
X134826666Y-70242880D01*
X134874285Y-70266690D01*
X134945714Y-70266690D01*
X134564761Y-70266690D02*
X134564761Y-69933357D01*
X134564761Y-69980976D02*
X134540952Y-69957166D01*
X134493333Y-69933357D01*
X134421904Y-69933357D01*
X134374285Y-69957166D01*
X134350476Y-70004785D01*
X134350476Y-70266690D01*
X134350476Y-70004785D02*
X134326666Y-69957166D01*
X134279047Y-69933357D01*
X134207619Y-69933357D01*
X134160000Y-69957166D01*
X134136190Y-70004785D01*
X134136190Y-70266690D01*
X133540952Y-69742880D02*
X133969523Y-70385738D01*
X133445714Y-69766690D02*
X133160000Y-69766690D01*
X133302857Y-70266690D02*
X133302857Y-69766690D01*
X132993333Y-69766690D02*
X132993333Y-70171452D01*
X132969523Y-70219071D01*
X132945714Y-70242880D01*
X132898095Y-70266690D01*
X132802857Y-70266690D01*
X132755238Y-70242880D01*
X132731428Y-70219071D01*
X132707619Y-70171452D01*
X132707619Y-69766690D01*
X132469523Y-70076214D02*
X132088571Y-70076214D01*
X131850476Y-70266690D02*
X131850476Y-69766690D01*
X131731428Y-69766690D01*
X131660000Y-69790500D01*
X131612380Y-69838119D01*
X131588571Y-69885738D01*
X131564761Y-69980976D01*
X131564761Y-70052404D01*
X131588571Y-70147642D01*
X131612380Y-70195261D01*
X131660000Y-70242880D01*
X131731428Y-70266690D01*
X131850476Y-70266690D01*
X131255238Y-69766690D02*
X131160000Y-69766690D01*
X131112380Y-69790500D01*
X131064761Y-69838119D01*
X131040952Y-69933357D01*
X131040952Y-70100023D01*
X131064761Y-70195261D01*
X131112380Y-70242880D01*
X131160000Y-70266690D01*
X131255238Y-70266690D01*
X131302857Y-70242880D01*
X131350476Y-70195261D01*
X131374285Y-70100023D01*
X131374285Y-69933357D01*
X131350476Y-69838119D01*
X131302857Y-69790500D01*
X131255238Y-69766690D01*
X130826666Y-70076214D02*
X130445714Y-70076214D01*
X130207619Y-70266690D02*
X130207619Y-69766690D01*
X130040952Y-70123833D01*
X129874285Y-69766690D01*
X129874285Y-70266690D01*
X129421904Y-70266690D02*
X129421904Y-70004785D01*
X129445714Y-69957166D01*
X129493333Y-69933357D01*
X129588571Y-69933357D01*
X129636190Y-69957166D01*
X129421904Y-70242880D02*
X129469523Y-70266690D01*
X129588571Y-70266690D01*
X129636190Y-70242880D01*
X129660000Y-70195261D01*
X129660000Y-70147642D01*
X129636190Y-70100023D01*
X129588571Y-70076214D01*
X129469523Y-70076214D01*
X129421904Y-70052404D01*
X129183809Y-70266690D02*
X129183809Y-69766690D01*
X129136190Y-70076214D02*
X128993333Y-70266690D01*
X128993333Y-69933357D02*
X129183809Y-70123833D01*
X128588571Y-70242880D02*
X128636190Y-70266690D01*
X128731428Y-70266690D01*
X128779047Y-70242880D01*
X128802857Y-70195261D01*
X128802857Y-70004785D01*
X128779047Y-69957166D01*
X128731428Y-69933357D01*
X128636190Y-69933357D01*
X128588571Y-69957166D01*
X128564761Y-70004785D01*
X128564761Y-70052404D01*
X128802857Y-70100023D01*
X128350476Y-70266690D02*
X128350476Y-69933357D01*
X128350476Y-70028595D02*
X128326666Y-69980976D01*
X128302857Y-69957166D01*
X128255238Y-69933357D01*
X128207619Y-69933357D01*
X128064761Y-70242880D02*
X128017142Y-70266690D01*
X127921904Y-70266690D01*
X127874285Y-70242880D01*
X127850476Y-70195261D01*
X127850476Y-70171452D01*
X127874285Y-70123833D01*
X127921904Y-70100023D01*
X127993333Y-70100023D01*
X128040952Y-70076214D01*
X128064761Y-70028595D01*
X128064761Y-70004785D01*
X128040952Y-69957166D01*
X127993333Y-69933357D01*
X127921904Y-69933357D01*
X127874285Y-69957166D01*
X127636190Y-69933357D02*
X127636190Y-70433357D01*
X127636190Y-69957166D02*
X127588571Y-69933357D01*
X127493333Y-69933357D01*
X127445714Y-69957166D01*
X127421904Y-69980976D01*
X127398095Y-70028595D01*
X127398095Y-70171452D01*
X127421904Y-70219071D01*
X127445714Y-70242880D01*
X127493333Y-70266690D01*
X127588571Y-70266690D01*
X127636190Y-70242880D01*
X126969523Y-70266690D02*
X126969523Y-70004785D01*
X126993333Y-69957166D01*
X127040952Y-69933357D01*
X127136190Y-69933357D01*
X127183809Y-69957166D01*
X126969523Y-70242880D02*
X127017142Y-70266690D01*
X127136190Y-70266690D01*
X127183809Y-70242880D01*
X127207619Y-70195261D01*
X127207619Y-70147642D01*
X127183809Y-70100023D01*
X127136190Y-70076214D01*
X127017142Y-70076214D01*
X126969523Y-70052404D01*
X126517142Y-70242880D02*
X126564761Y-70266690D01*
X126660000Y-70266690D01*
X126707619Y-70242880D01*
X126731428Y-70219071D01*
X126755238Y-70171452D01*
X126755238Y-70028595D01*
X126731428Y-69980976D01*
X126707619Y-69957166D01*
X126660000Y-69933357D01*
X126564761Y-69933357D01*
X126517142Y-69957166D01*
X126112380Y-70242880D02*
X126160000Y-70266690D01*
X126255238Y-70266690D01*
X126302857Y-70242880D01*
X126326666Y-70195261D01*
X126326666Y-70004785D01*
X126302857Y-69957166D01*
X126255238Y-69933357D01*
X126160000Y-69933357D01*
X126112380Y-69957166D01*
X126088571Y-70004785D01*
X126088571Y-70052404D01*
X126326666Y-70100023D01*
X125517142Y-69742880D02*
X125945714Y-70385738D01*
X125398095Y-69766690D02*
X125279047Y-70266690D01*
X125183809Y-69909547D01*
X125088571Y-70266690D01*
X124969523Y-69766690D01*
X124779047Y-70266690D02*
X124779047Y-69933357D01*
X124779047Y-69766690D02*
X124802857Y-69790500D01*
X124779047Y-69814309D01*
X124755238Y-69790500D01*
X124779047Y-69766690D01*
X124779047Y-69814309D01*
X124540952Y-70266690D02*
X124540952Y-69933357D01*
X124540952Y-70028595D02*
X124517142Y-69980976D01*
X124493333Y-69957166D01*
X124445714Y-69933357D01*
X124398095Y-69933357D01*
X124040952Y-70242880D02*
X124088571Y-70266690D01*
X124183809Y-70266690D01*
X124231428Y-70242880D01*
X124255238Y-70195261D01*
X124255238Y-70004785D01*
X124231428Y-69957166D01*
X124183809Y-69933357D01*
X124088571Y-69933357D01*
X124040952Y-69957166D01*
X124017142Y-70004785D01*
X124017142Y-70052404D01*
X124255238Y-70100023D01*
X123731428Y-70266690D02*
X123779047Y-70242880D01*
X123802857Y-70195261D01*
X123802857Y-69766690D01*
X123350476Y-70242880D02*
X123398095Y-70266690D01*
X123493333Y-70266690D01*
X123540952Y-70242880D01*
X123564761Y-70195261D01*
X123564761Y-70004785D01*
X123540952Y-69957166D01*
X123493333Y-69933357D01*
X123398095Y-69933357D01*
X123350476Y-69957166D01*
X123326666Y-70004785D01*
X123326666Y-70052404D01*
X123564761Y-70100023D01*
X123136190Y-70242880D02*
X123088571Y-70266690D01*
X122993333Y-70266690D01*
X122945714Y-70242880D01*
X122921904Y-70195261D01*
X122921904Y-70171452D01*
X122945714Y-70123833D01*
X122993333Y-70100023D01*
X123064761Y-70100023D01*
X123112380Y-70076214D01*
X123136190Y-70028595D01*
X123136190Y-70004785D01*
X123112380Y-69957166D01*
X123064761Y-69933357D01*
X122993333Y-69933357D01*
X122945714Y-69957166D01*
X122731428Y-70242880D02*
X122683809Y-70266690D01*
X122588571Y-70266690D01*
X122540952Y-70242880D01*
X122517142Y-70195261D01*
X122517142Y-70171452D01*
X122540952Y-70123833D01*
X122588571Y-70100023D01*
X122660000Y-70100023D01*
X122707619Y-70076214D01*
X122731428Y-70028595D01*
X122731428Y-70004785D01*
X122707619Y-69957166D01*
X122660000Y-69933357D01*
X122588571Y-69933357D01*
X122540952Y-69957166D01*
X122302857Y-70076214D02*
X121921904Y-70076214D01*
X121683809Y-70266690D02*
X121683809Y-69766690D01*
X121564761Y-69766690D01*
X121493333Y-69790500D01*
X121445714Y-69838119D01*
X121421904Y-69885738D01*
X121398095Y-69980976D01*
X121398095Y-70052404D01*
X121421904Y-70147642D01*
X121445714Y-70195261D01*
X121493333Y-70242880D01*
X121564761Y-70266690D01*
X121683809Y-70266690D01*
X121112380Y-70266690D02*
X121160000Y-70242880D01*
X121183809Y-70219071D01*
X121207619Y-70171452D01*
X121207619Y-70028595D01*
X121183809Y-69980976D01*
X121160000Y-69957166D01*
X121112380Y-69933357D01*
X121040952Y-69933357D01*
X120993333Y-69957166D01*
X120969523Y-69980976D01*
X120945714Y-70028595D01*
X120945714Y-70171452D01*
X120969523Y-70219071D01*
X120993333Y-70242880D01*
X121040952Y-70266690D01*
X121112380Y-70266690D01*
X120660000Y-70266690D02*
X120707619Y-70242880D01*
X120731428Y-70219071D01*
X120755238Y-70171452D01*
X120755238Y-70028595D01*
X120731428Y-69980976D01*
X120707619Y-69957166D01*
X120660000Y-69933357D01*
X120588571Y-69933357D01*
X120540952Y-69957166D01*
X120517142Y-69980976D01*
X120493333Y-70028595D01*
X120493333Y-70171452D01*
X120517142Y-70219071D01*
X120540952Y-70242880D01*
X120588571Y-70266690D01*
X120660000Y-70266690D01*
X120279047Y-70266690D02*
X120279047Y-69933357D01*
X120279047Y-70028595D02*
X120255238Y-69980976D01*
X120231428Y-69957166D01*
X120183809Y-69933357D01*
X120136190Y-69933357D01*
X119969523Y-70266690D02*
X119969523Y-69766690D01*
X119969523Y-69957166D02*
X119921904Y-69933357D01*
X119826666Y-69933357D01*
X119779047Y-69957166D01*
X119755238Y-69980976D01*
X119731428Y-70028595D01*
X119731428Y-70171452D01*
X119755238Y-70219071D01*
X119779047Y-70242880D01*
X119826666Y-70266690D01*
X119921904Y-70266690D01*
X119969523Y-70242880D01*
X119326666Y-70242880D02*
X119374285Y-70266690D01*
X119469523Y-70266690D01*
X119517142Y-70242880D01*
X119540952Y-70195261D01*
X119540952Y-70004785D01*
X119517142Y-69957166D01*
X119469523Y-69933357D01*
X119374285Y-69933357D01*
X119326666Y-69957166D01*
X119302857Y-70004785D01*
X119302857Y-70052404D01*
X119540952Y-70100023D01*
X119017142Y-70266690D02*
X119064761Y-70242880D01*
X119088571Y-70195261D01*
X119088571Y-69766690D01*
X118755238Y-70266690D02*
X118802857Y-70242880D01*
X118826666Y-70195261D01*
X118826666Y-69766690D01*
X118255238Y-69766690D02*
X118088571Y-70266690D01*
X117921904Y-69766690D01*
X117493333Y-70266690D02*
X117779047Y-70266690D01*
X117636190Y-70266690D02*
X117636190Y-69766690D01*
X117683809Y-69838119D01*
X117731428Y-69885738D01*
X117779047Y-69909547D01*
X117279047Y-70219071D02*
X117255238Y-70242880D01*
X117279047Y-70266690D01*
X117302857Y-70242880D01*
X117279047Y-70219071D01*
X117279047Y-70266690D01*
X116945714Y-69766690D02*
X116898095Y-69766690D01*
X116850476Y-69790500D01*
X116826666Y-69814309D01*
X116802857Y-69861928D01*
X116779047Y-69957166D01*
X116779047Y-70076214D01*
X116802857Y-70171452D01*
X116826666Y-70219071D01*
X116850476Y-70242880D01*
X116898095Y-70266690D01*
X116945714Y-70266690D01*
X116993333Y-70242880D01*
X117017142Y-70219071D01*
X117040952Y-70171452D01*
X117064761Y-70076214D01*
X117064761Y-69957166D01*
X117040952Y-69861928D01*
X117017142Y-69814309D01*
X116993333Y-69790500D01*
X116945714Y-69766690D01*
D12*
X133090000Y-77470000D02*
G75*
G03X133090000Y-77470000I-6100000J0D01*
G01*
D13*
X127870952Y-84598571D02*
X127728095Y-84646190D01*
X127680476Y-84693809D01*
X127632857Y-84789047D01*
X127632857Y-84931904D01*
X127680476Y-85027142D01*
X127728095Y-85074761D01*
X127823333Y-85122380D01*
X128204285Y-85122380D01*
X128204285Y-84122380D01*
X127870952Y-84122380D01*
X127775714Y-84170000D01*
X127728095Y-84217619D01*
X127680476Y-84312857D01*
X127680476Y-84408095D01*
X127728095Y-84503333D01*
X127775714Y-84550952D01*
X127870952Y-84598571D01*
X128204285Y-84598571D01*
X127299523Y-84122380D02*
X126632857Y-84122380D01*
X127299523Y-85122380D01*
X126632857Y-85122380D01*
X125728095Y-85122380D02*
X126299523Y-85122380D01*
X126013809Y-85122380D02*
X126013809Y-84122380D01*
X126109047Y-84265238D01*
X126204285Y-84360476D01*
X126299523Y-84408095D01*
X123560952Y-80081428D02*
X122799047Y-80081428D01*
X123180000Y-80462380D02*
X123180000Y-79700476D01*
M02*
