M48
; DRILL file {KiCad 5.1.5+dfsg1-2build2} date Do 06 Jan 2022 00:42:49 CET
; FORMAT={-:-/ absolute / inch / decimal}
; #@! TF.CreationDate,2022-01-06T00:42:49+01:00
; #@! TF.GenerationSoftware,Kicad,Pcbnew,5.1.5+dfsg1-2build2
; #@! TF.FileFunction,Plated,1,2,PTH
FMAT,2
INCH
T1C0.0300
T2C0.0315
T3C0.0394
T4C0.0433
%
G90
G05
T1
X4.4551Y-2.8067
X4.4551Y-2.9067
X4.4551Y-3.0067
X4.4551Y-3.1067
X4.4551Y-3.2067
X4.4551Y-3.3067
X4.4551Y-3.4067
X4.4551Y-3.5067
X4.4551Y-3.6067
X4.4551Y-3.7067
X4.4551Y-3.8067
X4.4551Y-3.9067
X4.4551Y-4.0067
X4.4551Y-4.1067
X4.4551Y-4.2067
X5.5551Y-2.8067
X5.5551Y-2.9067
X5.5551Y-3.0067
X5.5551Y-3.1067
X5.5551Y-3.2067
X5.5551Y-3.3067
X5.5551Y-3.4067
X5.5551Y-3.5067
X5.5551Y-3.6067
X5.5551Y-3.7067
X5.5551Y-3.8067
X5.5551Y-3.9067
X5.5551Y-4.0067
X5.5551Y-4.1067
X5.5551Y-4.2067
T2
X4.1878Y-4.1102
X4.1878Y-4.189
X5.3Y-3.2318
X5.3Y-3.6318
X5.3Y-3.7944
X5.3Y-4.1944
T3
X4.1996Y-2.9902
X4.1996Y-3.0886
X4.1996Y-3.7933
X4.1996Y-3.8917
X5.8108Y-3.7254
X5.8108Y-3.8238
X5.8108Y-3.2313
X5.8108Y-3.3297
X4.85Y-3.05
X5.1492Y-3.05
T4
X4.8Y-4.1865
X4.9Y-4.1865
X5.0Y-4.1865
T0
M30
